<?xml version="1.0" encoding="UTF-8"?> <svg xmlns="http://www.w3.org/2000/svg" viewBox="0 0 820.8 266.01"><title>logo</title><path d="M153.9,127.5a41.37,41.37,0,0,0,6.9-23.4l-.1-60.7a24.1,24.1,0,0,0,0-3.8A42,42,0,0,0,147,11.4,41.83,41.83,0,0,0,117.6,0H77.3V127.5ZM127.1,32.7a14,14,0,0,1,4.5,9.5l.1,1.2.1,60.7a14.34,14.34,0,0,1-14.4,14.4H105.8V28.9h11.4A14.08,14.08,0,0,1,127.1,32.7Z" transform="translate(0 0.01)" fill="#fff"></path><path d="M163.6,158.2a42,42,0,0,0-6.6-19.7H77.4V265.9h43.1A41.31,41.31,0,0,0,151,253.2a42.47,42.47,0,0,0,12.7-30.6l-.1-60.7A22.85,22.85,0,0,0,163.6,158.2Zm-28.9,64.4a14.2,14.2,0,0,1-4.3,10.3,13.77,13.77,0,0,1-9.9,4.2H106.2V147.5h14.4a13.7,13.7,0,0,1,9.6,3.8,14.56,14.56,0,0,1,4.6,9.5l.1,1.2Z" transform="translate(0 0.01)" fill="#fff"></path><polygon points="704.4 127.21 733.2 127.21 733.2 28.91 759.2 28.91 759.3 0.01 675.7 0.01 675.6 28.91 704.4 28.91 704.4 127.21" fill="#fde100"></polygon><polygon points="704.4 138.21 704.4 265.91 733.2 265.91 733.2 138.21 704.4 138.21" fill="#fde100"></polygon><polygon points="664.6 127.21 664.6 118.51 618.2 118.51 618.2 28.91 664.6 28.91 664.7 0.01 589.3 0.11 589.3 127.21 664.6 127.21" fill="#fde100"></polygon><polygon points="589.3 138.21 589.3 265.91 618.3 265.91 618.4 147.41 664.8 147.41 664.7 138.21 589.3 138.21" fill="#fde100"></polygon><path d="M512.5,127.2l.1-83.8a14.2,14.2,0,0,1,4.3-10.3,14.26,14.26,0,0,1,19.8-.4,14.56,14.56,0,0,1,4.6,9.5l.1,1.2v83.8H570V43.3a24.11,24.11,0,0,0,0-3.8,42.43,42.43,0,0,0-13.7-28.2A41.7,41.7,0,0,0,527.1,0a40.86,40.86,0,0,0-30.2,12.7,42.88,42.88,0,0,0-12.7,30.6v83.8Z" transform="translate(0 0.01)" fill="#fde100"></path><path d="M541.3,138.2v84.4A14.51,14.51,0,0,1,527,237.1a14.19,14.19,0,0,1-14.4-13.3c0-.4-.1-.8-.1-1.2l.1-84.4H484.2v84.4a24.1,24.1,0,0,0,0,3.8,42.43,42.43,0,0,0,13.7,28.2,42.66,42.66,0,0,0,59.4-1.3A42.88,42.88,0,0,0,570,222.7V138.3H541.3Z" transform="translate(0 0.01)" fill="#fde100"></path><path d="M394.7,127.2h47c-5.2-4.3-10.4-8.7-15.6-13q-13.95-12.75-15.6-32.4c-.2-2.1-.3-4.3-.3-6.7l.2-31.8a14.36,14.36,0,0,1,24-10.7,14.56,14.56,0,0,1,4.6,9.5l.1,1.2V63.5h28.6V43.4a24.1,24.1,0,0,0,0-3.8A42,42,0,0,0,454,11.4a42.67,42.67,0,0,0-59.4,1.3,43,43,0,0,0-12.8,30.6l-.1,40.5c-.1,3.2,0,6.4.2,9.5C383.1,106.9,387.3,118.1,394.7,127.2Z" transform="translate(0 0.01)" fill="#fde100"></path><path d="M453.8,138.2H406.7c5.4,4.5,10.9,9.1,16.4,13.6,9.3,8.5,14.1,19.3,15.2,32.4.2,2.1.1,6.8.1,6.6l.1,31.8a13.91,13.91,0,0,1-4.4,10.3,14.44,14.44,0,0,1-19.9.4,14,14,0,0,1-4.5-9.5c0-.4-.1-.8-.1-1.2l.3-20.2H381.3v20.2a24.1,24.1,0,0,0,0,3.8,41.88,41.88,0,0,0,13.6,28.2,43.19,43.19,0,0,0,72.2-31.9l.1-40.5c.1-3.2,0-6.4-.2-9.5Q465.2,151.85,453.8,138.2Z" transform="translate(0 0.01)" fill="#fde100"></path><polygon points="308.2 127.21 336.9 127.21 336.9 28.91 362.8 28.91 362.9 0.01 279.6 0.11 279.5 29.01 308.2 29.01 308.2 127.21" fill="#fff"></polygon><polygon points="308.2 138.21 308.1 265.91 336.8 265.91 336.9 138.21 308.2 138.21" fill="#fff"></polygon><polygon points="259.1 127.21 259.1 118.51 213 118.51 213 28.91 258.9 29.01 259 0.11 184.5 0.01 184.4 127.21 259.1 127.21" fill="#fff"></polygon><polygon points="213.2 147.41 259 147.51 259 138.21 184.4 138.21 184.4 265.91 258.9 265.91 259.1 237.11 213.1 237.01 213.2 147.41" fill="#fff"></polygon><polygon points="0 182.11 0 82.21 50.4 132.61 0 182.11" fill="#fde100"></polygon><polygon points="820.8 182.71 820.8 82.81 770.4 132.81 820.8 182.71" fill="#fde100"></polygon></svg> 