<svg width="407" height="71" viewBox="0 0 407 71" fill="none" xmlns="http://www.w3.org/2000/svg">
<path d="M113.6 0H110.6V70.3H113.6V0Z" fill="#FFCC29"/>
<path d="M172.101 0H168.801V70.3H172.101V0Z" fill="#FFCC29"/>
<path d="M402.9 70.4H406.2V0H402.9V70.4Z" fill="#FFCC29"/>
<path d="M347.601 0H344.301V70.3H347.601V0Z" fill="#FFCC29"/>
<path d="M230.6 0H227.4V70.3H230.6V0Z" fill="#FFCC29"/>
<path d="M289.101 0H285.801V70.3H289.101V0Z" fill="#FFCC29"/>
<path d="M138.199 11.7998L123.699 58.5998H130.399L133.799 46.7998H148.799L152.199 58.5998H158.799L144.499 11.7998H138.199V11.7998ZM135.199 41.6998L141.099 21.2998H141.299L147.099 41.6998H135.199Z" fill="black"/>
<path d="M83.8996 39.7996V34.7996H98.3996V51.7996C97.0996 53.8996 95.2996 55.6996 93.1996 56.8996C90.3996 58.5996 87.1996 59.1996 83.9996 59.1996C79.5996 59.1996 75.1996 57.7996 72.0996 54.6996C69.0996 51.7996 67.5996 47.3996 67.5996 41.8996V28.1996C67.5996 22.7996 69.0996 18.5996 71.8996 15.6996C74.7996 12.5996 78.8996 11.0996 83.1996 11.0996C87.2996 11.0996 91.1996 11.9996 94.1996 14.7996C96.9996 17.3996 98.2996 21.0996 98.3996 24.8996V25.0996H92.0996C92.1996 22.6996 91.3996 20.1996 89.7996 18.3996C88.1996 16.6996 85.7996 16.0996 83.2996 16.0996C80.6996 16.0996 78.1996 17.1996 76.5996 19.2996C74.8996 21.3996 74.1996 24.2996 74.1996 28.2996V42.2996C74.1996 46.2996 75.0996 49.2996 76.8996 51.3996C78.6996 53.4996 81.2996 54.5996 84.0996 54.5996C85.8996 54.5996 87.7996 54.2996 89.2996 53.3996C90.4996 52.6996 91.2996 51.5996 91.8996 50.3996V39.7996H83.8996Z" fill="black"/>
<path d="M209.699 11.7998H218.299V58.5998H211.699V40.5998L212.299 22.5998H212.099L201.899 58.5998H197.499L187.299 22.5998H187.199L187.699 40.5998V58.5998H181.199V11.7998H189.599L199.699 48.7998L209.699 11.7998Z" fill="black"/>
<path d="M325.699 11.7998H332.199V58.5998H325.699L307.999 23.7998H307.699V58.5998H301.199V11.7998H307.699L325.399 46.5998L325.699 46.4998V11.7998Z" fill="black"/>
<path d="M247.1 11.7998H269.2V16.8998H261.4V53.3998H269.2V58.5998H247.1V53.2998H254.9V16.7998H247.1V11.7998Z" fill="black"/>
<path d="M3 70.4H52.2C53.9 70.4 55.2 69.1 55.2 67.4V3C55.2 1.3 53.9 0 52.2 0H3C1.3 0 0 1.3 0 3V67.3C0 69 1.4 70.4 3 70.4Z" fill="#FFCC29"/>
<path d="M42.3996 38.0998C41.1996 36.0998 39.1996 34.7998 36.8996 34.2998C38.7996 33.4998 40.3996 32.1998 41.3996 30.3998C42.3996 28.5998 42.8996 26.4998 42.8996 24.4998C42.8996 20.6998 41.6996 17.1998 38.7996 14.9998C35.8996 12.7998 32.4996 11.7998 28.4996 11.7998H13.5996V58.6998H30.3996C33.9996 58.6998 37.5996 57.4998 40.2996 55.0998C42.8996 52.8998 44.1996 49.3998 44.1996 44.8998C44.1996 42.1998 43.5996 40.0998 42.3996 38.0998ZM22.2996 19.0998H26.8996C28.8996 19.0998 30.2996 19.4998 31.4996 20.6998C32.6996 21.8998 33.0996 23.6998 32.9996 25.3998C32.9996 26.9998 32.6996 28.6998 31.4996 29.8998C30.3996 30.9998 29.0996 31.5998 27.2996 31.5998H22.1996V19.0998H22.2996ZM32.8996 49.7998C31.7996 50.9998 29.9996 51.2998 28.3996 51.2998H22.3996V37.8998H29.0996C30.7996 37.8998 32.3996 38.3998 33.2996 39.6998C34.2996 41.1998 34.4996 42.9998 34.4996 44.7998C34.3996 46.5998 34.0996 48.4998 32.8996 49.7998Z" fill="black"/>
<path d="M376.2 39.8V34.8H390.7V51.8C389.4 53.9 387.6 55.7 385.5 56.9C382.7 58.6 379.5 59.2 376.3 59.2C371.9 59.2 367.5 57.8 364.4 54.7C361.4 51.8 359.9 47.4 359.9 41.9V28.1C359.9 22.7 361.4 18.5 364.2 15.6C367.1 12.5 371.2 11 375.5 11C379.6 11 383.5 11.9 386.5 14.7C389.3 17.3 390.6 21 390.7 24.8V25H384.4C384.5 22.6 383.7 20.1 382.1 18.3C380.5 16.6 378.1 16 375.6 16C373 16 370.5 17.1 368.9 19.2C367.2 21.3 366.5 24.2 366.5 28.2V42.2C366.5 46.2 367.4 49.2 369.2 51.3C371 53.4 373.6 54.5 376.4 54.5C378.2 54.5 380.1 54.2 381.6 53.3C382.8 52.6 383.6 51.5 384.2 50.3V39.8H376.2Z" fill="black"/>
</svg>
