<svg xmlns="http://www.w3.org/2000/svg" xmlns:xlink="http://www.w3.org/1999/xlink" version="1.1" id="圖層_1" x="0px" y="0px" viewBox="0 0 520 180" style="enable-background:new 0 0 520 180;" xml:space="preserve">
<style type="text/css">
	.st0{fill:url(#SVGID_1_);}
	.st1{fill:url(#SVGID_00000083791164231612559020000007914206898761976248_);}
	.st2{fill:url(#SVGID_00000110439918474713525900000000763092064603330959_);}
	.st3{fill:url(#SVGID_00000013877615231566290200000002018612226247702159_);}
</style>
<g>
	<linearGradient id="SVGID_1_" gradientUnits="userSpaceOnUse" x1="-4.0211" y1="48.8624" x2="407.2034" y2="275.393">
		<stop offset="0" style="stop-color:#91F378"/>
		<stop offset="1" style="stop-color:#0AE2A9"/>
	</linearGradient>
	<path class="st0" d="M139.2,60.6L139.2,60.6c4,9.1,5.8,18.9,5.8,29.4v1.8c-0.3,9.9-2.2,19.1-5.8,27.7c-3.7,8.3-9,16.1-16,23.1   c-14.5,14.5-32,21.9-52.6,21.9s-38.1-7.3-52.6-21.9l-0.9-1.1l-1.2-1.2c-0.9-1.2-1.3-2.6-1.3-4.4c0-2,0.7-3.8,2.1-5.1   c1.5-1.5,3.2-2.1,5.1-2.1c1.3,0,2.5,0.3,3.4,0.8l2.8,2.9l0.5,0.4c11.6,11.5,25.6,17.3,42.1,17.3c16.6,0,30.7-5.9,42.4-17.7   c4.2-4.2,7.6-8.7,10.3-13.4c4.6-8.2,7.1-17.3,7.4-27.3v-1.8c0-16.6-5.9-30.8-17.7-42.6c-10.7-10.7-23.3-16.5-38-17.4l-4.5-0.1   c-12.1,0-22.9,3.2-32.6,9.4c-3.6,2.4-7,5.1-10.2,8.3l-2.9,3.2c-1.1,0.7-2.2,0.9-3.7,0.9c-2,0-3.8-0.8-5.3-2.2c-1.5-1.5-2.1-3-2.1-5   c0-1.6,0.4-2.9,1.2-4.1l1.8-2l0.9-0.9c6.2-6.1,12.9-10.8,20-14.4c9.9-4.9,20.7-7.4,32.6-7.4l4.5,0.1c18.7,0.9,34.7,8.2,48.1,21.6   C130.3,44.4,135.5,52.2,139.2,60.6L139.2,60.6z M76.5,72.9L76.5,72.9c7.9,0,14.8,2.9,20.4,8.7c1.6,1.6,3,3.4,4.2,5.3   c0.9,1.6,1.7,3.3,2.4,5c1.2,3.3,1.8,7,1.8,10.8c0,5.9-1.5,11.2-4.2,15.8l-0.3,0.1l-1.7,2.5l-2.2,2.5c-5.7,5.8-12.5,9-20.8,9.2   l-20.4-0.5l1.2,0.1c-2,0-3.7-0.8-5-2.2c-1.5-1.3-2.1-3-2.1-4.9c0-2,0.7-3.7,2.1-5.1l0.9-0.7c1.2-0.8,2.5-1.1,4.1-1.1l23.2-0.9   c1.8-0.8,3.6-2,5.1-3.7c3.2-3,4.6-6.7,4.6-11.2c0-4.2-1.3-7.8-4.1-10.8L85,91.3c-2.1-2.2-4.6-3.8-7.5-4.4c-7-0.4-14-0.4-21,0h-0.7   c-1.2-0.1-2.2-0.5-3.2-1.2l-1.1-0.9c-1.3-1.2-2-2.6-2-4.1V80V52.3c0-2,0.7-3.6,1.8-5c1.5-1.3,3.2-2,5.1-2c1.8,0,3.4,0.7,4.9,2   c1.5,1.5,2.2,3,2.2,5V76C67.6,73.9,71.9,72.9,76.5,72.9L76.5,72.9z M61.4,95.4L61.4,95.4c2,0,3.7,0.7,5.1,2.1s2.2,3.2,2.2,5.1   s-0.8,3.7-2.2,5.1c-1.3,1.5-3,2.2-5.1,2.2h-0.9c-1.6-0.3-3-0.9-4.4-2.2c-1.5-1.5-2.1-3-2.1-5.1c0-2,0.7-3.7,2.1-5.1   c1.2-1.2,2.6-1.8,4.2-2L61.4,95.4L61.4,95.4z"/>
	<g>

			<linearGradient id="SVGID_00000167369255564331719340000005871868600525955977_" gradientUnits="userSpaceOnUse" x1="22.1564" y1="-15.9893" x2="460.6035" y2="225.5374">
			<stop offset="0" style="stop-color:#91F378"/>
			<stop offset="1" style="stop-color:#0AE2A9"/>
		</linearGradient>
		<path style="fill:url(#SVGID_00000167369255564331719340000005871868600525955977_);" d="M275.5,113.8c0,11.2-3.6,19.8-10.7,25.6    c-6.6,5.2-15.7,7.8-27.3,7.8h-47c-12.2,0-18.4-5.3-18.4-16V50.1c0-4.8,1.8-8.6,5.3-11.4c3.1-2.4,7.2-3.6,12.2-3.6h45.6    c23.4,0,35.1,8.9,35.1,26.8c0,6.2-1.3,11.3-3.9,15.2c-2.6,3.9-6.7,7.4-12.3,10.4c6,0.6,11.1,3.6,15.2,9    C273.4,101.8,275.5,107.6,275.5,113.8z M249.6,66.7c0-8.3-4.6-12.5-13.9-12.5h-30.9c-7.8,0-11.7,3.7-11.7,11.1v14.8h42.8    c4.1,0,7.4-1.2,9.9-3.5C248.3,74.2,249.6,70.9,249.6,66.7z M254.8,113.1c0-9.3-5.8-14-17.3-14h-44.4v18.2    c0,7.2,3.8,10.8,11.3,10.8h33.1c5.1,0,9.2-1.2,12.2-3.6C253.1,121.8,254.8,118,254.8,113.1z"/>

			<linearGradient id="SVGID_00000178909797283271786440000014581129943674801561_" gradientUnits="userSpaceOnUse" x1="67.7322" y1="-58.2304" x2="483.8404" y2="170.9905">
			<stop offset="0" style="stop-color:#91F378"/>
			<stop offset="1" style="stop-color:#0AE2A9"/>
		</linearGradient>
		<path style="fill:url(#SVGID_00000178909797283271786440000014581129943674801561_);" d="M386.4,136.7c0,7-2.9,10.6-8.7,10.6    c-3.9,0-7.3-1.8-10.1-5.4L311.7,70v67.2c0,6.8-3.5,10.1-10.4,10.1c-6.2,0-9.3-3.4-9.3-10.3V45.2c0-6.8,3.1-10.1,9.3-10.1    c4.3,0,7.8,1.7,10.6,5.1l54.9,70.6V45.2c0-6.8,3.1-10.1,9.3-10.1c7,0,10.4,3.4,10.4,10.1V136.7z"/>

			<linearGradient id="SVGID_00000054987455013948275580000007225254282670626734_" gradientUnits="userSpaceOnUse" x1="94.0461" y1="-108.0725" x2="518.1107" y2="125.5313">
			<stop offset="0" style="stop-color:#91F378"/>
			<stop offset="1" style="stop-color:#0AE2A9"/>
		</linearGradient>
		<path style="fill:url(#SVGID_00000054987455013948275580000007225254282670626734_);" d="M506,135.2c0,8.6-3.5,13-10.5,13    c-6.6,0-9.9-4.4-9.8-13.1c-8,8.4-20,13.1-34,13.1c-15.8,0-27.2-5.9-36.2-16.9c-8.4-10.2-12.5-23.4-12.5-39.5    c0-17.2,4.5-30.9,13.4-41.2c9.4-11,22.6-16.5,39.5-16.5c17.9,0,32.8,6.7,42.2,16.7c5.2,5.3,7.9,10.2,7.9,14.7    c0,2.4-0.8,4.6-2.3,6.4c-1.5,1.7-3.4,2.6-5.8,2.6c-4.3,0-7.8-1.7-10.5-5.2c-7.9-10-19.6-16.8-32.5-16.8c-9.6,0-17.4,4.2-23.4,12.5    c-5.4,7.5-8.2,16.2-8.2,26.2c0,11.1,2.5,20.1,7.6,26.9c5.8,7.8,14,11.7,24.6,11.7c14.7,0,24.8-7.7,30.3-23h-19.7    c-5.8,0-8.7-3-8.7-9c0-6,2.9-9,8.7-9h27.1c8.5,0,12.8,3.9,12.8,11.8V135.2z"/>
	</g>
</g>
</svg>