<svg width="104" height="22" viewBox="0 0 104 22" fill="none" xmlns="http://www.w3.org/2000/svg">
<mask id="mask0_1996_32921" style="mask-type:alpha" maskUnits="userSpaceOnUse" x="0" y="0" width="22" height="22">
<path fill-rule="evenodd" clip-rule="evenodd" d="M0 0H21.1525V22H0V0Z" fill="white"/>
</mask>
<g mask="url(#mask0_1996_32921)">
<path fill-rule="evenodd" clip-rule="evenodd" d="M15.8115 11.0012L14.2305 11.0004V9.49842H15.8003C16.6819 9.49842 16.6174 11.0012 15.8115 11.0012ZM15.8645 13.601H14.2305V11.9169H15.8645C16.8293 11.9169 16.8293 13.601 15.8645 13.601ZM15.8645 14.4923L13.0474 14.4925V8.60741H15.8645C18.0469 8.60741 18.045 10.9148 16.9711 11.409C18.3054 12.0097 18.1902 14.4923 15.8645 14.4923ZM9.69503 4.64075C9.69503 4.79047 9.62709 4.93236 9.50972 5.02726L1.76277 11.3002V9.16603L9.69503 2.7432V4.64075ZM9.69504 9.0279C9.69504 9.17762 9.62711 9.31951 9.50973 9.41442L3.07037 14.6286C2.946 14.7293 2.76691 14.7293 2.64254 14.6286L1.85684 13.9925C1.69221 13.8591 1.69221 13.6103 1.85684 13.477L9.69504 7.13035V9.0279ZM9.69503 13.7014C9.69503 13.8511 9.6271 13.993 9.50972 14.0879L5.74243 17.1384L4.26228 15.9446L9.69503 11.5486V13.7014ZM21.1508 8.92143C21.1507 8.57208 20.9919 8.241 20.7183 8.01957L10.9947 0.150969C10.7459 -0.0503487 10.3879 -0.0503487 10.1393 0.151123L0.432182 8.01097C0.15857 8.23256 0 8.56363 0 8.91314V13.9426C0 14.4418 0.226663 14.9147 0.617492 15.2312L5.18821 18.9322C5.49913 19.184 5.94686 19.184 6.25778 18.9322L9.69503 16.1491V17.9729C9.69503 18.3224 9.5363 18.6535 9.26269 18.8749L7.22801 20.5225C6.61534 21.0186 6.97042 22 7.7628 22H13.3698C14.1622 22 14.5173 21.0186 13.9046 20.5225L11.8905 18.8917C11.6165 18.6699 11.458 18.3384 11.4581 17.9886L11.4597 16.1762L14.8752 18.9336C15.1861 19.1847 15.633 19.1843 15.9436 18.9328L20.535 15.2151C20.926 14.8986 21.1527 14.4253 21.1525 13.926L21.1508 8.92143Z" fill="#003DA4"/>
</g>
<path fill-rule="evenodd" clip-rule="evenodd" d="M98.1244 18.4684C96.9231 18.4684 95.9014 18.2623 95.0593 17.8494C94.2172 17.4368 93.5641 16.8403 93.1008 16.0598C92.6372 15.2797 92.3858 14.3477 92.3467 13.2642C92.3336 12.7102 92.3272 12.3917 92.3272 11.7532C92.3272 11.1145 92.3336 10.2336 92.3467 9.66584C92.3858 8.59567 92.6372 7.67999 93.1008 6.91864C93.5641 6.1579 94.2235 5.5713 95.079 5.15837C95.9339 4.74576 96.9492 4.53906 98.1244 4.53906C99.0774 4.53906 99.9131 4.66514 100.632 4.91636C101.349 5.16805 101.947 5.49068 102.424 5.88379C102.9 6.27722 103.259 6.69981 103.501 7.15113C103.742 7.60275 103.869 8.02166 103.883 8.40848C103.895 8.52457 103.863 8.62132 103.785 8.69871C103.706 8.77611 103.601 8.8148 103.471 8.8148H101.454C101.323 8.8148 101.225 8.78901 101.16 8.73741C101.095 8.68581 101.036 8.60842 100.984 8.50507C100.879 8.23419 100.716 7.96669 100.494 7.70226C100.272 7.43813 99.9717 7.21562 99.5935 7.03504C99.2146 6.85445 98.7249 6.764 98.1244 6.764C97.2364 6.764 96.5281 6.99634 95.9995 7.46055C95.4707 7.92477 95.1865 8.69211 95.1473 9.76273C95.0985 11.1626 95.1176 12.2977 95.1473 13.1678C95.1865 14.2641 95.477 15.0509 96.019 15.5277C96.5606 16.0051 97.2756 16.2436 98.1636 16.2436C98.7514 16.2436 99.2765 16.1407 99.7401 15.9342C100.204 15.7281 100.569 15.4055 100.837 14.9667C101.104 14.5286 101.239 13.9675 101.239 13.2837V13.155H98.849C98.7186 13.155 98.6074 13.11 98.516 13.0194C98.4246 12.9296 98.379 12.8135 98.379 12.6713V11.4533C98.379 11.3115 98.4246 11.1955 98.516 11.105C98.6074 11.0147 98.7186 10.9694 98.849 10.9694H103.53C103.673 10.9694 103.788 11.0147 103.873 11.105C103.958 11.1955 104 11.3115 104 11.646V13.3992C104 14.2899 103.762 15.2249 103.285 16.0114C102.808 16.7984 102.13 17.4044 101.248 17.8299C100.367 18.2554 99.3256 18.4684 98.1244 18.4684ZM81.7044 18.4684C80.5032 18.4684 79.4815 18.2623 78.6393 17.8494C77.7972 17.4368 77.1441 16.8403 76.6808 16.0598C76.2173 15.2797 75.9659 14.3477 75.9267 13.2642C75.9136 12.7102 75.9073 12.1133 75.9073 11.4749C75.9073 10.8363 75.9136 10.2336 75.9267 9.66584C75.9659 8.59567 76.2173 7.67999 76.6808 6.91864C77.1441 6.1579 77.8036 5.5713 78.6591 5.15837C79.514 4.74576 80.5291 4.53906 81.7044 4.53906C82.6574 4.53906 83.4931 4.66514 84.2114 4.91636C84.9295 5.16805 85.5266 5.49068 86.0035 5.88379C86.4799 6.27722 86.8387 6.69981 87.0807 7.15113C87.322 7.60275 87.4493 8.02166 87.4627 8.40848C87.4754 8.52457 87.443 8.62132 87.3646 8.69871C87.2862 8.77611 87.1815 8.8148 87.0512 8.8148H85.0339C84.9033 8.8148 84.8052 8.78901 84.7403 8.73741C84.6748 8.68581 84.6159 8.60842 84.564 8.50507C84.4592 8.23419 84.2961 7.96669 84.0743 7.70226C83.852 7.43813 83.5518 7.21562 83.1735 7.03504C82.7947 6.85445 82.305 6.764 81.7044 6.764C80.8164 6.764 80.1081 6.99634 79.5796 7.46055C79.0507 7.92477 78.7665 8.69211 78.7273 9.76273C78.6882 10.8846 78.6882 12.0198 78.7273 13.1678C78.7665 14.2641 79.0571 15.0509 79.599 15.5277C80.1406 16.0051 80.8556 16.2436 81.7436 16.2436C82.3314 16.2436 82.8565 16.1407 83.3201 15.9342C83.7837 15.7281 84.1492 15.4055 84.4171 14.9667C84.6844 14.5286 84.8186 14.1602 84.8186 13.4766V13.155H82.429C82.2986 13.155 82.1874 13.11 82.096 13.0194C82.0046 12.9296 81.9591 12.8135 81.9591 12.6713V11.4533C81.9591 11.3115 82.0046 11.1955 82.096 11.105C82.1874 11.0147 82.2986 10.9694 82.429 10.9694H87.1101C87.2534 10.9694 87.3676 11.0147 87.4526 11.105C87.5376 11.1955 87.5801 11.3115 87.5801 11.4533V13.3992C87.5801 14.4826 87.3417 15.2249 86.8651 16.0114C86.3885 16.7984 85.7097 17.4044 84.8284 17.8299C83.9471 18.2554 82.9057 18.4684 81.7044 18.4684ZM63.3196 13.1678H67.6496L65.4761 7.34447L63.3196 13.1678ZM59.385 18.2749C59.2802 18.2749 59.1859 18.2362 59.1008 18.159C59.0158 18.0816 58.9737 17.9847 58.9737 17.8686C58.9737 17.8173 58.9867 17.7593 59.0128 17.6948L63.7333 5.2163C63.7723 5.08762 63.8474 4.9746 63.9582 4.8777C64.0689 4.78111 64.2225 4.73289 64.4187 4.73289H66.5532C66.7491 4.73289 66.8991 4.78111 67.0037 4.8777C67.1082 4.9746 67.1865 5.08762 67.2388 5.2163L71.959 17.6948C71.9718 17.7593 71.9785 17.8173 71.9785 17.8686C71.9785 17.9847 71.9393 18.0816 71.8609 18.159C71.7826 18.2362 71.6912 18.2749 71.5869 18.2749H69.8827C69.7 18.2749 69.566 18.2333 69.4814 18.1493C69.3964 18.0653 69.3408 17.9847 69.3149 17.9073L68.3348 15.3926H62.634L61.6568 17.9073C61.6306 17.9847 61.5752 18.0653 61.4904 18.1493C61.4054 18.2333 61.2715 18.2749 61.0887 18.2749H59.385ZM46.9782 10.9814H49.7397C50.536 10.9814 51.1305 10.8041 51.5221 10.4493C51.9137 10.0949 52.1096 9.59492 52.1096 8.94996C52.1096 8.30516 51.9168 7.79903 51.5319 7.4314C51.1465 7.06362 50.549 6.87981 49.7397 6.87981H46.9782V10.9814ZM44.7259 18.2746C44.5953 18.2746 44.4842 18.2297 44.3931 18.1391C44.3015 18.0491 44.256 17.9393 44.256 17.8103V5.21592C44.256 5.07434 44.3015 4.95825 44.3931 4.8678C44.4842 4.77781 44.5953 4.73251 44.7259 4.73251H49.7986C51.3781 4.73251 52.6254 5.09353 53.5395 5.81573C54.4533 6.53808 54.9102 7.5892 54.9102 8.96925C54.9102 9.92378 54.6719 10.7169 54.1955 11.349C53.7186 11.9807 53.0823 12.439 52.286 12.7224L55.1454 17.6557C55.1846 17.7331 55.204 17.8041 55.204 17.8682C55.204 17.9843 55.1616 18.0812 55.0768 18.1586C54.9918 18.236 54.8971 18.2746 54.7927 18.2746H53.0106C52.7883 18.2746 52.619 18.2165 52.5012 18.1004C52.3836 17.9843 52.2924 17.8682 52.2271 17.7523L49.7005 13.1674H46.9783V17.8103C46.9783 17.9393 46.9358 18.0491 46.8511 18.1391C46.766 18.2297 46.6519 18.2746 46.5083 18.2746H44.7259ZM30.9256 16.2241H34.1964C34.9016 16.2241 35.4367 16.034 35.8025 15.6535C36.1678 15.2731 36.3508 14.8117 36.3508 14.2701C36.3508 13.7027 36.1647 13.2321 35.7927 12.8579C35.4205 12.484 34.8884 12.2968 34.1964 12.2968H30.9256V16.2241ZM30.9256 10.2851H34.0005C34.6925 10.2851 35.2114 10.1205 35.5576 9.79141C35.9034 9.46279 36.0767 9.03405 36.0767 8.50503C36.0767 7.96343 35.9034 7.54113 35.5576 7.23801C35.2114 6.93518 34.6925 6.78347 34.0005 6.78347H30.9256V10.2851ZM28.6733 18.2746C28.5427 18.2746 28.4316 18.2297 28.3405 18.1391C28.2489 18.0491 28.2034 17.9393 28.2034 17.8103V5.21592C28.2034 5.07434 28.2489 4.95825 28.3405 4.8678C28.4316 4.77781 28.5427 4.73251 28.6733 4.73251H34.3531C35.4107 4.73251 36.2726 4.89053 36.9384 5.20625C37.6043 5.52274 38.0969 5.95777 38.417 6.51228C38.737 7.06679 38.8969 7.71159 38.8969 8.44684C38.8969 8.93716 38.8088 9.36559 38.6325 9.73337C38.4562 10.101 38.2409 10.4009 37.9861 10.6329C37.7316 10.8651 37.4801 11.046 37.2322 11.1747C37.7414 11.4067 38.1918 11.7937 38.5837 12.3355C38.9753 12.8771 39.171 13.5222 39.171 14.27C39.171 15.0438 38.9949 15.7341 38.6423 16.3402C38.2897 16.9464 37.7673 17.4203 37.0755 17.7618C36.3833 18.1036 35.5282 18.2746 34.5098 18.2746H28.6733Z" fill="#272425"/>
</svg>
