<?xml version="1.0" encoding="utf-8"?>
<!-- Generator: Adobe Illustrator 22.0.1, SVG Export Plug-In . SVG Version: 6.00 Build 0)  -->
<svg version="1.1" id="Camada_1" xmlns="http://www.w3.org/2000/svg" xmlns:xlink="http://www.w3.org/1999/xlink" x="0px" y="0px"
	 viewBox="0 0 150 44" style="enable-background:new 0 0 150 44;" xml:space="preserve">
<style type="text/css">
	.st0{fill:#FFFFFF;}
	.st1{fill:#069BE8;}
</style>
<g id="Camada_1_00000153676491534327629820000016681880041455088012_">
	<path class="st0" d="M56.3,9.7c3.1,0,5.5,0.7,7.1,2.2c1.7,1.5,2.5,3.7,2.5,6.6v11.4h-5.4v-2.5c-1.1,1.9-3.1,2.8-6.1,2.8
		c-1.5,0-2.9-0.3-4-0.8s-2-1.2-2.6-2.1s-0.9-2-0.9-3.1c0-1.9,0.7-3.3,2.1-4.4c1.4-1.1,3.6-1.6,6.5-1.6h4.6c0-1.3-0.4-2.2-1.2-2.9
		c-0.8-0.7-1.9-1-3.5-1c-1.1,0-2.1,0.2-3.2,0.5c-1,0.3-1.9,0.8-2.6,1.3l-2.1-4c1.1-0.8,2.4-1.4,3.9-1.8C53.1,9.9,54.7,9.7,56.3,9.7z
		 M55.9,26.3c1,0,1.9-0.2,2.6-0.7c0.8-0.5,1.3-1.2,1.6-2v-2h-4c-2.4,0-3.6,0.8-3.6,2.3c0,0.7,0.3,1.3,0.9,1.8
		C54.1,26.1,54.9,26.3,55.9,26.3z"/>
	<path class="st0" d="M71.2,2.4H77v27.5h-5.8V2.4z"/>
	<path class="st0" d="M101.9,20c0,0.1,0,0.6-0.1,1.6H86.7c0.3,1.2,0.9,2.2,1.9,2.9c1,0.7,2.3,1.1,3.8,1.1c1,0,2-0.1,2.8-0.4
		s1.6-0.8,2.3-1.5l3.1,3.3c-1.9,2.1-4.6,3.2-8.2,3.2c-2.3,0-4.2-0.4-6-1.3c-1.7-0.9-3.1-2.1-4-3.7S81,21.9,81,19.9s0.5-3.7,1.4-5.3
		s2.2-2.8,3.8-3.7c1.6-0.9,3.5-1.3,5.5-1.3s3.7,0.4,5.3,1.3c1.6,0.8,2.8,2,3.7,3.6C101.5,16.1,101.9,18,101.9,20z M91.6,14.1
		c-1.3,0-2.4,0.4-3.3,1.1c-0.9,0.7-1.4,1.7-1.6,3h9.8c-0.2-1.3-0.7-2.3-1.6-3C93.9,14.4,92.9,14.1,91.6,14.1z"/>
	<path class="st0" d="M118.7,29c-0.6,0.4-1.3,0.7-2.1,1c-0.8,0.2-1.7,0.3-2.6,0.3c-2.4,0-4.2-0.6-5.5-1.8c-1.3-1.2-1.9-3-1.9-5.3V15
		h-3.1v-4.4h3.1v-5h5.8v4.9h5v4.4h-5V23c0,0.8,0.2,1.5,0.6,2c0.4,0.4,1.1,0.7,1.9,0.7c0.9,0,1.7-0.2,2.3-0.7L118.7,29z"/>
	<path class="st0" d="M130,9.7c3.1,0,5.5,0.7,7.1,2.2c1.7,1.5,2.5,3.7,2.5,6.6v11.4h-5.4v-2.5c-1.1,1.9-3.1,2.8-6.1,2.8
		c-1.5,0-2.9-0.3-4-0.8s-2-1.2-2.6-2.1s-0.9-2-0.9-3.1c0-1.9,0.7-3.3,2.1-4.4c1.4-1.1,3.6-1.6,6.5-1.6h4.6c0-1.3-0.4-2.2-1.2-2.9
		s-1.9-1-3.5-1c-1.1,0-2.1,0.2-3.2,0.5c-1,0.3-1.9,0.8-2.6,1.3l-2.1-4c1.1-0.8,2.4-1.4,3.9-1.8C126.8,9.9,128.4,9.7,130,9.7z
		 M129.5,26.3c1,0,1.9-0.2,2.6-0.7c0.8-0.5,1.3-1.2,1.6-2v-2h-4c-2.4,0-3.6,0.8-3.6,2.3c0,0.7,0.3,1.3,0.9,1.8
		C127.7,26.1,128.5,26.3,129.5,26.3z"/>
	<path class="st1" d="M32.3,0.8c9.6-1.6,17,7.5,13,16.3l-7.9,18.2c-3.7,8.2-14.6,9.1-20.2,1.9l-10.8-14C0.8,15.9,4.8,5.4,13.7,3.9
		L32.3,0.8z"/>
	<path class="st0" d="M49.4,36.3v6.2h-0.6v-5l-2.5,4.2H46l-2.5-4.2v5h-0.6v-6.2h0.5l2.7,4.6l2.7-4.6H49.4z"/>
	<path class="st0" d="M53,37.8c0.6,0,1.1,0.1,1.4,0.5c0.3,0.3,0.5,0.8,0.5,1.4v2.9h-0.6v-0.7c-0.1,0.2-0.4,0.4-0.6,0.6
		c-0.3,0.1-0.6,0.2-1,0.2c-0.5,0-0.9-0.1-1.2-0.4c-0.3-0.2-0.5-0.6-0.5-1s0.1-0.7,0.4-1c0.3-0.2,0.8-0.4,1.4-0.4h1.5v-0.3
		c0-0.4-0.1-0.7-0.3-0.9s-0.6-0.3-1-0.3c-0.3,0-0.6,0.1-0.9,0.1c-0.3,0.1-0.5,0.2-0.7,0.4l-0.3-0.5c0.2-0.2,0.5-0.4,0.9-0.5
		C52.3,37.9,52.6,37.8,53,37.8z M52.8,42.1c0.4,0,0.7-0.1,0.9-0.2c0.3-0.2,0.4-0.4,0.6-0.7v-0.8h-1.5c-0.8,0-1.2,0.3-1.2,0.8
		c0,0.3,0.1,0.5,0.3,0.7C52.1,42,52.4,42.1,52.8,42.1z"/>
	<path class="st0" d="M58.4,40.2l-1.1,1v1.3h-0.6V36h0.6v4.5l2.8-2.6h0.8l-2,1.9l2.2,2.8h-0.8L58.4,40.2z"/>
	<path class="st0" d="M61.9,37.9h0.6v4.7h-0.6V37.9z M62.2,36.9c-0.1,0-0.2,0-0.3-0.1c-0.1-0.1-0.1-0.2-0.1-0.3s0-0.2,0.1-0.3
		s0.2-0.1,0.3-0.1c0.1,0,0.2,0,0.3,0.1c0.1,0.1,0.1,0.2,0.1,0.3s0,0.2-0.1,0.3C62.5,36.8,62.4,36.9,62.2,36.9z"/>
	<path class="st0" d="M66.7,37.8c0.6,0,1.1,0.2,1.4,0.5c0.4,0.3,0.5,0.8,0.5,1.5v2.7H68v-2.7c0-0.5-0.1-0.9-0.4-1.1
		c-0.2-0.3-0.6-0.4-1-0.4c-0.5,0-0.9,0.1-1.2,0.4C65.1,39,65,39.4,65,39.9v2.5h-0.6v-4.7H65v0.9c0.2-0.3,0.4-0.5,0.7-0.7
		C65.9,37.9,66.3,37.8,66.7,37.8z"/>
	<path class="st0" d="M74.7,37.9V42c0,0.8-0.2,1.4-0.6,1.8c-0.4,0.4-1,0.6-1.8,0.6c-0.4,0-0.9-0.1-1.2-0.2c-0.4-0.1-0.7-0.3-0.9-0.5
		l0.3-0.5c0.2,0.2,0.5,0.4,0.8,0.5s0.7,0.2,1,0.2c0.6,0,1-0.1,1.3-0.4c0.3-0.3,0.4-0.7,0.4-1.3v-0.6c-0.2,0.3-0.5,0.5-0.8,0.7
		c-0.3,0.1-0.7,0.2-1.1,0.2s-0.8-0.1-1.2-0.3c-0.4-0.2-0.6-0.5-0.9-0.8c-0.2-0.4-0.3-0.7-0.3-1.2s0.1-0.8,0.3-1.2
		c0.2-0.3,0.5-0.6,0.9-0.8s0.8-0.3,1.2-0.3c0.4,0,0.8,0.1,1.1,0.2s0.6,0.4,0.8,0.7v-0.9H74.7L74.7,37.9z M72.3,41.8
		c0.3,0,0.7-0.1,0.9-0.2s0.5-0.4,0.6-0.6c0.1-0.3,0.2-0.6,0.2-0.9s-0.1-0.6-0.2-0.9c-0.1-0.3-0.4-0.5-0.6-0.6
		c-0.3-0.1-0.6-0.2-0.9-0.2s-0.7,0.1-0.9,0.2c-0.3,0.1-0.5,0.3-0.6,0.6s-0.2,0.6-0.2,0.9c0,0.3,0.1,0.6,0.2,0.9
		c0.1,0.3,0.4,0.5,0.6,0.6C71.7,41.8,72,41.8,72.3,41.8z"/>
	<path class="st0" d="M82.9,39.4c0.4,0.1,0.7,0.3,0.9,0.5c0.2,0.3,0.3,0.6,0.3,1c0,0.5-0.2,0.9-0.6,1.2s-1,0.4-1.7,0.4h-2.9v-6.2
		h2.8c0.7,0,1.2,0.1,1.6,0.4c0.4,0.3,0.6,0.7,0.6,1.2c0,0.3-0.1,0.6-0.3,0.9C83.5,39.1,83.2,39.2,82.9,39.4z M79.7,36.9v2.3h2
		c0.5,0,0.9-0.1,1.2-0.3c0.3-0.2,0.4-0.5,0.4-0.8s-0.1-0.7-0.4-0.8c-0.3-0.2-0.7-0.3-1.2-0.3L79.7,36.9L79.7,36.9z M81.8,42
		c0.6,0,1-0.1,1.3-0.3s0.4-0.5,0.4-0.9c0-0.8-0.6-1.2-1.7-1.2h-2.1V42H81.8L81.8,42z"/>
	<path class="st0" d="M89.7,40.4h-3.9c0,0.5,0.2,0.9,0.6,1.2c0.3,0.3,0.8,0.4,1.3,0.4c0.3,0,0.6-0.1,0.8-0.1
		c0.2-0.1,0.5-0.3,0.6-0.5l0.4,0.4c-0.2,0.2-0.5,0.4-0.8,0.6c-0.3,0.1-0.7,0.2-1,0.2c-0.5,0-0.9-0.1-1.3-0.3s-0.7-0.5-0.9-0.9
		c-0.2-0.4-0.3-0.8-0.3-1.2s0.1-0.9,0.3-1.2c0.2-0.4,0.5-0.7,0.8-0.8c0.4-0.2,0.7-0.3,1.2-0.3s0.8,0.1,1.2,0.3
		c0.3,0.2,0.6,0.5,0.8,0.8c0.2,0.4,0.3,0.8,0.3,1.2L89.7,40.4z M87.4,38.4c-0.4,0-0.8,0.1-1.1,0.4c-0.3,0.3-0.5,0.7-0.5,1.1h3.3
		c0-0.5-0.2-0.8-0.5-1.1C88.3,38.5,87.9,38.4,87.4,38.4z"/>
	<path class="st0" d="M93.5,42.3c-0.1,0.1-0.3,0.2-0.4,0.2c-0.2,0.1-0.4,0.1-0.5,0.1c-0.4,0-0.8-0.1-1-0.4c-0.2-0.2-0.4-0.6-0.4-1
		v-2.8h-0.8v-0.5h0.8v-1h0.5v1h1.4v0.5h-1.4v2.8c0,0.3,0.1,0.5,0.2,0.6s0.3,0.2,0.6,0.2c0.1,0,0.3,0,0.4-0.1c0.1,0,0.2-0.1,0.3-0.2
		L93.5,42.3z"/>
	<path class="st0" d="M97,42.3c-0.1,0.1-0.3,0.2-0.4,0.2c-0.2,0.1-0.4,0.1-0.5,0.1c-0.4,0-0.8-0.1-1-0.4c-0.2-0.2-0.4-0.6-0.4-1
		v-2.8h-0.8v-0.5h0.8v-1h0.6v1h1.4v0.5h-1.4v2.8c0,0.3,0.1,0.5,0.2,0.6s0.3,0.2,0.6,0.2c0.1,0,0.3,0,0.4-0.1c0.1,0,0.2-0.1,0.3-0.2
		L97,42.3z"/>
	<path class="st0" d="M102.1,40.4h-3.9c0,0.5,0.2,0.9,0.6,1.2c0.3,0.3,0.8,0.4,1.3,0.4c0.3,0,0.6-0.1,0.8-0.1
		c0.2-0.1,0.5-0.3,0.6-0.5l0.4,0.4c-0.2,0.2-0.5,0.4-0.8,0.6s-0.7,0.2-1,0.2c-0.5,0-0.9-0.1-1.3-0.3s-0.7-0.5-0.9-0.9
		c-0.2-0.4-0.3-0.8-0.3-1.2s0.1-0.9,0.3-1.2c0.2-0.4,0.5-0.7,0.8-0.8c0.4-0.2,0.7-0.3,1.2-0.3s0.8,0.1,1.2,0.3
		c0.3,0.2,0.6,0.5,0.8,0.8c0.2,0.4,0.3,0.8,0.3,1.2L102.1,40.4z M99.8,38.4c-0.4,0-0.8,0.1-1.1,0.4s-0.5,0.7-0.5,1.1h3.3
		c0-0.5-0.2-0.8-0.5-1.1C100.6,38.5,100.2,38.4,99.8,38.4z"/>
	<path class="st0" d="M104,38.8c0.1-0.3,0.4-0.6,0.7-0.7s0.7-0.2,1.1-0.2v0.6h-0.1c-0.5,0-0.9,0.1-1.2,0.4c-0.3,0.3-0.4,0.7-0.4,1.3
		v2.4h-0.6v-4.7h0.6L104,38.8L104,38.8z"/>
	<path class="st0" d="M113.8,39.5h0.6v2.4c-0.3,0.3-0.6,0.4-1,0.6c-0.4,0.1-0.8,0.2-1.3,0.2c-0.6,0-1.2-0.1-1.7-0.4
		c-0.5-0.3-0.9-0.7-1.2-1.1c-0.3-0.5-0.4-1-0.4-1.6s0.1-1.1,0.4-1.6s0.7-0.9,1.2-1.1c0.5-0.3,1.1-0.4,1.7-0.4c0.5,0,0.9,0.1,1.3,0.2
		c0.4,0.1,0.7,0.4,1,0.7l-0.4,0.4c-0.5-0.5-1.1-0.7-1.9-0.7c-0.5,0-1,0.1-1.4,0.3s-0.7,0.5-1,0.9c-0.2,0.4-0.4,0.8-0.4,1.3
		s0.1,0.9,0.4,1.3c0.2,0.4,0.6,0.7,1,0.9s0.9,0.3,1.4,0.3c0.6,0,1.2-0.2,1.6-0.5v-2.1H113.8z"/>
	<path class="st0" d="M117.9,37.8c0.6,0,1.1,0.1,1.4,0.5c0.3,0.3,0.5,0.8,0.5,1.4v2.9h-0.6v-0.7c-0.1,0.2-0.4,0.4-0.6,0.6
		c-0.3,0.1-0.6,0.2-1,0.2c-0.5,0-0.9-0.1-1.2-0.4c-0.3-0.2-0.5-0.6-0.5-1s0.1-0.7,0.4-1c0.3-0.2,0.8-0.4,1.4-0.4h1.5v-0.3
		c0-0.4-0.1-0.7-0.3-0.9c-0.2-0.2-0.6-0.3-1-0.3c-0.3,0-0.6,0.1-0.9,0.1s-0.5,0.2-0.7,0.4l-0.3-0.5c0.2-0.2,0.5-0.4,0.9-0.5
		C117.1,37.9,117.5,37.8,117.9,37.8z M117.6,42.1c0.4,0,0.7-0.1,0.9-0.2c0.3-0.2,0.4-0.4,0.6-0.7v-0.8h-1.5c-0.8,0-1.2,0.3-1.2,0.8
		c0,0.3,0.1,0.5,0.3,0.7C117,42,117.3,42.1,117.6,42.1z"/>
	<path class="st0" d="M127.3,37.8c0.6,0,1.1,0.2,1.4,0.5c0.3,0.3,0.5,0.8,0.5,1.5v2.7h-0.6v-2.7c0-0.5-0.1-0.9-0.4-1.1
		c-0.2-0.3-0.6-0.4-1-0.4c-0.5,0-0.9,0.1-1.2,0.4c-0.3,0.3-0.4,0.7-0.4,1.2v2.5H125v-2.7c0-0.5-0.1-0.9-0.4-1.1
		c-0.2-0.3-0.6-0.4-1-0.4c-0.5,0-0.9,0.1-1.2,0.4s-0.4,0.7-0.4,1.2v2.5h-0.6v-4.7h0.6v0.9c0.2-0.3,0.4-0.5,0.7-0.7
		c0.3-0.1,0.6-0.2,1-0.2s0.7,0.1,1,0.2c0.3,0.2,0.5,0.4,0.7,0.7c0.2-0.3,0.4-0.5,0.7-0.7C126.6,37.9,126.9,37.8,127.3,37.8z"/>
	<path class="st0" d="M135.1,40.4h-3.9c0,0.5,0.2,0.9,0.6,1.2c0.3,0.3,0.8,0.4,1.3,0.4c0.3,0,0.6-0.1,0.8-0.1
		c0.2-0.1,0.5-0.3,0.6-0.5l0.4,0.4c-0.2,0.2-0.5,0.4-0.8,0.6s-0.7,0.2-1,0.2c-0.5,0-0.9-0.1-1.3-0.3c-0.4-0.2-0.7-0.5-0.9-0.9
		s-0.3-0.8-0.3-1.2s0.1-0.9,0.3-1.2s0.5-0.7,0.8-0.8c0.4-0.2,0.7-0.3,1.2-0.3c0.4,0,0.8,0.1,1.2,0.3c0.3,0.2,0.6,0.5,0.8,0.8
		c0.2,0.4,0.3,0.8,0.3,1.2L135.1,40.4z M132.8,38.4c-0.4,0-0.8,0.1-1.1,0.4s-0.5,0.7-0.5,1.1h3.3c0-0.5-0.2-0.8-0.5-1.1
		C133.6,38.5,133.3,38.4,132.8,38.4z"/>
	<path class="st0" d="M137.6,42.6c-0.4,0-0.7-0.1-1.1-0.2c-0.3-0.1-0.6-0.3-0.8-0.4l0.3-0.5c0.2,0.1,0.4,0.3,0.7,0.4
		s0.6,0.1,0.9,0.1c0.4,0,0.7-0.1,0.9-0.2c0.2-0.1,0.3-0.3,0.3-0.6c0-0.2-0.1-0.3-0.2-0.4c-0.1-0.1-0.3-0.2-0.4-0.2
		c-0.2-0.1-0.4-0.1-0.7-0.1c-0.4-0.1-0.7-0.1-0.9-0.2c-0.2-0.1-0.4-0.2-0.6-0.4c-0.2-0.2-0.2-0.4-0.2-0.7c0-0.4,0.2-0.7,0.5-1
		s0.8-0.4,1.4-0.4c0.3,0,0.6,0,0.9,0.1c0.3,0.1,0.6,0.2,0.7,0.3l-0.3,0.5c-0.4-0.3-0.9-0.4-1.4-0.4c-0.4,0-0.7,0.1-0.9,0.2
		c-0.2,0.1-0.3,0.3-0.3,0.6c0,0.2,0.1,0.3,0.2,0.4c0.1,0.1,0.3,0.2,0.4,0.2c0.2,0.1,0.4,0.1,0.7,0.1c0.4,0.1,0.7,0.1,0.9,0.2
		c0.2,0.1,0.4,0.2,0.6,0.4c0.2,0.2,0.2,0.4,0.2,0.7c0,0.4-0.2,0.7-0.5,1C138.7,42.5,138.2,42.6,137.6,42.6z"/>
	<path class="st0" d="M27.6,30.2c-2.1,0-3.9-0.4-5.6-1.3s-3-2.2-3.9-3.7c-0.9-1.6-1.4-3.4-1.4-5.4s0.5-3.8,1.4-5.4
		c1-1.6,2.3-2.8,3.9-3.7c1.7-0.9,3.6-1.4,5.6-1.4c1.7,0,3.3,0.3,4.7,0.9c1.4,0.6,2.6,1.5,3.6,2.7l-3,2.8c-1.4-1.6-3.1-2.4-5.1-2.4
		c-1.2,0-2.4,0.3-3.4,0.8s-1.7,1.3-2.3,2.3c-0.5,1-0.8,2.1-0.8,3.4s0.4,2.2,0.9,3.2c0.6,1,1.3,1.8,2.3,2.3s2.1,0.8,3.4,0.8
		c2,0,3.7-0.8,5.1-2.4l3,2.8c-1,1.2-2.2,2.1-3.6,2.7C30.9,29.9,29.3,30.2,27.6,30.2z"/>
</g>
</svg>
