<svg width="86" height="56" viewBox="0 0 86 56" fill="none" xmlns="http://www.w3.org/2000/svg">
<path d="M50.7987 0H37.1211L39.5028 28.2557H43.9448H48.3867L50.7987 0Z" fill="white"/>
<path d="M68.205 11C58.985 11 53.08 13.4052 52.0959 20.2025H63.4914C63.854 18.477 65.4079 17.9019 68.205 17.9019C71.8308 17.9019 72.7114 19.2091 72.7114 21.7711V22.4509C54.4786 21.562 50.5938 25.4312 50.5938 31.9148C50.5938 37.6664 54.7894 40.3853 62.6108 40.3853C67.5834 40.3853 70.8466 38.7121 72.7114 36.8298V39.601H85.4536V21.7711C85.4536 12.5686 77.3213 11 68.205 11ZM72.7114 31.9671C71.3128 33.2743 69.1373 34.2154 66.392 34.2154C64.7345 34.2154 62.818 33.8494 62.818 31.7057C62.818 28.8299 66.3402 28.6207 72.7114 28.9345V31.9671Z" fill="white"/>
<path d="M35.9994 28.2547C36.7245 15.2875 26.624 11 18.2846 11C9.32358 11 0 14.9215 0 25.6927C0 36.4638 9.42717 40.3853 18.5436 40.3853C26.2614 40.3853 33.8239 37.8232 35.585 30.1893H23.9305C22.8946 31.7057 21.1852 32.6991 18.5436 32.6991C14.7623 32.6991 12.794 30.8691 12.1207 28.2547H35.9994ZM18.2846 18.6862C21.5478 18.6862 23.2571 20.2548 23.9823 22.8169H12.1725C12.8976 20.4117 14.6587 18.6862 18.2846 18.6862Z" fill="white"/>
<path d="M13.8955 50.255H7.92135V52.5352H10.697C10.4326 53.2286 9.75854 53.8686 8.31787 53.8686C6.52033 53.8686 5.344 52.9219 5.344 51.135C5.344 49.3615 6.25599 48.4148 8.05352 48.4148C9.38846 48.4148 10.0625 48.8415 10.4723 49.5882H13.6973C13.1025 47.2413 10.7498 46.2812 8.06674 46.2812C5.09287 46.2812 2.17188 47.5747 2.17188 51.135C2.17188 54.7087 5.05322 56.0021 8.30465 56.0021C11.8865 56.0021 14.2524 54.3487 13.8955 50.255ZM28.4168 55.8021H31.6815L27.3991 46.4679H23.3629L19.0938 55.8021H22.3584L22.94 54.362H27.8221L28.4168 55.8021ZM23.8123 52.2018L25.1408 48.8282H25.6609L26.9629 52.2018H23.8123ZM67.8678 53.6553H61.7483V52.0951H67.3656V49.9349H61.7483V48.6281H67.7357V46.4679H58.6158V55.8021H67.8678V53.6553ZM80.8372 49.9749C79.2512 49.8149 78.1013 49.7616 78.1013 49.1215C78.1013 48.5881 78.7621 48.4015 80.031 48.4015C81.2337 48.4015 81.9739 48.6815 81.9739 49.3215H85.1592C85.1592 47.7081 83.9961 46.2812 80.0706 46.2812C76.4755 46.2812 74.982 47.3747 74.982 49.2682C74.982 51.135 75.9865 51.7351 78.8282 52.1751C81.4849 52.5885 82.3836 52.5485 82.3836 53.1752C82.3836 53.6953 81.6435 53.882 80.4011 53.882C79.1058 53.882 78.0484 53.6419 78.0484 52.7752H74.7705C74.7705 54.7354 76.3169 56.0021 80.2292 56.0021C83.864 56.0021 85.754 55.0821 85.754 52.8419C85.754 50.4816 83.7318 50.2816 80.8372 49.9749Z" fill="white"/>
<path d="M43.979 52.6026L46.1467 46.4688H50.7198V55.8029H47.5873L47.5818 49.7357L45.3613 55.8029H42.5912L40.3708 49.7357V55.8029H37.2383V46.4688H41.8114L43.979 52.6026Z" fill="white"/>
<path fill-rule="evenodd" clip-rule="evenodd" d="M48.2341 36.4312C47.3794 35.9866 46.466 35.6681 45.5217 35.4854C46.466 35.3027 47.3794 34.9842 48.2341 34.5396C48.639 34.3316 48.8683 33.9815 48.8683 33.5376C48.8683 32.98 48.4774 32.5347 47.9264 32.4444C47.6922 32.4088 47.4751 32.2995 47.3063 32.1318C47.1404 31.9613 47.032 31.7422 46.9967 31.5059C46.9072 30.9497 46.4646 30.5552 45.9136 30.5552C45.4739 30.5552 45.1275 30.7866 44.9214 31.1953C44.4807 32.0584 44.165 32.9809 43.9839 33.9346C43.8036 32.9809 43.4885 32.0582 43.0484 31.1948C42.8423 30.7861 42.496 30.5547 42.0562 30.5547C41.5038 30.5547 41.0626 30.9492 40.9732 31.5054C40.938 31.7418 40.8296 31.9609 40.6636 32.1314C40.4948 32.2991 40.2776 32.4085 40.0434 32.4439C39.4924 32.5342 39.1016 32.981 39.1016 33.5371C39.1016 33.981 39.3309 34.3311 39.7357 34.5391C40.5904 34.9837 41.5038 35.3022 42.4481 35.4849C41.5038 35.6676 40.5904 35.9861 39.7357 36.4307C39.3309 36.6387 39.1016 36.9883 39.1016 37.4322C39.1016 37.9898 39.4924 38.4351 40.0434 38.5259C40.2776 38.5613 40.4948 38.6707 40.6636 38.8384C40.8294 39.009 40.9378 39.2281 40.9732 39.4644C41.0626 40.0206 41.5053 40.4151 42.0562 40.4151C42.496 40.4151 42.8423 40.1837 43.0484 39.775C43.489 38.9125 43.8047 37.9907 43.9859 37.0377C44.1669 37.9906 44.4825 38.9125 44.9229 39.775C45.129 40.1837 45.4753 40.4151 45.915 40.4151C46.4675 40.4151 46.9086 40.0206 46.9981 39.4644C47.0337 39.2282 47.142 39.0092 47.3077 38.8384C47.4766 38.6708 47.6937 38.5615 47.9279 38.5259C48.4788 38.4351 48.8697 37.9888 48.8697 37.4322C48.8683 36.9888 48.639 36.6392 48.2341 36.4312Z" fill="#FF1351"/>
</svg>
