<?xml version="1.0" encoding="UTF-8"?> <svg xmlns="http://www.w3.org/2000/svg" width="154" height="21" viewBox="0 0 154 21" fill="none"> <g clip-path="url(#clip0_386_4591)"> <path d="M18.0134 9.35789V11.7526C18.0134 16.4316 15.6021 21 9.46765 21C3.33318 21 0 16.6526 0 10.5368C0 4.42105 3.33318 0 9.43219 0C13.9001 0 16.7014 2.43158 17.4815 6.15263H13.2263C12.8008 4.64211 11.5243 3.75789 9.43219 3.75789C5.95717 3.75789 4.1842 6.63158 4.1842 10.4632C4.1842 14.2947 5.92171 17.2421 9.46765 17.2421C12.4817 17.2421 13.8646 15.4 13.9355 12.8211H9.29035V9.35789H18.0134Z" fill="#F0F0F0"></path> <path d="M32.3026 15.1792H24.8916L23.2605 20.6318H19.2891L25.4945 0.368652H31.8062L38.0471 20.6318H33.8983L32.3026 15.1792ZM25.92 11.495H31.2389L29.1822 4.45813H27.9411L25.92 11.495Z" fill="#F0F0F0"></path> <path d="M40.0684 0.368652H46.3092L49.5006 8.5476H50.2097L53.4011 0.368652H59.7128V20.6318H55.9187V5.52655H55.2095L51.9472 13.7055H47.8694L44.6426 5.52655H43.9334V20.6318H40.1393V0.368652H40.0684Z" fill="#F0F0F0"></path> <path d="M74.0035 16.8737L73.4007 20.6316H63.543V0.368408H76.8048L76.0956 4.1263H67.6208V8.36315H75.4573L74.819 12.0474H67.6208V16.8368H74.0035V16.8737V16.8737Z" fill="#F0F0F0"></path> <path d="M90.1729 10.4265C91.5203 11.237 92.3713 12.7107 92.3359 14.3686C92.3359 18.6054 89.0027 20.5949 85.2795 20.5949H76.8047L80.2088 0.294922H87.9389C90.7048 0.294922 93.2224 1.87913 93.2224 4.93703C93.2578 7.00018 92.0877 8.95282 90.2438 9.80019L90.1729 10.4265ZM85.0313 18.9739C88.0098 18.9739 90.5629 17.6476 90.5629 14.3318C90.5629 11.8265 88.4354 10.8686 86.3078 10.8686H80.3152L78.9677 18.9002H85.0667V18.9739H85.0313ZM80.5988 9.21071H86.6269C89.2509 9.21071 91.4849 8.17913 91.4849 5.19492C91.4849 3.02124 89.641 2.13703 87.8325 2.13703H81.8399L80.5988 9.21071Z" fill="#2BDC24"></path> <path d="M102.478 18.9737L101.627 20.7053H94.0391L97.4432 0.405273H111.84L110.989 2.13685H99.0034L97.7623 9.24738H107.336L106.485 10.979H97.4786L96.0957 18.9737H102.478Z" fill="#2BDC24"></path> <path d="M122.478 20.6318H120.598L119.499 14.1108H110.705L107.407 20.6318H105.457L115.669 0.368652H119.003L122.478 20.6318ZM111.521 12.3792H119.18L117.513 2.35813H116.485L111.521 12.3792Z" fill="#2BDC24"></path> <path d="M137.653 2.06312H131.199L128.043 20.6315H126.27L129.426 2.06312H122.973L123.221 0.331543H137.937L137.653 2.06312Z" fill="#2BDC24"></path> <path d="M150.489 20.6318H139.887L143.397 0.368652H154L150.489 20.6318Z" fill="url(#paint0_linear_386_4591)"></path> <path d="M144.923 20.6318H134.32L137.937 0.368652H148.54L144.923 20.6318Z" fill="url(#paint1_linear_386_4591)"></path> </g> <defs> <linearGradient id="paint0_linear_386_4591" x1="146.95" y1="20.8153" x2="146.95" y2="1.94881" gradientUnits="userSpaceOnUse"> <stop offset="0.2" stop-color="#2BDC24" stop-opacity="0"></stop> <stop offset="1" stop-color="#2BDC24"></stop> </linearGradient> <linearGradient id="paint1_linear_386_4591" x1="141.441" y1="0.284652" x2="141.441" y2="21.7209" gradientUnits="userSpaceOnUse"> <stop offset="0.2" stop-color="#2BDC24" stop-opacity="0"></stop> <stop offset="1" stop-color="#2BDC24"></stop> </linearGradient> <clipPath id="clip0_386_4591"> <rect width="154" height="21" fill="white"></rect> </clipPath> </defs> </svg> 