<svg xmlns="http://www.w3.org/2000/svg" xmlns:xlink="http://www.w3.org/1999/xlink" viewBox="0 0 619.51 227.04"><defs><radialGradient id="a" cx="61.76" cy="-180.65" r="119.1" gradientTransform="translate(33.67 233.29) scale(0.87)" gradientUnits="userSpaceOnUse"><stop offset="0" stop-color="#fdf1ab"/><stop offset="0" stop-color="#fce400"/><stop offset="0.12" stop-color="#fadf03"/><stop offset="0.6" stop-color="#f3d00a"/><stop offset="1" stop-color="#f1cb0d"/><stop offset="1" stop-color="#f1cb0d"/></radialGradient><radialGradient id="b" cx="111.95" cy="105.29" r="62.41" gradientUnits="userSpaceOnUse"><stop offset="0.21" stop-color="#fdf6d9"/><stop offset="0.37" stop-color="#fdf5d5"/><stop offset="0.53" stop-color="#fdf3c8"/><stop offset="0.7" stop-color="#fcf0b3"/><stop offset="0.86" stop-color="#fceb95"/><stop offset="1" stop-color="#fbe678"/></radialGradient><radialGradient id="c" cx="95.54" cy="-138.68" r="64.82" gradientTransform="translate(33.67 233.29) scale(0.87)" gradientUnits="userSpaceOnUse"><stop offset="0" stop-color="#c0a10f" stop-opacity="0"/><stop offset="0.96" stop-color="#c0a10f" stop-opacity="0"/><stop offset="1" stop-color="#c0a10f"/></radialGradient><radialGradient id="d" cx="99.49" cy="-134.65" r="65.32" gradientTransform="translate(268.13 80.83) rotate(-138.26) scale(0.87 0.92)" gradientUnits="userSpaceOnUse"><stop offset="0" stop-color="#fff" stop-opacity="0"/><stop offset="0.96" stop-color="#fcec91" stop-opacity="0"/><stop offset="0.96" stop-color="#fcefa0" stop-opacity="0.15"/><stop offset="0.96" stop-color="#fdf2b4" stop-opacity="0.35"/><stop offset="0.97" stop-color="#fef5c6" stop-opacity="0.52"/><stop offset="0.97" stop-color="#fef8d5" stop-opacity="0.67"/><stop offset="0.98" stop-color="#fefae1" stop-opacity="0.79"/><stop offset="0.98" stop-color="#fffcea" stop-opacity="0.88"/><stop offset="0.99" stop-color="#fffdf1" stop-opacity="0.95"/><stop offset="0.99" stop-color="#fffef5" stop-opacity="0.99"/><stop offset="1" stop-color="#fffef6"/></radialGradient><radialGradient id="e" cx="95.63" cy="-138.57" r="67.98" gradientTransform="matrix(0.67, 0.56, -0.57, 0.69, -26.5, 153.97)" gradientUnits="userSpaceOnUse"><stop offset="0.81" stop-color="#c0a10f"/><stop offset="0.92" stop-color="#c0a10f"/><stop offset="0.96" stop-color="#c0a10f" stop-opacity="0"/></radialGradient><radialGradient id="f" cx="99.34" cy="-134.9" r="66.38" gradientTransform="translate(33.67 232.76) scale(0.87 0.87)" gradientUnits="userSpaceOnUse"><stop offset="0.58" stop-color="#fcec91" stop-opacity="0"/><stop offset="0.96" stop-color="#fceea6"/><stop offset="0.97" stop-color="#fceea6" stop-opacity="0.98"/><stop offset="0.97" stop-color="#fceea5" stop-opacity="0.93"/><stop offset="0.97" stop-color="#fceea3" stop-opacity="0.85"/><stop offset="0.98" stop-color="#fceda0" stop-opacity="0.74"/><stop offset="0.98" stop-color="#fced9d" stop-opacity="0.59"/><stop offset="0.98" stop-color="#fced9a" stop-opacity="0.41"/><stop offset="0.99" stop-color="#fcec95" stop-opacity="0.19"/><stop offset="0.99" stop-color="#fcec91" stop-opacity="0"/></radialGradient><linearGradient id="g" x1="40.04" y1="67.98" x2="39.6" y2="70.06" gradientUnits="userSpaceOnUse"><stop offset="0.07" stop-color="#f9e38e"/><stop offset="0.2" stop-color="#f9e389"/><stop offset="0.36" stop-color="#f9e179"/><stop offset="0.54" stop-color="#f8df60"/><stop offset="0.73" stop-color="#f7dc3c"/><stop offset="0.93" stop-color="#f6d80f"/><stop offset="0.99" stop-color="#f6d700"/></linearGradient><linearGradient id="h" x1="139.75" y1="24.2" x2="137.49" y2="24.36" gradientUnits="userSpaceOnUse"><stop offset="0.08" stop-color="#c0a10f"/><stop offset="0.45" stop-color="#d1b00e"/><stop offset="0.98" stop-color="#f1cb0d"/></linearGradient><linearGradient id="i" x1="96.59" y1="27.85" x2="94.9" y2="28.99" gradientUnits="userSpaceOnUse"><stop offset="0.08" stop-color="#c0a10f"/><stop offset="0.42" stop-color="#d1b10c"/><stop offset="0.98" stop-color="#f5d307"/></linearGradient><linearGradient id="j" x1="154.85" y1="31.73" x2="156.34" y2="33.38" gradientUnits="userSpaceOnUse"><stop offset="0.07" stop-color="#f9e38e"/><stop offset="0.21" stop-color="#f9e289"/><stop offset="0.38" stop-color="#f8df79"/><stop offset="0.57" stop-color="#f6da60"/><stop offset="0.78" stop-color="#f4d43c"/><stop offset="0.99" stop-color="#f1cb0f"/><stop offset="1" stop-color="#f1cb0d"/></linearGradient><linearGradient id="k" x1="50.4" y1="49.89" x2="52.45" y2="49.01" gradientUnits="userSpaceOnUse"><stop offset="0.07" stop-color="#f9e38e"/><stop offset="0.2" stop-color="#f9e389"/><stop offset="0.36" stop-color="#f9e279"/><stop offset="0.55" stop-color="#f8e060"/><stop offset="0.74" stop-color="#f8dd3c"/><stop offset="0.94" stop-color="#f7da0f"/><stop offset="1" stop-color="#f7d900"/></linearGradient><linearGradient id="l" x1="64.24" y1="41.87" x2="62.87" y2="43.76" gradientUnits="userSpaceOnUse"><stop offset="0.08" stop-color="#c0a10f"/><stop offset="0.41" stop-color="#d1b20a"/><stop offset="0.98" stop-color="#f7d900"/></linearGradient><linearGradient id="m" x1="83.34" y1="33.52" x2="85.56" y2="33.32" gradientUnits="userSpaceOnUse"><stop offset="0.07" stop-color="#f9e38e"/><stop offset="0.2" stop-color="#f9e289"/><stop offset="0.37" stop-color="#f8e179"/><stop offset="0.56" stop-color="#f8de60"/><stop offset="0.76" stop-color="#f7d93c"/><stop offset="0.97" stop-color="#f5d40f"/><stop offset="1" stop-color="#f5d307"/></linearGradient><linearGradient id="n" x1="123.1" y1="25.38" x2="125.03" y2="26.5" xlink:href="#m"/><linearGradient id="o" x1="207.08" y1="106.67" x2="205.78" y2="104.67" xlink:href="#h"/><linearGradient id="p" x1="165.31" y1="42.55" x2="163.3" y2="42.05" xlink:href="#h"/><linearGradient id="q" x1="204.35" y1="87.49" x2="204.23" y2="89.79" gradientUnits="userSpaceOnUse"><stop offset="0.07" stop-color="#f9e38e"/><stop offset="0.21" stop-color="#f9e289"/><stop offset="0.38" stop-color="#f8df79"/><stop offset="0.57" stop-color="#f6da60"/><stop offset="0.77" stop-color="#f4d43c"/><stop offset="0.98" stop-color="#f1cb0f"/><stop offset="0.99" stop-color="#f1cb0d"/></linearGradient><linearGradient id="r" x1="204.31" y1="142.68" x2="204.27" y2="140.35" xlink:href="#h"/><linearGradient id="s" x1="205.58" y1="130.88" x2="204.75" y2="132.83" gradientUnits="userSpaceOnUse"><stop offset="0" stop-color="#a47a11"/><stop offset="0.19" stop-color="#aa8011"/><stop offset="0.44" stop-color="#b99010"/><stop offset="0.72" stop-color="#d3ab0f"/><stop offset="0.98" stop-color="#f1cb0d"/></linearGradient><linearGradient id="t" x1="195.2" y1="65.09" x2="193.25" y2="63.57" xlink:href="#h"/><linearGradient id="u" x1="184.81" y1="53.44" x2="185.64" y2="55.32" xlink:href="#j"/><linearGradient id="v" x1="74.43" y1="193.59" x2="76.6" y2="193.97" xlink:href="#q"/><linearGradient id="w" x1="190.38" y1="167.89" x2="188.52" y2="168.64" xlink:href="#s"/><linearGradient id="x" x1="86.86" y1="203.57" x2="84.98" y2="202.05" xlink:href="#s"/><linearGradient id="y" x1="122.52" y1="202.32" x2="120.4" y2="201.59" xlink:href="#s"/><linearGradient id="z" x1="107.89" y1="202.35" x2="109.97" y2="201.68" xlink:href="#h"/><linearGradient id="aa" x1="144.17" y1="204.48" x2="145.97" y2="203.07" xlink:href="#h"/><linearGradient id="ab" x1="177.05" y1="179.6" x2="178.17" y2="177.86" xlink:href="#h"/><linearGradient id="ac" x1="159.14" y1="194.44" x2="156.83" y2="194.69" xlink:href="#s"/><linearGradient id="ad" x1="35.85" y1="150.05" x2="35.6" y2="148.05" xlink:href="#h"/><linearGradient id="ae" x1="26.02" y1="120.94" x2="26.69" y2="118.99" xlink:href="#h"/><linearGradient id="af" x1="29.75" y1="106.03" x2="30.14" y2="108.07" gradientUnits="userSpaceOnUse"><stop offset="0.07" stop-color="#f9e38e"/><stop offset="0.2" stop-color="#f9e289"/><stop offset="0.37" stop-color="#f8e079"/><stop offset="0.56" stop-color="#f7dd60"/><stop offset="0.76" stop-color="#f6d93c"/><stop offset="0.97" stop-color="#f4d30f"/><stop offset="0.99" stop-color="#f4d209"/></linearGradient><linearGradient id="ag" x1="55.11" y1="177.96" x2="54.07" y2="175.84" xlink:href="#s"/><linearGradient id="ah" x1="28.66" y1="139.95" x2="29.77" y2="141.8" xlink:href="#q"/><linearGradient id="ai" x1="45.49" y1="167.08" x2="47.26" y2="168.47" xlink:href="#q"/><linearGradient id="aj" x1="37.25" y1="83.31" x2="38.74" y2="81.77" xlink:href="#i"/></defs><path d="M257.78,42.65h17.06l12.79,25.59,13.16-25.59h16.43l3.08,56.63H305l-1.55-34.94L292.17,85.67h-9.71l-11-21-1.54,34.58H254.69Z" transform="translate(0 0)" fill="#fff"/><path d="M331.13,42.65h43.46V56.72H346.92v7.17h24.22V77.14H346.92v8.07h28.49V99.28H331.13Z" transform="translate(0 0)" fill="#fff"/><path d="M385.48,42.65h24.78c14.61,0,23.14,8.44,23.14,19.69a19.18,19.18,0,0,1-9.26,16.88l12.71,20.06H418.61l-9.26-16.43c-1.09,0-2.36,0-3.63-.09a41.37,41.37,0,0,1-4.81-.54V99.28H385.48Zm31.4,20.06c0-4.18-2.9-6.81-7.8-6.81h-8.17V69.06a47.93,47.93,0,0,0,8.17.54C414.07,69.6,416.88,66.79,416.88,62.71Z" transform="translate(0 0)" fill="#fff"/><path d="M503.55,70.6V42.65h16.24v28.5c0,10.07,3.27,14.25,10.35,14.25s10.61-4.18,10.61-14.25V42.65H557V70.6c0,18.15-9.17,29.68-26.77,29.68C512.08,100.28,503.55,89.12,503.55,70.6Z" transform="translate(0 0)" fill="#fff"/><path d="M568.06,42.65h24.78c14.61,0,23.14,8.44,23.14,19.69a19.18,19.18,0,0,1-9.26,16.88l12.71,20.06H601.19l-9.26-16.43c-1.09,0-2.36,0-3.63-.09a41.37,41.37,0,0,1-4.81-.54V99.28H568.06Zm31.4,20.06c0-4.18-2.9-6.81-7.8-6.81h-8.17V69.06a47.93,47.93,0,0,0,8.17.54C596.65,69.6,599.46,66.79,599.46,62.71Z" transform="translate(0 0)" fill="#fff"/><path d="M444.78,42.65h16.15L461,63a39.57,39.57,0,0,0,4.54.27c6.91,0,12-8.33,12.9-20.61h16C494,55.72,490,65.2,482.15,71.46l16.56,27.82H479.2l-13-21.6a34.75,34.75,0,0,1-5.29-.27V99.28H444.78Z" transform="translate(0 0)" fill="#fff"/><rect x="254.69" y="117.05" width="364.82" height="7.09" fill="#009de0"/><circle cx="119" cy="113.84" r="59.05" fill="#d5b40f"/><path d="M181.29,121.78l49.3-31.59L176.81,87l33.57-43.82-52,23.09L170,19.5l-29.63,27L137,3.32,110.31,50,82.42,8.69l4.21,51.08-45-33,20.19,47L19.33,64.6l38.48,37-54,10.58,46.52,16.09-40,23.9,53.18-6.51L30.4,188.46l50.4-24.13L70.56,221.39l32-38.73L115,220.31l13.29-37.77,32.59,41.2L155,164.06l44.41,28.75-20.47-50.68,47.62-1.21ZM119,56.64a57.27,57.27,0,0,1,57.2,57.21V114A57.17,57.17,0,1,1,119,56.64Z" transform="translate(0 0)" fill="url(#a)"/><path d="M119.13,59.08a54.77,54.77,0,1,1-54.78,54.77A54.83,54.83,0,0,1,119.13,59.08Z" transform="translate(0 0)" fill="url(#b)"/><path d="M119.13,59.08a54.77,54.77,0,1,1-54.78,54.77A54.83,54.83,0,0,1,119.13,59.08Z" transform="translate(0 0)" fill="url(#c)"/><path d="M119.13,59.08a54.77,54.77,0,1,1-54.78,54.77A54.83,54.83,0,0,1,119.13,59.08Z" transform="translate(0 0)" fill="url(#d)"/><path d="M181.29,121.78l49.3-31.59L176.81,87l33.57-43.82-52,23.09L170,19.5l-29.63,27L137,3.32,110.31,50,82.42,8.69l4.21,51.08-45-33,20.19,47L19.33,64.6l38.48,37-54,10.58,46.52,16.09-40,23.9,53.18-6.51L30.4,188.46l50.4-24.13L70.56,221.39l32-38.73L115,220.31l13.29-37.77,32.59,41.2L155,164.06l44.41,28.75-20.47-50.68,47.62-1.21ZM119,56.64a57.27,57.27,0,0,1,57.2,57.21V114A57.17,57.17,0,1,1,119,56.64Z" transform="translate(0 0)" fill="url(#e)"/><path d="M159.54,131.17a22.84,22.84,0,0,1-6.24-10.43c-.28-.91-.88-.76-.88-.76-.65.13-.38.85-.38.85a39.21,39.21,0,0,0,1.6,5.32c-37.64,8-71.47-.8-71.47-.8a35.1,35.1,0,0,0,2.6-5.13c.22-.82-.2-1-.2-1-.63-.22-.82.47-.82.47C80.2,126.5,75.22,129,75.22,129h0s-1,.56-.65,1.06c0,0,.25.41,1.46-.05h0a33,33,0,0,0,4.78-3.21,84.69,84.69,0,0,0,9.94,13.69,40.11,40.11,0,0,0,14.11,10.21c4.82,2.55,11.4,2.64,11.4,2.64,26.27,1.36,38.18-25.26,38.18-25.26a17.24,17.24,0,0,0,4.12,4.09C160.15,132.6,159.54,131.17,159.54,131.17Zm-42.11,20.24c-21.92-.25-34-24-34-24l1.71.36a144.89,144.89,0,0,0,36.93,3.69c-4.77.18,13.62.15,28.26-2.87l1.94-.38S140.71,151.69,117.43,151.41Z" transform="translate(0 0)" fill="#20201e"/><path d="M109.35,113.36c.42,0,8,.11,8,.11,2.13-.33,1.13,2.24,1.13,2.24-.74.92.14,1.2.14,1.2,1.24,0,1.63-2.49,1.63-2.49.32-2.71-1.93-2.29-1.93-2.29S110,112,110,112c-8.12-.68-7.63-8.82-7.63-8.82,0-5.32,5.09-9.95,5.09-9.95,4-3.73,11.27-5.82,11.27-5.82,1-.45.65-.69.65-.69-.22-.76-4.18.64-4.18.64s-13.77,4-14.66,15.52c0,0-.71,9.55,8.83,10.53" transform="translate(0 0)" fill="#20201e"/><path d="M73.41,95.23s4.71-9.53,12.67-7.46S94,99.54,94,99.54s1.39-11.46-7.52-13.74C76.49,83.25,73.41,95.23,73.41,95.23Z" transform="translate(0 0)" fill="#20201e"/><path d="M146.58,89c11.54.91,11.54,13.61,11.54,13.61s-1.81-11.16-11.54-12c-6.73-.61-10.46,7.77-10.46,7.77S138.22,88.31,146.58,89Z" transform="translate(0 0)" fill="#20201e"/><path d="M83.16,95.18Z" transform="translate(0 0)" fill="#20201e"/><path d="M83.36,95.16h0Z" transform="translate(0 0)" fill="#20201e"/><path d="M83.32,95.17h0Z" transform="translate(0 0)" fill="#20201e"/><path d="M83.36,95.16c-5.63.06-8.28,16.91-1.67,17.52S90.34,94.62,83.36,95.16Z" transform="translate(0 0)" fill="#20201e"/><path d="M81.8,97.63a4.55,4.55,0,0,0-1.91,3.45,30.35,30.35,0,0,0-.39,3.26,1.7,1.7,0,0,0,1.27.29,3.38,3.38,0,0,0,1.42-.81,5.51,5.51,0,0,1,.17-2.8,17.75,17.75,0,0,1,1-3.22,2.17,2.17,0,0,0-.72-.21A2.87,2.87,0,0,0,81.8,97.63Z" transform="translate(0 0)" fill="#fff"/><path d="M150.52,104.34c-.12-2.27-.66-4.68-1.92-5.62a6.62,6.62,0,0,0-1.08-.71,9.6,9.6,0,0,0-1.09-.25c-5.76-.36-8.44,17.88-2.63,18.54C148,116.78,150.88,109.6,150.52,104.34Z" transform="translate(0 0)" fill="#20201e"/><path d="M145,100a4.55,4.55,0,0,0-1.91,3.45,30.45,30.45,0,0,0-.39,3.25,1.66,1.66,0,0,0,1.27.3,3.38,3.38,0,0,0,1.42-.81,5.51,5.51,0,0,1,.17-2.8,17.75,17.75,0,0,1,1-3.22,2.17,2.17,0,0,0-.72-.21A2.87,2.87,0,0,0,145,100Z" transform="translate(0 0)" fill="#fff"/><path d="M181.29,121.78l49.3-31.59L176.81,87l33.57-43.82-52,23.09L170,19.5l-29.63,27L137,3.32,110.31,50,82.42,8.69l4.21,51.08-45-33,20.19,47L19.33,64.6l38.48,37-54,10.58,46.52,16.09-40,23.9,53.18-6.51L30.4,188.46l50.4-24.13L70.56,221.39l32-38.73L115,220.31l13.29-37.77,32.59,41.2L155,164.06l44.41,28.75-20.47-50.68,47.62-1.21ZM119,56.64a57.27,57.27,0,0,1,57.2,57.21V114A57.17,57.17,0,1,1,119,56.64Z" transform="translate(0 0)" fill="url(#f)"/><polygon points="22.56 66.32 63.54 75.15 63.54 75.15 60.18 72.38 16.1 62.89 22.56 66.32 22.56 66.32" fill="url(#g)"/><polygon points="136.25 6.64 139.48 48.56 141.16 44.33 141.16 44.33 137.75 0 136.25 6.64 136.25 6.64" fill="url(#h)"/><polygon points="110.38 51.88 110.38 51.88 110.24 48.1 110.24 48.1 81.11 4.96 81.11 4.96 83.73 12.42 110.38 51.88" fill="url(#i)"/><polygon points="139.48 48.56 168.19 22.45 171.71 16.54 141.16 44.33 139.48 48.56 139.48 48.56" fill="url(#j)"/><polygon points="44.04 29.72 44.04 29.72 39.31 23.75 60.18 72.38 60.18 72.38 63.54 75.15 44.04 29.72" fill="url(#k)"/><polygon points="87.81 61.87 85.45 57.66 39.31 23.75 39.31 23.75 44.04 29.72 87.81 61.87" fill="url(#l)"/><polygon points="87.81 61.87 83.73 12.42 83.73 12.42 81.11 4.96 85.45 57.66 85.45 57.66 87.81 61.87 87.81 61.87" fill="url(#m)"/><polygon points="136.25 6.64 137.75 0 137.75 0 110.24 48.1 110.38 51.88 136.25 6.64" fill="url(#n)"/><polygon points="179.15 121.96 183.42 121.6 233.72 89.37 227.46 91.01 179.15 121.96" fill="url(#o)"/><polygon points="168.19 22.45 156.9 68.05 156.9 68.05 159.82 64.57 171.71 16.54 171.71 16.54 168.19 22.45 168.19 22.45" fill="url(#p)"/><polygon points="227.46 91.01 227.46 91.01 233.72 89.37 233.72 89.37 178.75 86.15 178.75 86.15 174.87 87.92 227.46 91.01" fill="url(#q)"/><polygon points="231.16 141.81 221.86 140.04 221.86 140.04 177.42 141.17 180.36 143.1 180.36 143.1 231.16 141.81" fill="url(#r)"/><polygon points="183.42 121.6 179.15 121.96 221.86 140.04 231.16 141.81 183.42 121.6" fill="url(#s)"/><polygon points="174.87 87.92 174.87 87.92 178.75 86.15 213.56 40.71 213.56 40.71 207.2 45.72 174.87 87.92" fill="url(#t)"/><polygon points="207.2 45.72 207.2 45.72 213.56 40.71 159.82 64.57 159.82 64.57 156.9 68.05 207.2 45.72" fill="url(#u)"/><polygon points="82.13 162.59 82.13 162.59 79.47 166.08 79.47 166.08 68.9 224.97 72.22 217.81 82.13 162.59" fill="url(#v)"/><polygon points="177.42 141.17 197.25 190.25 197.25 190.25 201.47 195.37 201.47 195.37 180.36 143.1 177.42 141.17 177.42 141.17" fill="url(#w)"/><polygon points="102.91 180.62 72.22 217.81 72.22 217.81 68.9 224.97 68.9 224.97 102.15 184.69 102.15 184.69 102.91 180.62 102.91 180.62" fill="url(#x)"/><polygon points="115.02 217.22 115.02 217.22 114.96 223.4 128.63 184.59 128.63 184.59 127.94 180.5 115.02 217.22" fill="url(#y)"/><polygon points="102.91 180.62 102.15 184.69 114.96 223.4 114.96 223.4 115.02 217.22 102.91 180.62" fill="url(#z)"/><polygon points="127.94 180.5 127.94 180.5 128.63 184.59 162.2 227.04 162.2 227.03 159.54 220.44 127.94 180.5" fill="url(#aa)"/><polygon points="153.75 162.1 153.75 162.1 156.15 166.03 156.15 166.03 201.47 195.37 197.25 190.25 153.75 162.1" fill="url(#ab)"/><polygon points="159.54 220.44 159.54 220.44 162.2 227.03 156.15 166.03 153.75 162.1 159.54 220.44" fill="url(#ac)"/><polygon points="65.73 144.37 14.88 150.59 14.88 150.59 5.72 153.73 61.22 146.94 65.73 144.37 65.73 144.37" fill="url(#ad)"/><polygon points="52.71 128.02 7.67 112.44 7.67 112.44 0 111.9 47.99 128.5 52.71 128.02 52.71 128.02" fill="url(#ae)"/><polygon points="59.89 102.2 55.73 100.98 55.73 100.98 0 111.9 0 111.9 7.67 112.44 59.89 102.2" fill="url(#af)"/><polygon points="33.76 185.74 27.03 191.18 79.47 166.08 82.13 162.59 33.76 185.74" fill="url(#ag)"/><polygon points="52.71 128.02 47.99 128.5 47.99 128.5 5.72 153.73 5.72 153.73 14.88 150.59 52.71 128.02" fill="url(#ah)"/><polygon points="33.76 185.74 65.73 144.37 61.22 146.94 61.22 146.94 27.03 191.18 27.03 191.18 33.76 185.74 33.76 185.74" fill="url(#ai)"/><polygon points="59.89 102.2 22.56 66.32 16.1 62.89 16.1 62.89 55.73 100.98 59.89 102.2 59.89 102.2" fill="url(#aj)"/><path d="M281.08,192.72a32.49,32.49,0,0,1-14.88-3.24,23.91,23.91,0,0,1-9.92-9.08,25.8,25.8,0,0,1-3.52-13.6,24.24,24.24,0,0,1,3.76-13.44,24.87,24.87,0,0,1,10.44-9,34.51,34.51,0,0,1,15.08-3.2,33,33,0,0,1,13.08,2.36,24.25,24.25,0,0,1,9.16,6.76L300,154.32a20.21,20.21,0,0,0-7.44-5,28.26,28.26,0,0,0-10.56-1.8A26.76,26.76,0,0,0,270,150a17.9,17.9,0,0,0-7.68,6.88,18.9,18.9,0,0,0-2.64,9.92,19.54,19.54,0,0,0,2.6,10,18.39,18.39,0,0,0,7.4,7,23.78,23.78,0,0,0,11.36,2.56,28.49,28.49,0,0,0,9.56-1.52,15.86,15.86,0,0,0,7-4.68,14.61,14.61,0,0,0,3.24-7.88H284v-6.24H308v2.64a23.92,23.92,0,0,1-3.28,12.68,21.78,21.78,0,0,1-9.4,8.36A32.49,32.49,0,0,1,281.08,192.72Z" transform="translate(0 0)" fill="#fff"/><path d="M318.92,191.84l24.56-49.92h8.16l24.24,49.92H368.2l-6.72-14.16H333.16l-6.64,14.16Zm17.28-20.56h22.32L347.4,148.16Z" transform="translate(0 0)" fill="#fff"/><path d="M389.08,191.84l3.68-49.92h6.64l19.28,31.28L438,141.92h6.64l3.68,49.92h-7l-2.8-38.8-17,26.72h-5.76l-17-25.76L396,191.84Z" transform="translate(0 0)" fill="#fff"/><path d="M469,191.84V141.92h7v49.92Z" transform="translate(0 0)" fill="#fff"/><path d="M498.6,191.84V141.92h7l34.56,39.92V141.92h6.8v49.92H540l-34.56-39.92v39.92Z" transform="translate(0 0)" fill="#fff"/><path d="M592.52,192.72a32.49,32.49,0,0,1-14.88-3.24,23.85,23.85,0,0,1-9.92-9.08,25.8,25.8,0,0,1-3.52-13.6A24.24,24.24,0,0,1,568,153.36a24.81,24.81,0,0,1,10.44-9,34.51,34.51,0,0,1,15.08-3.2,33,33,0,0,1,13.08,2.36,24.32,24.32,0,0,1,9.16,6.76l-4.32,4.08a20.38,20.38,0,0,0-7.44-5,28.26,28.26,0,0,0-10.56-1.8A26.76,26.76,0,0,0,581.48,150a17.9,17.9,0,0,0-7.68,6.88,18.9,18.9,0,0,0-2.64,9.92,19.44,19.44,0,0,0,2.6,10,18.39,18.39,0,0,0,7.4,7,23.75,23.75,0,0,0,11.36,2.56,28.53,28.53,0,0,0,9.56-1.52,15.86,15.86,0,0,0,7-4.68,14.61,14.61,0,0,0,3.24-7.88H595.4v-6.24h24.08v2.64a24,24,0,0,1-3.28,12.68,21.78,21.78,0,0,1-9.4,8.36A32.49,32.49,0,0,1,592.52,192.72Z" transform="translate(0 0)" fill="#fff"/><rect width="619.51" height="226.77" fill="none"/></svg>