<?xml version="1.0" encoding="UTF-8"?> <svg xmlns="http://www.w3.org/2000/svg" viewBox="0 0 276.11 75.06"><defs><style>.cls-1{fill:#00d45c;}.cls-2{fill:#fff;}</style></defs><g id="Layer_2" data-name="Layer 2"><g id="Layer_1-2" data-name="Layer 1"><path class="cls-1" d="M12.26,16.93l7.28,6.16c4.48,3.79,5.1,6.91,5.1,12.69,0,6.79-4.29,9.9-12.32,9.9S0,42.57,0,35.78V31.36a2.33,2.33,0,0,1,2.55-2.55H6.66a2.33,2.33,0,0,1,2.55,2.55v4.42a2.8,2.8,0,0,0,3.11,2.93,2.8,2.8,0,0,0,3.11-2.93c0-3.23-.49-4.91-3-7L5.1,22.59C.62,18.79,0,15.68,0,9.89,0,3.11,4.29,0,12.32,0S24.64,3.11,24.64,9.89v4.42a2.32,2.32,0,0,1-2.55,2.55H18a2.33,2.33,0,0,1-2.56-2.55V9.89A2.8,2.8,0,0,0,12.32,7,2.8,2.8,0,0,0,9.21,9.89C9.21,13.13,9.71,14.81,12.26,16.93Z"></path><path class="cls-1" d="M45.43,7.28V42.82a2.33,2.33,0,0,1-2.55,2.55H38.77a2.33,2.33,0,0,1-2.55-2.55V7.28H30.31a2.32,2.32,0,0,1-2.55-2.55V2.86A2.32,2.32,0,0,1,30.31.31h21a2.32,2.32,0,0,1,2.55,2.55V4.73a2.32,2.32,0,0,1-2.55,2.55Z"></path><path class="cls-1" d="M71.12,43.13l-.75-6.23H62.9l-.75,6.23a2.31,2.31,0,0,1-2.55,2.24H55.87c-1.87,0-2.8-1.31-2.49-3.18l6-39.45C59.6.93,60.54.31,62,.31H71.3c1.43,0,2.37.62,2.62,2.43l6,39.45c.31,1.87-.62,3.18-2.49,3.18H73.67A2.31,2.31,0,0,1,71.12,43.13Zm-7.41-13.2H69.5l-.81-7.09L67,6.22h-.63L64.58,22.84Z"></path><path class="cls-1" d="M93.52,19.23h.62L101.3,1.74A2.36,2.36,0,0,1,103.66.31h4.24c2.67,0,2.8,2.55,2.36,3.61l-8,18.92,8,18.92c.44,1.06.31,3.61-2.36,3.61h-4.24a2.36,2.36,0,0,1-2.36-1.43L94.14,26.45h-.62V42.82A2.33,2.33,0,0,1,91,45.37H86.86a2.33,2.33,0,0,1-2.55-2.55v-40A2.32,2.32,0,0,1,86.86.31H91a2.32,2.32,0,0,1,2.55,2.55Z"></path><path class="cls-1" d="M133.46.31A2.33,2.33,0,0,1,136,2.86V4.73a2.33,2.33,0,0,1-2.55,2.55h-9V19.35h6.66a2.33,2.33,0,0,1,2.55,2.56v1.86a2.32,2.32,0,0,1-2.55,2.55h-6.66V38.4h9A2.33,2.33,0,0,1,136,41v1.87a2.33,2.33,0,0,1-2.55,2.55H117.77a2.33,2.33,0,0,1-2.55-2.55v-40A2.33,2.33,0,0,1,117.77.31Z"></path><path class="cls-2" d="M150.24,38.4h9A2.33,2.33,0,0,1,161.82,41v1.87a2.33,2.33,0,0,1-2.55,2.55H143.58A2.33,2.33,0,0,1,141,42.82v-40A2.33,2.33,0,0,1,143.58.31h4.11a2.32,2.32,0,0,1,2.55,2.55Z"></path><path class="cls-2" d="M189.84,9.89V35.78c0,6.79-4.29,9.9-12.32,9.9s-12.32-3.11-12.32-9.9V9.89c0-6.78,4.29-9.89,12.32-9.89S189.84,3.11,189.84,9.89Zm-15.43,0V35.78a3.12,3.12,0,0,0,6.22,0V9.89a3.12,3.12,0,0,0-6.22,0Z"></path><path class="cls-2" d="M217.49,21.41A2.32,2.32,0,0,1,220,24V35.78c0,6.79-4.29,9.9-12.32,9.9s-12.32-3.11-12.32-9.9V9.89c0-6.78,4.29-9.89,12.32-9.89S220,3.11,220,9.89v3.8a2.32,2.32,0,0,1-2.55,2.55h-4.11a2.32,2.32,0,0,1-2.55-2.55V9.89a3.12,3.12,0,0,0-6.22,0V35.78a3.12,3.12,0,0,0,6.22,0v-7.4h-.56a2.33,2.33,0,0,1-2.55-2.55V24a2.32,2.32,0,0,1,2.55-2.55Z"></path><path class="cls-2" d="M234.81,42.82a2.33,2.33,0,0,1-2.55,2.55h-4.11a2.33,2.33,0,0,1-2.55-2.55v-40A2.32,2.32,0,0,1,228.15.31h4.11a2.33,2.33,0,0,1,2.55,2.55Z"></path><path class="cls-2" d="M265,16.18a2.33,2.33,0,0,1-2.55,2.55h-4.11a2.32,2.32,0,0,1-2.55-2.55V9.89a3.12,3.12,0,0,0-6.23,0V35.78a3.12,3.12,0,0,0,6.23,0V29.5A2.32,2.32,0,0,1,258.35,27h4.11A2.33,2.33,0,0,1,265,29.5v6.28c0,6.79-4.3,9.9-12.33,9.9s-12.32-3.11-12.32-9.9V9.89c0-6.78,4.3-9.89,12.32-9.89S265,3.11,265,9.89Z"></path><path class="cls-2" d="M270.11,1a3.54,3.54,0,0,1,5,0,3.49,3.49,0,0,1,1,2.5,3.46,3.46,0,0,1-1,2.48,3.49,3.49,0,0,1-5,0,3.39,3.39,0,0,1-1-2.48A3.42,3.42,0,0,1,270.11,1Zm.45,4.62a2.8,2.8,0,0,0,4.06,0,2.9,2.9,0,0,0,.81-2.12,3,3,0,0,0-.81-2.14,2.85,2.85,0,0,0-4.06,0,3,3,0,0,0-.82,2.14A3,3,0,0,0,270.56,5.64Zm.68-4.19h1.58c.94,0,1.41.39,1.41,1.16a1.13,1.13,0,0,1-.28.81,1,1,0,0,1-.78.33l1.17,1.83h-.71L272.5,3.75h-.59V5.58h-.67Zm.67,1.78h.8a1.23,1.23,0,0,0,.63-.13.55.55,0,0,0,.22-.52.53.53,0,0,0-.25-.48,1.46,1.46,0,0,0-.6-.12h-.8Z"></path><path class="cls-2" d="M15.56,57l-.32,1.52a1.33,1.33,0,0,1-.4.83,1.84,1.84,0,0,1-1,.18H10L7,73.62a1.39,1.39,0,0,1-.4.83,1.84,1.84,0,0,1-1,.18H3.48c-.57,0-.85-.23-.85-.69a1.23,1.23,0,0,1,0-.29c0-.13.05-.25.06-.38L5.64,59.54h-4c-.57,0-.85-.23-.85-.69a1.68,1.68,0,0,1,0-.29c0-.13.05-.25.08-.38l.32-1.52a1.33,1.33,0,0,1,.4-.81,1.71,1.71,0,0,1,1-.2H14.81c.57,0,.85.23.85.69a1.85,1.85,0,0,1,0,.3C15.62,56.76,15.59,56.89,15.56,57Z"></path><path class="cls-2" d="M33.82,57,30.3,73.62a1.33,1.33,0,0,1-.4.81,1.63,1.63,0,0,1-1,.2H26.76c-.57,0-.86-.23-.86-.69a2.16,2.16,0,0,1,0-.29c0-.13,0-.25.07-.38l1.39-6.58H21.8l-1.47,6.93a1.33,1.33,0,0,1-.4.83,1.84,1.84,0,0,1-1,.18H16.79c-.57,0-.86-.23-.86-.69a1.23,1.23,0,0,1,0-.29c0-.13,0-.25.07-.38l3.52-16.61a1.33,1.33,0,0,1,.4-.81,1.69,1.69,0,0,1,1-.2H23.1c.57,0,.86.23.86.69a2.13,2.13,0,0,1,0,.3,2.45,2.45,0,0,1-.08.37L22.6,62.9h5.6l1.33-6.24a1.33,1.33,0,0,1,.4-.81,1.71,1.71,0,0,1,1-.2h2.19c.56,0,.85.23.85.69a2.13,2.13,0,0,1,0,.3A2.45,2.45,0,0,1,33.82,57Z"></path><path class="cls-2" d="M35.55,73.27l3.52-16.61a1.33,1.33,0,0,1,.4-.81,1.71,1.71,0,0,1,1-.2h2.19c.57,0,.85.23.85.69a2.13,2.13,0,0,1,0,.3,1.63,1.63,0,0,1-.08.37L39.85,73.62a1.39,1.39,0,0,1-.4.83,1.84,1.84,0,0,1-1,.18H36.3c-.57,0-.85-.23-.85-.69a1.23,1.23,0,0,1,0-.29C35.51,73.52,35.54,73.4,35.55,73.27Z"></path><path class="cls-2" d="M62.16,57,58.64,73.62a1.33,1.33,0,0,1-.4.83,1.84,1.84,0,0,1-1,.18H55.55a1.76,1.76,0,0,1-1-.17,1.64,1.64,0,0,1-.43-.81l-2.9-10-2.11,10a1.45,1.45,0,0,1-.39.8,1.48,1.48,0,0,1-.92.21h-2c-.57,0-.85-.23-.85-.69a1.23,1.23,0,0,1,0-.29c0-.13,0-.25.07-.38l3.52-16.61a1.33,1.33,0,0,1,.4-.81,1.67,1.67,0,0,1,1-.2h1.73a1.86,1.86,0,0,1,1,.17,1.64,1.64,0,0,1,.43.82l2.9,10,2.11-10a1.33,1.33,0,0,1,.4-.81,1.71,1.71,0,0,1,1-.2h1.94c.57,0,.86.23.86.69a2.51,2.51,0,0,1,0,.3C62.2,56.76,62.18,56.89,62.16,57Z"></path><path class="cls-2" d="M63.89,73.27l3.52-16.61a1.33,1.33,0,0,1,.4-.81,1.71,1.71,0,0,1,1-.2h2.11c.57,0,.85.23.85.69a.76.76,0,0,1,0,.14c0,.05,0,.15,0,.29l-1.28,6,5.7-6.11c.31-.32.54-.55.7-.69a1.22,1.22,0,0,1,.45-.27,2.94,2.94,0,0,1,.59-.05h3.3c.32,0,.48.12.48.37a.8.8,0,0,1-.26.54l-6.78,6.82L77.84,73q.14.42.18.6a.86.86,0,0,1,.06.25.69.69,0,0,1-.28.56,1.17,1.17,0,0,1-.71.21H74.61a1.37,1.37,0,0,1-.83-.18,2.06,2.06,0,0,1-.42-.83L71.12,66.5l-1.89,1.81-1.12,5.31a1.38,1.38,0,0,1-.4.81,1.63,1.63,0,0,1-1,.2H64.64c-.57,0-.85-.23-.85-.69a1.23,1.23,0,0,1,0-.29C63.85,73.52,63.88,73.4,63.89,73.27Z"></path><path class="cls-2" d="M92.6,73.27l3.52-16.61a1.33,1.33,0,0,1,.4-.81,1.71,1.71,0,0,1,1-.2h4.85a6.91,6.91,0,0,1,4.2,1.15,3.66,3.66,0,0,1,1.56,3.12,2.89,2.89,0,0,1,0,.5c0,.18-.06.38-.09.59l-.08.37a4.65,4.65,0,0,1-1,2,4.34,4.34,0,0,1-1.8,1.32,3.43,3.43,0,0,1,1.54,1.35,3.59,3.59,0,0,1,.56,2,6.36,6.36,0,0,1-.1.94l-.11.5a6.08,6.08,0,0,1-2.32,3.8A7.56,7.56,0,0,1,100,74.63H93.35c-.57,0-.86-.23-.86-.69a1.35,1.35,0,0,1,.05-.29Zm5.63-6.63L97.32,71h2.37c1.74,0,2.73-.66,3-2l.06-.32c0-.11,0-.24,0-.4,0-1.1-.76-1.65-2.29-1.65ZM99.8,59.3l-.85,4h2.1c1.58,0,2.48-.6,2.7-1.79l0-.29a2.25,2.25,0,0,0,0-.4c0-1-.7-1.47-2.08-1.47Z"></path><path class="cls-2" d="M110.52,73.27,114,56.66a1.33,1.33,0,0,1,.4-.81,1.67,1.67,0,0,1,1-.2h2.18c.57,0,.86.23.86.69a2.13,2.13,0,0,1,0,.3c0,.12,0,.25-.08.37l-3.52,16.61a1.33,1.33,0,0,1-.4.83,1.84,1.84,0,0,1-1,.18h-2.19c-.57,0-.85-.23-.85-.69a1.23,1.23,0,0,1,0-.29C110.48,73.52,110.5,73.4,110.52,73.27Z"></path><path class="cls-2" d="M135.47,65.67l-.56,2.64a8.8,8.8,0,0,1-2.64,5,7.18,7.18,0,0,1-5,1.76,7,7,0,0,1-4.89-1.6A5.7,5.7,0,0,1,120.65,69c0-.36,0-.7,0-1s.09-.67.16-1l.83-4q1.62-7.78,8.48-7.79a6.49,6.49,0,0,1,4.36,1.38,4.63,4.63,0,0,1,1.61,3.72v.33a1.34,1.34,0,0,1-.06.36c-.07.53-.45.8-1.14.8h-2.11c-.66,0-1-.28-1-.83a1.89,1.89,0,0,0-2.16-2q-2.7,0-3.52,4l-.88,4.16c-.05.26-.1.53-.13.78a4.91,4.91,0,0,0-.06.74q0,2.64,2.46,2.64a2.93,2.93,0,0,0,2.09-.8,4.15,4.15,0,0,0,1.13-2.27h-1.86q-.78,0-.78-.72a.77.77,0,0,1,0-.15s0-.13,0-.28l.34-1.65a1.23,1.23,0,0,1,.39-.8,1.63,1.63,0,0,1,.95-.21h4.82c.59,0,.88.22.88.66A3.62,3.62,0,0,1,135.47,65.67Z"></path><path class="cls-2" d="M154,65.67l-.56,2.64a8.92,8.92,0,0,1-2.64,5,7.2,7.2,0,0,1-5,1.76,7,7,0,0,1-4.89-1.6A5.67,5.67,0,0,1,139.12,69a8.81,8.81,0,0,1,.06-1,7.86,7.86,0,0,1,.16-1l.82-4q1.64-7.78,8.48-7.79A6.48,6.48,0,0,1,153,56.6a4.6,4.6,0,0,1,1.61,3.72v.33a1.29,1.29,0,0,1-.05.36c-.07.53-.45.8-1.15.8h-2.1c-.66,0-1-.28-1-.83a1.89,1.89,0,0,0-2.15-2q-2.7,0-3.52,4l-.88,4.16c-.06.26-.1.53-.14.78a6.57,6.57,0,0,0,0,.74c0,1.76.82,2.64,2.45,2.64a2.94,2.94,0,0,0,2.1-.8,4.21,4.21,0,0,0,1.13-2.27h-1.87c-.51,0-.77-.24-.77-.72a.76.76,0,0,1,0-.15s0-.13,0-.28l.35-1.65a1.23,1.23,0,0,1,.39-.8,1.59,1.59,0,0,1,.94-.21h4.83c.58,0,.88.22.88.66A3.62,3.62,0,0,1,154,65.67Z"></path><path class="cls-2" d="M161.89,55.65h9.6c.59,0,.88.23.88.69,0,.07,0,.15,0,.22s0,.15,0,.24L172,58.32a1.78,1.78,0,0,1-.38.94,1.24,1.24,0,0,1-.85.23h-6.53L163.49,63h5.79c.58,0,.88.23.88.69a1.49,1.49,0,0,1,0,.21c0,.08,0,.16,0,.25l-.29,1.41a1.79,1.79,0,0,1-.37.94,1.21,1.21,0,0,1-.86.23h-5.86l-.88,4.05h6.74c.59,0,.88.24.88.7a1.48,1.48,0,0,1,0,.21c0,.07,0,.15,0,.24l-.32,1.52a1.73,1.73,0,0,1-.39,1,1.26,1.26,0,0,1-.84.22h-10.1c-.57,0-.85-.23-.85-.69a1.31,1.31,0,0,1,0-.27c0-.12,0-.25.06-.4l3.52-16.61a1.33,1.33,0,0,1,.4-.81A1.71,1.71,0,0,1,161.89,55.65Z"></path><path class="cls-2" d="M176.69,74.63h-2.13c-.57,0-.86-.23-.86-.69a2.16,2.16,0,0,1,0-.29c0-.13,0-.25.07-.38l3.52-16.61a1.33,1.33,0,0,1,.4-.81,1.71,1.71,0,0,1,1-.2h5A6.6,6.6,0,0,1,188.06,57a4.52,4.52,0,0,1,1.56,3.68,4.59,4.59,0,0,1,0,.62c0,.22-.06.47-.09.74l-.08.42a6.18,6.18,0,0,1-3.82,5l2.14,6.19a.93.93,0,0,1,.05.29c0,.48-.34.72-1,.72h-2.48a1.44,1.44,0,0,1-.83-.18,1.73,1.73,0,0,1-.43-.83l-1.73-5.57h-2.08l-1.17,5.57a1.19,1.19,0,0,1-.39.81A1.67,1.67,0,0,1,176.69,74.63Zm4.37-15.27-1.06,5h2.18a2.63,2.63,0,0,0,2.93-2.3l.06-.29c0-.12,0-.23,0-.32a3.44,3.44,0,0,0,0-.35c0-1.19-.71-1.78-2.13-1.78Z"></path></g></g></svg> 