<?xml version="1.0" encoding="utf-8"?>
<!-- Generator: Adobe Illustrator 27.2.0, SVG Export Plug-In . SVG Version: 6.00 Build 0)  -->
<svg version="1.1" id="Layer_1" xmlns="http://www.w3.org/2000/svg" xmlns:xlink="http://www.w3.org/1999/xlink" x="0px" y="0px"
	 viewBox="0 0 78 88" style="enable-background:new 0 0 78 88;" xml:space="preserve">
<style type="text/css">
	.st0{clip-path:url(#SVGID_00000090988012348532192530000011633799959402955922_);fill:#DC4F23;}
	.st1{clip-path:url(#SVGID_00000090988012348532192530000011633799959402955922_);fill:#FFFFFF;}
	.st2{fill:#FFFFFF;}
	.st3{clip-path:url(#SVGID_00000176723983372036495130000010368509311775224762_);fill:#FFFFFF;}
</style>
<g>
	<g>
		<defs>
			<rect id="SVGID_1_" x="0.2" y="1.1" width="77.5" height="86.2"/>
		</defs>
		<clipPath id="SVGID_00000176753823518231703780000009709337067674663100_">
			<use xlink:href="#SVGID_1_"  style="overflow:visible;"/>
		</clipPath>
		<polygon style="clip-path:url(#SVGID_00000176753823518231703780000009709337067674663100_);fill:#DC4F23;" points="55.5,1.1 
			33.2,1.1 22.2,20.3 22.3,20.4 27.7,29.8 27.7,29.8 27.7,29.8 27.7,29.8 33.2,39.4 33.2,39.4 32.4,38.2 32.4,38.2 27.2,30.6 
			26.6,29.8 26.6,29.8 16.7,29.8 11,39.6 22.1,58.9 22.1,58.9 44.4,58.9 55.5,39.6 55.5,39.6 55.6,39.4 55.6,39.4 50,29.8 50,29.8 
			50,29.8 44.5,20.2 44.5,20.2 51.1,29.8 51.1,29.8 61,29.8 61.2,29.8 61.2,29.8 61.2,29.8 66.6,20.4 55.5,1.1 		"/>
		<path style="clip-path:url(#SVGID_00000176753823518231703780000009709337067674663100_);fill:#FFFFFF;" d="M7.2,76.8
			c-1.9-0.6-3.6-1.1-3.6-2.8c0-1.4,1.3-2.1,2.8-2.1c1.3,0,2.8,0.6,3.7,1.7l2-2.2C10.7,69.8,8.6,69,6.6,69c-3.1,0-6,1.9-6,5.4
			c0,3.4,2.8,4.4,5.2,5.2c2,0.6,3.8,1.1,3.8,2.6c0,1.3-1.1,2.1-2.8,2.1c-1.6,0-3.3-0.8-4.4-2.2l-2.2,2.3c1.7,2.1,4.1,3,6.4,3
			c3.2,0,6.1-1.9,6.1-5.5C12.6,78.3,9.7,77.5,7.2,76.8L7.2,76.8z"/>
	</g>
	<polygon class="st2" points="27.4,82.8 24.6,74.2 21.5,74.2 18.7,82.8 15.9,74.2 12.6,74.2 17.3,86.9 20.1,86.9 23,78.4 26,86.9 
		28.8,86.9 33.5,74.2 30.1,74.2 27.4,82.8 	"/>
	<polygon class="st2" points="35.2,86.9 38.3,86.9 38.3,74.2 35.2,74.2 35.2,86.9 	"/>
	<path class="st2" d="M36.7,68.3c-1.2,0-2.1,0.9-2.1,2c0,1.1,0.9,2,2.1,2c1.2,0,2.1-0.9,2.1-2C38.8,69.2,37.9,68.3,36.7,68.3
		L36.7,68.3z"/>
	<path class="st2" d="M47.6,73.9c-1.8,0-3.3,0.8-4.1,2.1v-1.8h-3v12.7h3v-6.8c0-2.4,1.6-3.5,3.1-3.5c1.4,0,2.5,0.9,2.5,2.7v7.7h3
		v-8.2C52.2,75.5,50.2,73.9,47.6,73.9L47.6,73.9z"/>
	<path class="st2" d="M60.8,84.3c-1.2,0-2.1-0.7-2.1-2.1v-5.4h4.4l-1.6-2.7h-2.8V69h-3.1v5.2h-3.5l1.6,2.7h2v5.8
		c0,2.9,2,4.4,4.4,4.4c1.1,0,2.4-0.4,3.5-1.2l-0.8-2.2C62.1,84.1,61.4,84.3,60.8,84.3L60.8,84.3z"/>
	<g>
		<defs>
			<rect id="SVGID_00000067211940159108114370000016953785506733039505_" x="0.2" y="1.1" width="77.5" height="86.2"/>
		</defs>
		<clipPath id="SVGID_00000049906546826978772030000010284106313959821444_">
			<use xlink:href="#SVGID_00000067211940159108114370000016953785506733039505_"  style="overflow:visible;"/>
		</clipPath>
		<path style="clip-path:url(#SVGID_00000049906546826978772030000010284106313959821444_);fill:#FFFFFF;" d="M71.7,84.3
			c-1.2,0-2.1-0.7-2.1-2.1v-5.4H74l-1.6-2.7h-2.8V69h-3.1v5.2h-3.5l1.6,2.7h2v5.8c0,2.9,2,4.4,4.4,4.4c1.2,0,2.4-0.4,3.5-1.2
			l-0.8-2.2C73.1,84.1,72.3,84.3,71.7,84.3L71.7,84.3z"/>
		<path style="clip-path:url(#SVGID_00000049906546826978772030000010284106313959821444_);fill:#FFFFFF;" d="M76.4,76.7
			c-0.6,0-1.1-0.5-1.1-1.2c0-0.7,0.5-1.2,1.1-1.2c0.6,0,1.1,0.5,1.1,1.2C77.5,76.2,77,76.7,76.4,76.7L76.4,76.7z M76.4,74.2
			c-0.8,0-1.3,0.6-1.3,1.4c0,0.8,0.6,1.4,1.3,1.4c0.8,0,1.3-0.6,1.3-1.4C77.7,74.7,77.1,74.2,76.4,74.2L76.4,74.2z"/>
	</g>
	<path class="st2" d="M76.5,75.5h-0.3v-0.4h0.3c0.1,0,0.2,0.1,0.2,0.2C76.7,75.4,76.6,75.5,76.5,75.5L76.5,75.5z M77,75.2
		c0-0.3-0.2-0.5-0.5-0.5h-0.6v1.4h0.3v-0.5h0.3l0.3,0.5h0.4l-0.3-0.5C76.9,75.6,77,75.4,77,75.2L77,75.2z"/>
</g>
</svg>
