<svg width="494" height="156" viewBox="0 0 494 156" fill="none" xmlns="http://www.w3.org/2000/svg">
<path d="M70.79 155.01C67.49 154.83 64.2 154.65 60.91 154.47C57.04 154.27 53.17 154.07 49.3 153.84C49.05 153.83 48.78 153.63 48.55 153.45C40.54 146.8 32.54 140.14 24.54 133.49C21.1 130.62 17.65 127.75 14.21 124.87C13.96 124.66 13.72 124.3 13.6 123.93C11.21 116.74 8.79001 109.56 6.48001 102.31C5.62001 99.61 5.04001 96.75 4.36001 93.94C3.04001 88.48 1.76001 83.01 0.440014 77.55C0.320014 77.05 0.350008 76.66 0.480008 76.19C1.35001 73.24 2.22001 70.29 3.06001 67.32C6.46001 55.37 9.85001 43.43 13.25 31.48C13.35 31.11 13.49 30.75 13.55 30.37C13.7 29.48 14.17 29.05 14.71 28.67C14.9 28.54 15.08 28.37 15.26 28.21C20.84 23.19 26.38 18.08 32.01 13.15C34.33 11.11 36.81 9.43999 39.22 7.59999C42.34 5.23999 45.47 2.89999 48.6 0.569992C48.82 0.399992 49.09 0.309982 49.34 0.309982C63.55 0.269982 77.77 0.23998 91.98 0.22998C92.19 0.22998 92.41 0.309991 92.59 0.459991C98.51 4.88999 104.45 9.27998 110.33 13.81C112.29 15.32 114.1 17.2 115.96 18.93C119.74 22.43 123.53 25.94 127.3 29.46C127.53 29.67 127.74 30.03 127.85 30.39C132.13 45.29 136.4 60.21 140.67 75.12C140.69 75.18 140.69 75.24 140.71 75.29C141.39 76.43 141.08 77.56 140.78 78.78C138.91 86.31 137.14 93.88 135.22 101.4C134.53 104.11 133.55 106.71 132.69 109.34C131.08 114.23 129.45 119.11 127.85 124C127.69 124.48 127.48 124.8 127.16 125.07C116.09 134.28 105.01 143.48 93.95 152.74C93 153.54 92.07 153.94 90.97 153.98C87.73 154.1 84.5 154.3 81.26 154.48C78.13 154.66 75 154.85 71.86 155.03C71.51 155.05 71.17 155.03 70.82 155.03C70.79 155.03 70.79 155.02 70.79 155.01ZM92.02 109.3C96.3 116.05 100.55 122.74 104.81 129.45C104.87 129.37 104.91 129.32 104.95 129.25C106.29 126.66 107.62 124.07 108.95 121.48C109.03 121.33 109.09 121.12 109.1 120.94C109.17 119.77 109.22 118.61 109.28 117.44C109.47 113.85 109.66 110.24 109.85 106.64C109.95 104.89 110.03 103.13 110.12 101.32C109.94 101.37 109.8 101.39 109.66 101.43C105.34 102.8 101.03 104.17 96.71 105.54C96.59 105.58 96.45 105.61 96.35 105.71C94.91 106.89 93.5 108.08 92.02 109.3ZM31.39 101.3C31.49 103.13 31.56 104.85 31.66 106.56C31.91 111.26 32.15 115.98 32.41 120.68C32.43 121.01 32.52 121.38 32.66 121.66C33.9 124.1 35.15 126.53 36.41 128.96C36.5 129.13 36.59 129.29 36.7 129.48C40.98 122.74 45.23 116.04 49.5 109.32C48.02 108.09 46.59 106.9 45.16 105.71C45.06 105.63 44.92 105.6 44.79 105.56C41.59 104.54 38.38 103.51 35.18 102.5C33.92 102.09 32.68 101.71 31.39 101.3ZM26.5 84.06C26.66 83.85 26.77 83.69 26.88 83.54C29.41 79.9 31.94 76.24 34.49 72.63C35.1 71.77 35.56 70.86 35.84 69.73C36.2 68.31 36.62 66.93 37.03 65.47C30.1 62.89 23.21 60.33 16.27 57.75C16.51 60.71 16.74 63.57 17 66.42C17.04 66.88 17.2 67.37 17.4 67.74C19.5 71.55 21.62 75.33 23.73 79.13C24.65 80.75 25.57 82.38 26.5 84.06ZM114.94 84.1C115.05 83.95 115.08 83.91 115.1 83.86C118.16 78.36 121.23 72.87 124.29 67.37C124.38 67.2 124.44 66.99 124.46 66.79C124.57 65.64 124.67 64.47 124.76 63.31C124.92 61.49 125.06 59.66 125.22 57.73C118.27 60.31 111.38 62.87 104.46 65.45C105.02 67.4 105.54 69.29 106.08 71.16C106.13 71.35 106.26 71.52 106.37 71.67C109.13 75.65 111.9 79.62 114.66 83.6C114.75 83.75 114.84 83.91 114.94 84.1ZM103.68 130.31C99.4 123.56 95.18 116.9 90.93 110.21C89.4 111.48 87.89 112.73 86.39 114C86.29 114.1 86.2 114.24 86.12 114.38C83.7 118.57 81.27 122.77 78.85 126.97C78.79 127.07 78.75 127.18 78.69 127.32C78.82 127.37 78.92 127.42 79.02 127.44C84.45 129.06 89.88 130.68 95.32 132.27C95.53 132.33 95.75 132.33 95.96 132.28C97.79 131.83 99.62 131.35 101.45 130.89C102.18 130.7 102.9 130.51 103.68 130.31ZM62.83 127.32C62.77 127.19 62.74 127.13 62.71 127.07C60.25 122.81 57.79 118.55 55.33 114.3C55.26 114.18 55.18 114.05 55.09 113.98C53.6 112.73 52.11 111.49 50.59 110.22C46.35 116.91 42.12 123.58 37.86 130.3C38.01 130.36 38.08 130.4 38.15 130.42C40.38 130.99 42.61 131.56 44.84 132.11C45.32 132.23 45.83 132.38 46.28 132.25C50.89 130.93 55.49 129.55 60.09 128.18C60.97 127.88 61.88 127.61 62.83 127.32ZM90.14 31.02C90.01 30.83 89.92 30.69 89.84 30.57C86.34 25.7 82.84 20.82 79.33 15.95C79.19 15.76 79.01 15.6 78.83 15.51C76.5 14.34 74.16 13.19 71.83 12.02C71.72 11.96 71.6 11.92 71.46 11.88C71.46 20.16 71.46 28.38 71.46 36.65C71.64 36.65 71.8 36.65 71.95 36.65C73.49 36.65 75.05 36.66 76.59 36.64C76.86 36.64 77.14 36.58 77.4 36.47C79.43 35.61 81.45 34.74 83.47 33.88C85.67 32.93 87.87 31.99 90.14 31.02ZM70.05 36.65C70.05 28.35 70.05 20.14 70.05 11.87C69.88 11.94 69.74 12 69.61 12.06C67.35 13.18 65.11 14.3 62.86 15.44C62.57 15.59 62.26 15.84 62.04 16.15C58.65 20.84 55.27 25.55 51.89 30.24C51.72 30.48 51.49 30.62 51.28 30.81C51.53 31.07 51.66 31.13 51.78 31.18C55.65 32.85 59.52 34.5 63.39 36.17C63.77 36.34 64.16 36.61 64.55 36.62C66.37 36.67 68.2 36.65 70.05 36.65ZM124.77 56.06C124.56 55.83 124.43 55.71 124.32 55.57C122.78 53.58 121.26 51.58 119.71 49.62C119.48 49.32 119.18 49.07 118.88 48.93C114.84 47.1 110.79 45.28 106.75 43.45C105.49 42.89 104.23 42.32 102.94 41.75C102.92 42.04 102.9 42.27 102.89 42.51C102.71 47.26 102.53 52.01 102.33 56.76C102.3 57.51 102.38 58.2 102.59 58.89C103 60.25 103.37 61.62 103.76 62.98C103.84 63.25 103.92 63.52 104 63.79C110.91 61.23 117.76 58.67 124.77 56.06ZM37.51 63.8C38.07 61.84 38.61 59.94 39.14 58.04C39.2 57.83 39.18 57.58 39.17 57.34C39.01 53.19 38.86 49.03 38.7 44.87C38.67 43.85 38.61 42.82 38.57 41.78C38.43 41.83 38.35 41.86 38.27 41.9C32.98 44.28 27.68 46.66 22.4 49.05C22.22 49.13 22.04 49.3 21.9 49.49C20.31 51.54 18.72 53.6 17.14 55.66C17.04 55.79 16.95 55.93 16.82 56.12C23.75 58.68 30.61 61.23 37.51 63.8ZM71.47 79.57C71.47 88.46 71.47 97.21 71.47 105.96C77.04 105.96 82.59 105.96 88.21 105.96C82.62 97.14 77.07 88.4 71.47 79.57ZM53.29 105.97C58.93 105.97 64.48 105.97 70.02 105.97C70.02 97.19 70.02 88.44 70.02 79.59C64.42 88.41 58.88 97.15 53.29 105.97ZM71.45 41.87C71.45 52.78 71.45 63.6 71.45 74.56C76.01 67.38 80.5 60.3 85.02 53.17C80.48 49.4 75.99 45.65 71.45 41.87ZM70.07 74.58C70.07 63.59 70.07 52.77 70.07 41.86C65.52 45.65 61.02 49.38 56.48 53.17C61 60.3 65.5 67.38 70.07 74.58ZM89.43 105.18C91.17 99.04 92.88 92.99 94.61 86.92C87.3 84.21 80.05 81.5 72.67 78.75C78.29 87.63 83.83 96.35 89.43 105.18ZM52.07 105.18C57.67 96.36 63.2 87.64 68.74 78.9C68.72 78.86 68.71 78.84 68.7 78.8C61.45 81.5 54.18 84.2 46.89 86.92C48.62 93.01 50.33 99.04 52.07 105.18ZM41.79 65.39C50.81 68.75 59.72 72.06 68.63 75.38C68.65 75.33 68.67 75.3 68.69 75.25C64.23 68.22 59.77 61.18 55.3 54.15C50.81 57.89 46.34 61.61 41.79 65.39ZM86.2 54.14C81.73 61.19 77.27 68.21 72.82 75.24C72.84 75.29 72.86 75.32 72.88 75.37C81.79 72.05 90.7 68.74 99.71 65.38C95.16 61.61 90.7 57.89 86.2 54.14ZM68.07 77.12C68.07 77.08 68.08 77.05 68.08 77C59.16 73.68 50.25 70.37 41.24 67.01C42.98 73.15 44.68 79.15 46.39 85.17C53.66 82.49 60.87 79.81 68.07 77.12ZM73.42 77C73.42 77.04 73.42 77.07 73.41 77.12C80.63 79.81 87.85 82.5 95.09 85.19C96.81 79.14 98.51 73.14 100.24 67.03C91.23 70.37 82.33 73.69 73.42 77ZM128.94 61.95C127.89 63.84 126.87 65.66 125.86 67.5C125.76 67.68 125.71 67.93 125.69 68.15C125.47 70.69 125.26 73.23 125.06 75.77C124.76 79.41 124.45 83.05 124.15 86.7C123.94 89.21 123.73 91.73 123.52 94.32C123.64 94.21 123.73 94.15 123.81 94.07C126.89 90.73 129.98 87.38 133.05 84.02C133.16 83.89 133.25 83.59 133.24 83.38C133.2 81.98 133.12 80.57 133.06 79.17C132.87 75.23 132.68 71.3 132.47 67.36C132.46 67.16 132.43 66.91 132.33 66.76C131.22 65.17 130.1 63.6 128.94 61.95ZM17.99 94.38C17.89 93.18 17.81 92.12 17.72 91.06C17.11 83.8 16.5 76.54 15.92 69.27C15.83 68.21 15.6 67.32 15.1 66.48C14.28 65.15 13.55 63.72 12.77 62.34C12.7 62.22 12.63 62.11 12.54 61.98C11.4 63.6 10.28 65.18 9.18 66.78C9.09 66.9 9.06001 67.14 9.05001 67.32C8.78001 72.68 8.52001 78.03 8.28001 83.4C8.27001 83.64 8.4 83.96 8.54 84.11C10.58 86.35 12.64 88.57 14.68 90.8C15.76 91.96 16.83 93.13 17.99 94.38ZM110.08 128.39C111.87 127.83 113.59 127.31 115.32 126.75C115.48 126.7 115.62 126.51 115.73 126.36C118.65 122.28 121.54 118.18 124.47 114.11C124.73 113.75 124.77 113.43 124.7 112.97C124.17 109.83 123.67 106.67 123.16 103.52C122.9 101.93 122.64 100.33 122.36 98.65C122.27 98.79 122.23 98.86 122.19 98.95C118.32 106.46 114.45 113.97 110.58 121.48C110.51 121.62 110.43 121.79 110.42 121.96C110.3 124.06 110.19 126.18 110.08 128.39ZM19.17 98.66C19.13 98.83 19.1 98.93 19.08 99.04C18.32 103.78 17.54 108.51 16.79 113.25C16.76 113.48 16.86 113.82 16.98 114C19.9 118.13 22.83 122.25 25.76 126.35C25.92 126.58 26.15 126.75 26.38 126.83C27.27 127.14 28.15 127.39 29.04 127.66C29.82 127.9 30.6 128.14 31.42 128.37C31.31 126.3 31.21 124.32 31.09 122.36C31.06 121.99 30.98 121.58 30.82 121.28C27.05 113.92 23.25 106.57 19.47 99.22C19.39 99.05 19.29 98.89 19.17 98.66ZM104.85 27.7C104.82 27.77 104.78 27.84 104.75 27.9C104.85 27.96 104.95 28 105.02 28.09C109.94 34.46 114.86 40.84 119.78 47.21C119.94 47.41 120.15 47.58 120.37 47.67C121.97 48.41 123.57 49.12 125.18 49.85C125.31 49.91 125.44 49.95 125.6 50C125.62 49.74 125.64 49.55 125.65 49.35C125.72 47.71 125.8 46.06 125.84 44.42C125.85 44.09 125.76 43.67 125.61 43.41C123.22 39.11 120.79 34.85 118.4 30.53C118.02 29.84 117.6 29.59 117.01 29.51C113.65 29.03 110.29 28.51 106.93 28.01C106.24 27.89 105.54 27.8 104.85 27.7ZM15.89 50.01C16.09 49.93 16.25 49.88 16.38 49.81C17.94 49.11 19.51 48.42 21.07 47.69C21.33 47.57 21.6 47.36 21.8 47.09C26.69 40.78 31.55 34.46 36.43 28.14C36.52 28.02 36.59 27.89 36.71 27.74C36.53 27.74 36.4 27.73 36.27 27.74C32.15 28.36 28.03 28.98 23.91 29.62C23.74 29.64 23.53 29.81 23.42 30C20.88 34.5 18.34 39 15.82 43.51C15.72 43.69 15.65 43.97 15.66 44.2C15.69 45.31 15.74 46.41 15.78 47.52C15.8 48.35 15.85 49.15 15.89 50.01ZM76.33 9.04999C76.29 9.12999 76.25 9.22998 76.21 9.30998C77.34 10.79 78.47 12.26 79.61 13.73C79.82 13.99 80.06 14.23 80.32 14.36C87.17 17.79 94.04 21.19 100.9 24.61C101.03 24.67 101.16 24.72 101.35 24.8C101.28 24.61 101.25 24.5 101.21 24.41C99.44 20.15 97.67 15.88 95.88 11.61C95.78 11.37 95.52 11.17 95.31 11.11C90.77 9.71999 86.24 8.34998 81.7 6.97998C81.54 6.92998 81.34 6.86999 81.19 6.93999C79.56 7.61999 77.95 8.32999 76.33 9.04999ZM40.13 24.8C40.32 24.7 40.41 24.68 40.49 24.63C47.43 21.18 54.38 17.73 61.31 14.26C61.49 14.16 61.67 14.01 61.8 13.82C62.85 12.38 63.89 10.92 64.94 9.45999C65.03 9.33999 65.1 9.20998 65.21 9.03998C63.54 8.30998 61.92 7.59998 60.3 6.89998C60.16 6.83998 59.98 6.87998 59.83 6.91998C55.27 8.29998 50.7 9.67998 46.14 11.06C45.86 11.14 45.7 11.32 45.56 11.67C43.84 15.84 42.11 20 40.37 24.17C40.31 24.34 40.25 24.51 40.13 24.8ZM72.91 139.96C73.08 140.08 73.14 140.13 73.2 140.17C76.84 142.43 80.48 144.7 84.12 146.95C84.3 147.07 84.57 147.07 84.77 146.99C89.18 145.05 93.59 143.1 97.99 141.12C98.21 141.02 98.42 140.8 98.56 140.56C99.36 139.2 100.13 137.82 100.91 136.44C101.01 136.29 101.09 136.12 101.21 135.89C99.66 135.43 98.16 135.05 96.7 134.53C95.85 134.23 95.04 134.28 94.18 134.51C88.51 135.99 82.83 137.41 77.15 138.85C75.79 139.23 74.4 139.58 72.91 139.96ZM68.6 139.99C68.37 139.92 68.26 139.87 68.15 139.85C61.16 138.08 54.18 136.3 47.2 134.51C46.38 134.3 45.62 134.28 44.81 134.57C43.69 134.96 42.55 135.25 41.43 135.58C41.06 135.69 40.69 135.82 40.28 135.95C41.19 137.56 42.06 139.09 42.94 140.62C43.08 140.86 43.3 141.07 43.52 141.17C47.89 143.13 52.28 145.06 56.65 147.01C56.95 147.14 57.19 147.13 57.47 146.95C59.75 145.51 62.04 144.09 64.32 142.68C65.71 141.78 67.11 140.92 68.6 139.99ZM45.94 39.4C45.86 39.66 45.8 39.83 45.75 40.01C44.25 45.28 42.78 50.57 41.25 55.82C40.77 57.45 40.44 59.05 40.63 60.82C40.73 61.77 40.71 62.76 40.74 63.72C40.74 63.83 40.76 63.95 40.78 64.15C45.35 60.34 49.87 56.58 54.43 52.78C51.61 48.32 48.79 43.88 45.94 39.4ZM100.74 64.17C100.81 62.17 100.89 60.3 100.95 58.42C100.96 58.25 100.89 58.07 100.85 57.91C99.15 51.91 97.45 45.92 95.75 39.94C95.71 39.79 95.65 39.63 95.57 39.42C92.72 43.91 89.91 48.34 87.08 52.8C91.62 56.57 96.13 60.33 100.74 64.17ZM96.37 85.66C100.96 87.37 105.52 89.06 110.14 90.79C110.06 90.49 110.02 90.29 109.96 90.09C108.59 85.26 107.16 80.46 105.87 75.58C105.22 73.1 104.33 70.93 102.89 69.19C102.43 68.64 102.04 67.98 101.58 67.32C99.83 73.47 98.11 79.53 96.37 85.66ZM31.34 90.79C35.98 89.06 40.53 87.36 45.13 85.66C43.39 79.53 41.67 73.46 39.92 67.32C38.83 68.89 37.79 70.39 36.74 71.9C36.64 72.04 36.6 72.25 36.55 72.42C35.51 76.09 34.47 79.76 33.43 83.43C32.74 85.85 32.06 88.27 31.34 90.79ZM109.58 92.48C104.98 90.77 100.45 89.09 95.89 87.39C94.17 93.46 92.46 99.48 90.73 105.59C90.96 105.54 91.08 105.52 91.2 105.47C92.28 105.14 93.36 104.76 94.45 104.46C95.31 104.22 96.08 103.77 96.84 103.14C100.93 99.7 105.03 96.31 109.14 92.89C109.25 92.79 109.38 92.66 109.58 92.48ZM31.92 92.5C32.14 92.69 32.28 92.81 32.41 92.93C36.51 96.35 40.61 99.74 44.7 103.18C45.45 103.81 46.22 104.28 47.09 104.49C47.7 104.64 48.3 104.87 48.9 105.06C49.5 105.25 50.1 105.43 50.77 105.63C50.7 105.36 50.67 105.19 50.62 105.02C49.01 99.32 47.38 93.63 45.78 87.92C45.67 87.53 45.55 87.42 45.25 87.54C42.39 88.62 39.51 89.68 36.64 90.75C35.08 91.32 33.54 91.89 31.92 92.5ZM71.47 107.79C71.47 113.27 71.47 118.71 71.47 124.2C71.64 124.07 71.78 123.97 71.91 123.86C75.75 120.67 79.56 117.41 83.43 114.3C84.94 113.09 86.26 111.68 87.23 109.67C87.53 109.04 87.92 108.47 88.31 107.79C82.65 107.79 77.08 107.79 71.47 107.79ZM53.18 107.79C54.05 109.29 54.85 110.69 55.66 112.09C55.79 112.32 55.95 112.52 56.14 112.67C60.65 116.43 65.17 120.19 69.69 123.95C69.79 124.03 69.91 124.1 70.02 124.19C70.02 118.69 70.02 113.25 70.02 107.8C64.42 107.79 58.85 107.79 53.18 107.79ZM85.88 51.81C88.68 47.39 91.46 43.01 94.32 38.5C94.03 38.5 93.86 38.5 93.7 38.5C88.56 38.5 83.43 38.51 78.3 38.49C77.41 38.49 76.56 38.63 75.71 39.04C74.62 39.56 73.5 40 72.31 40.52C76.86 44.3 81.34 48.03 85.88 51.81ZM47.18 38.5C50.05 43.02 52.83 47.4 55.62 51.81C60.14 48.05 64.63 44.31 69.17 40.53C69.01 40.45 68.9 40.39 68.8 40.34C67.51 39.78 66.21 39.22 64.91 38.69C64.65 38.58 64.37 38.52 64.1 38.52C58.65 38.51 53.2 38.51 47.74 38.51C47.61 38.5 47.45 38.5 47.18 38.5ZM122.17 94.41C122.84 86.45 123.49 78.63 124.14 70.82C124.11 70.81 124.07 70.8 124.04 70.77C121.33 75.63 118.62 80.48 115.9 85.37C117.97 88.37 120.03 91.33 122.17 94.41ZM19.34 94.41C21.47 91.35 23.53 88.39 25.61 85.39C22.89 80.5 20.17 75.63 17.46 70.76C17.43 70.78 17.4 70.8 17.36 70.82C18.02 78.63 18.67 86.44 19.34 94.41ZM20.36 97.8C23.87 104.62 27.32 111.31 30.77 118.01C30.8 117.99 30.84 117.97 30.87 117.95C30.57 112.25 30.27 106.55 29.97 100.85C26.77 99.84 23.62 98.84 20.36 97.8ZM110.63 117.96C110.66 117.97 110.71 117.98 110.74 118C114.18 111.31 117.63 104.62 121.14 97.81C117.88 98.85 114.72 99.85 111.53 100.86C111.23 106.56 110.93 112.27 110.63 117.96ZM38.07 28.51C33.53 34.4 29.07 40.19 24.6 45.97C24.72 46.04 24.79 46.03 24.85 46.01C29.29 44.01 33.74 42 38.18 40.01C38.45 39.89 38.5 39.71 38.48 39.37C38.37 36.63 38.27 33.91 38.17 31.17C38.15 30.32 38.11 29.48 38.07 28.51ZM116.83 46.09C116.85 46.05 116.87 46.01 116.89 45.97C112.43 40.19 107.96 34.4 103.44 28.53C103.41 28.83 103.4 28.98 103.39 29.14C103.26 32.51 103.15 35.88 103 39.23C102.98 39.73 103.1 39.91 103.43 40.05C106.74 41.53 110.04 43.01 113.35 44.5C114.51 45.03 115.67 45.56 116.83 46.09ZM59.3 17.34C59.28 17.29 59.27 17.26 59.24 17.21C53.09 20.27 46.94 23.33 40.69 26.43C43.71 27.73 46.6 28.95 49.49 30.22C49.81 30.36 50 30.3 50.24 29.97C52.28 27.1 54.34 24.26 56.38 21.4C57.36 20.06 58.33 18.7 59.3 17.34ZM100.68 26.49C100.68 26.45 100.68 26.41 100.68 26.37C94.54 23.31 88.39 20.26 82.24 17.2C82.21 17.26 82.17 17.33 82.14 17.39C82.38 17.69 82.64 17.97 82.88 18.29C85.69 22.19 88.5 26.12 91.32 30.01C91.43 30.16 91.68 30.31 91.82 30.25C94.79 29.03 97.73 27.76 100.68 26.49ZM72.31 138.31C78.97 136.61 85.5 134.95 92.02 133.29C91.92 133.16 91.82 133.11 91.72 133.09C87.16 131.73 82.61 130.39 78.05 129.02C77.78 128.94 77.63 129.06 77.47 129.33C76.19 131.56 74.91 133.78 73.63 136C73.22 136.73 72.8 137.45 72.31 138.31ZM49.47 133.18C49.47 133.22 49.47 133.25 49.47 133.29C56 134.96 62.54 136.62 69.15 138.3C69.06 138.12 69.04 138.05 69.01 137.99C67.34 135.1 65.67 132.22 64.01 129.31C63.8 128.95 63.61 128.96 63.34 129.05C60.18 129.99 57.02 130.93 53.86 131.86C52.4 132.3 50.94 132.74 49.47 133.18ZM44.02 11.77C43.89 11.78 43.81 11.78 43.75 11.81C40.72 12.73 37.68 13.62 34.67 14.6C34.01 14.81 33.4 15.36 32.72 15.78C34.72 18.92 36.62 21.91 38.56 24.97C40.39 20.53 42.19 16.19 44.02 11.77ZM97.46 11.74C99.32 16.2 101.12 20.56 102.95 24.98C104.9 21.9 106.8 18.91 108.78 15.79C108.13 15.37 107.57 14.85 106.97 14.65C104.83 13.92 102.67 13.31 100.51 12.65C99.52 12.34 98.53 12.06 97.46 11.74ZM123.56 97.69C124.35 102.51 125.12 107.25 125.92 112.18C126.1 111.87 126.19 111.69 126.3 111.54C128.19 108.87 130.08 106.18 132 103.55C132.49 102.88 132.66 102.05 132.93 101.18C129.8 100.01 126.71 98.85 123.56 97.69ZM15.44 112.12C15.5 112.06 15.56 112 15.62 111.94C16.39 107.21 17.16 102.48 17.95 97.68C14.77 98.86 11.69 100.01 8.60002 101.16C8.84002 102.16 9.12001 103 9.65001 103.73C11.53 106.3 13.37 108.93 15.23 111.55C15.32 111.71 15.37 111.93 15.44 112.12ZM133.37 85.91C130.25 89.3 127.19 92.61 124.09 95.98C127.25 97.16 130.33 98.3 133.39 99.44C133.97 97.75 133.97 97.75 133.86 96C133.81 95.17 133.78 94.35 133.74 93.51C133.62 91.03 133.5 88.54 133.37 85.91ZM8.14001 85.93C8.12001 86.14 8.11001 86.24 8.11001 86.33C7.95001 89.73 7.80002 93.13 7.60002 96.53C7.54002 97.6 7.80001 98.49 8.11001 99.46C11.2 98.31 14.27 97.16 17.42 95.98C14.3 92.6 11.26 89.31 8.14001 85.93ZM116.79 27.68C115.03 24.55 113.35 21.59 111.69 18.6C111.2 17.72 110.48 17.39 109.86 16.79C107.95 19.8 106.08 22.75 104.15 25.8C108.37 26.44 112.52 27.05 116.79 27.68ZM37.37 25.8C35.43 22.73 33.54 19.77 31.62 16.73C31.04 17.3 30.38 17.72 29.97 18.41C28.26 21.3 26.63 24.28 24.97 27.23C24.91 27.35 24.86 27.47 24.76 27.68C28.98 27.05 33.12 26.44 37.37 25.8ZM82.61 147.97C78.84 145.61 75.17 143.33 71.47 141.02C71.47 144.76 71.47 148.44 71.47 152.07C72.13 152.07 72.81 152.27 73.39 152.03C76.44 150.76 79.46 149.38 82.61 147.97ZM70.04 141.02C66.32 143.34 62.65 145.63 58.91 147.97C59.12 148.07 59.24 148.12 59.36 148.18C62.13 149.41 64.9 150.62 67.67 151.88C68.46 152.24 69.23 152.09 70.04 152.13C70.04 148.43 70.04 144.76 70.04 141.02ZM139.53 76.99C137.66 74.34 135.82 71.73 133.92 69.03C134.14 73.56 134.35 77.91 134.57 82.38C136.27 80.53 137.87 78.78 139.53 76.99ZM7.57002 69.2C7.54002 69.19 7.51001 69.16 7.48001 69.15C5.65001 71.74 3.82001 74.35 1.97001 76.98C3.64001 78.79 5.25 80.54 6.93 82.36C7.15 77.89 7.36002 73.55 7.57002 69.2ZM15.49 41.03C17.6 37.28 19.63 33.67 21.74 29.92C19.42 30.27 17.25 30.6 15.04 30.93C15.2 34.3 15.34 37.58 15.49 41.03ZM126.45 30.93C124.23 30.6 122.06 30.28 119.75 29.93C121.87 33.68 123.9 37.3 126 41.04C126.16 37.56 126.31 34.29 126.45 30.93ZM23.45 125.93C23.47 125.89 23.48 125.85 23.49 125.81C21.13 122.49 18.77 119.18 16.36 115.79C15.94 118.37 15.54 120.84 15.13 123.36C17.92 124.22 20.69 125.07 23.45 125.93ZM117.99 125.82C118.01 125.86 118.02 125.89 118.04 125.93C120.81 125.07 123.58 124.22 126.36 123.35C125.94 120.81 125.54 118.35 125.13 115.78C122.71 119.21 120.35 122.51 117.99 125.82ZM86.23 148.3C88.15 149.5 89.95 150.61 91.75 151.75C92.03 151.93 92.17 151.88 92.36 151.55C93.77 149.05 95.18 146.57 96.59 144.09C96.66 143.97 96.71 143.84 96.83 143.6C93.28 145.16 89.81 146.7 86.23 148.3ZM55.27 148.28C51.69 146.69 48.22 145.15 44.75 143.61C46.23 146.37 47.74 149.05 49.27 151.7C49.32 151.8 49.51 151.84 49.59 151.8C51.46 150.68 53.31 149.51 55.27 148.28ZM57.54 5.76999C57.43 5.66999 57.38 5.62999 57.33 5.59999C54.81 4.49999 52.3 3.40999 49.79 2.29999C49.55 2.18999 49.45 2.30998 49.35 2.55998C48.84 3.81998 48.31 5.06999 47.79 6.32999C47.43 7.19999 47.07 8.07998 46.66 9.05998C50.31 7.95998 53.89 6.87999 57.54 5.76999ZM83.92 5.75998C87.61 6.87998 91.18 7.95999 94.83 9.06999C94.73 8.80999 94.67 8.64998 94.61 8.49998C93.81 6.56998 93 4.65999 92.22 2.71999C92.06 2.31999 91.92 2.21999 91.59 2.35999C89.2 3.41999 86.81 4.44998 84.42 5.49998C84.27 5.55998 84.14 5.63998 83.92 5.75998ZM27.3 85.5C28.19 87.11 29.07 88.68 29.99 90.32C31.38 85.44 32.72 80.69 34.07 75.94C34.04 75.92 34.02 75.89 33.99 75.87C31.77 79.07 29.54 82.27 27.3 85.5ZM114.2 85.5C111.95 82.26 109.73 79.07 107.51 75.87C107.48 75.89 107.46 75.92 107.43 75.94C108.78 80.7 110.13 85.45 111.51 90.31C112.43 88.65 113.3 87.1 114.2 85.5ZM44.5 39.17C44.4 39.16 44.36 39.15 44.33 39.16C42.93 39.79 41.54 40.42 40.14 41.04C39.89 41.15 39.91 41.37 39.92 41.64C40.02 44.41 40.13 47.17 40.23 49.95C40.27 51.1 40.33 52.26 40.38 53.41C40.41 53.41 40.44 53.42 40.47 53.42C41.8 48.69 43.14 43.96 44.5 39.17ZM101.04 53.42C101.07 53.42 101.1 53.41 101.13 53.41C101.15 53.22 101.16 53.02 101.17 52.83C101.32 49.07 101.46 45.32 101.6 41.56C101.62 41.21 101.5 41.12 101.3 41.04C99.97 40.46 98.64 39.85 97.32 39.25C97.23 39.21 97.14 39.2 97 39.17C98.36 43.96 99.7 48.68 101.04 53.42ZM58.41 116.73C58.46 116.9 58.47 116.94 58.49 116.97C60.34 120.17 62.19 123.37 64.03 126.58C64.19 126.87 64.36 126.89 64.59 126.82C65.58 126.51 66.56 126.23 67.55 125.93C67.98 125.8 68.42 125.67 68.96 125.51C65.39 122.54 61.93 119.67 58.41 116.73ZM83.08 116.87C83.06 116.85 83.05 116.82 83.03 116.79C79.57 119.67 76.11 122.55 72.63 125.44C72.68 125.5 72.7 125.54 72.73 125.55C74.17 125.98 75.6 126.43 77.04 126.82C77.18 126.86 77.41 126.67 77.52 126.49C79.19 123.65 80.83 120.78 82.48 117.92C82.67 117.57 82.88 117.22 83.08 116.87ZM31.28 99.45C34.63 100.51 37.94 101.56 41.25 102.62C41.26 102.57 41.28 102.54 41.28 102.49C37.87 99.66 34.46 96.81 30.98 93.92C31.09 95.84 31.19 97.61 31.28 99.45ZM110.51 93.91C107.01 96.81 103.62 99.65 100.22 102.48C100.24 102.53 100.25 102.56 100.26 102.61C103.57 101.56 106.89 100.5 110.21 99.46C110.32 97.63 110.4 95.85 110.51 93.91ZM60.07 36.64C59.9 36.54 59.84 36.51 59.78 36.47C56.73 35.16 53.66 33.84 50.6 32.55C50.46 32.49 50.21 32.62 50.1 32.78C49.24 33.93 48.41 35.11 47.57 36.29C47.51 36.37 47.46 36.49 47.38 36.64C51.6 36.64 55.77 36.64 60.07 36.64ZM94.08 36.64C94.11 36.57 94.16 36.5 94.19 36.44C93.22 35.17 92.26 33.88 91.27 32.63C91.18 32.52 90.95 32.53 90.81 32.59C88.51 33.57 86.21 34.55 83.9 35.54C83.11 35.87 82.32 36.22 81.53 36.55C81.54 36.57 81.54 36.61 81.55 36.63C85.73 36.64 89.91 36.64 94.08 36.64ZM102.07 29.24C102.04 29.23 102.01 29.22 101.97 29.2C100.31 31.82 98.65 34.45 96.95 37.13C98.56 37.86 100.09 38.55 101.68 39.26C101.81 35.86 101.94 32.55 102.07 29.24ZM39.52 29.2C39.49 29.22 39.46 29.24 39.43 29.26C39.56 32.57 39.68 35.88 39.81 39.27C41.42 38.54 42.95 37.85 44.54 37.14C42.84 34.43 41.18 31.82 39.52 29.2ZM71.46 136.99C73.13 134.11 74.71 131.35 76.35 128.52C74.68 128.02 73.09 127.56 71.46 127.07C71.46 130.37 71.46 133.6 71.46 136.99ZM70.04 136.96C70.04 133.58 70.04 130.34 70.04 127.06C68.41 127.55 66.82 128.02 65.16 128.51C66.79 131.36 68.38 134.11 70.04 136.96ZM48.91 31.82C46.15 30.64 43.46 29.49 40.78 28.33C40.76 28.35 40.75 28.39 40.74 28.41C42.39 31.02 44.05 33.61 45.63 36.11C46.72 34.67 47.79 33.28 48.91 31.82ZM92.61 31.8C93.72 33.26 94.79 34.68 95.87 36.12C97.47 33.61 99.12 31.01 100.76 28.42C100.74 28.4 100.73 28.36 100.72 28.34C98.04 29.48 95.35 30.64 92.61 31.8ZM115.1 86.81C114.2 88.43 113.32 90 112.41 91.64C115.12 92.65 117.77 93.64 120.42 94.63C120.44 94.59 120.45 94.56 120.46 94.53C118.7 91.96 116.92 89.4 115.1 86.81ZM29.09 91.64C28.17 89.99 27.29 88.41 26.39 86.81C24.57 89.43 22.8 91.99 21.03 94.53C21.05 94.57 21.06 94.6 21.07 94.64C23.73 93.64 26.37 92.65 29.09 91.64ZM119.82 96.4C119.82 96.36 119.82 96.33 119.82 96.29C117.21 95.31 114.59 94.35 111.93 93.36C111.83 95.29 111.73 97.11 111.64 99C114.4 98.11 117.11 97.26 119.82 96.4ZM29.87 98.99C29.77 97.06 29.67 95.24 29.57 93.35C26.9 94.34 24.29 95.31 21.69 96.28C21.69 96.32 21.69 96.35 21.69 96.4C24.4 97.26 27.1 98.13 29.87 98.99ZM138.91 80.07C138.89 80.03 138.87 80.01 138.85 79.97C137.5 81.43 136.15 82.89 134.82 84.36C134.72 84.47 134.69 84.79 134.7 84.99C134.79 87.06 134.9 89.14 135 91.22C135.03 91.86 135.06 92.52 135.1 93.16C135.13 93.17 135.16 93.17 135.2 93.18C136.43 88.82 137.67 84.44 138.91 80.07ZM6.35002 93.3C6.39002 93.09 6.42001 93.01 6.42001 92.94C6.55001 90.24 6.69001 87.52 6.80001 84.82C6.81001 84.62 6.68001 84.34 6.56001 84.21C5.31001 82.83 4.05001 81.47 2.79001 80.1C2.75001 80.05 2.69001 80.03 2.56001 79.95C3.83001 84.45 5.07002 88.82 6.35002 93.3ZM131.12 107.54C131.09 107.53 131.07 107.5 131.04 107.49C129.76 109.29 128.52 111.16 127.19 112.86C126.44 113.81 126.22 114.69 126.53 116.03C126.88 117.55 127.07 119.14 127.35 120.87C128.63 116.31 129.87 111.92 131.12 107.54ZM14.15 120.81C14.21 120.55 14.25 120.39 14.27 120.25C14.57 118.39 14.86 116.54 15.18 114.69C15.24 114.32 15.18 114.11 15 113.86C13.59 111.88 12.17 109.9 10.76 107.91C10.67 107.79 10.59 107.7 10.49 107.58C10.46 107.6 10.44 107.63 10.41 107.65C11.65 112 12.88 116.35 14.15 120.81ZM47.28 3.89998C47.26 3.87998 47.24 3.84999 47.22 3.82999C44.1 6.43999 40.96 9.02998 37.84 11.64C40.13 11.06 42.39 10.38 44.63 9.67998C44.79 9.62998 44.98 9.41998 45.07 9.19998C45.69 7.76998 46.28 6.31998 46.87 4.86998C47.02 4.52998 47.15 4.20998 47.28 3.89998ZM94.29 3.82999C94.27 3.84999 94.25 3.86998 94.23 3.88998C94.29 4.03998 94.34 4.19998 94.4 4.33998C95.06 5.91998 95.72 7.50999 96.36 9.09999C96.51 9.46999 96.7 9.63999 96.98 9.71999C98.15 10.07 99.32 10.42 100.49 10.78C101.53 11.09 102.57 11.4 103.62 11.71C103.63 11.67 103.64 11.65 103.65 11.61C100.53 9.02999 97.4 6.43999 94.29 3.82999ZM124.09 28.78C124.1 28.74 124.11 28.7 124.11 28.66C121 26.08 117.9 23.49 114.79 20.9C116 23.24 117.25 25.49 118.52 27.72C118.6 27.85 118.75 27.95 118.88 27.97C120.62 28.26 122.36 28.52 124.09 28.78ZM26.76 21.02C26.73 20.98 26.71 20.95 26.69 20.92C23.58 23.5 20.48 26.1 17.36 28.68C19.13 28.53 20.87 28.26 22.6 27.99C22.73 27.97 22.89 27.87 22.96 27.74C24.25 25.49 25.5 23.26 26.76 21.02ZM10.07 54.57C10.96 56.18 11.81 57.7 12.58 59.07C13.3 58.18 14.01 57.28 14.72 56.39C14.76 56.33 14.81 56.21 14.8 56.13C14.76 54.95 14.71 53.77 14.66 52.51C13.1 53.2 11.61 53.87 10.07 54.57ZM128.93 59.07C129.7 57.69 130.55 56.15 131.44 54.57C129.89 53.87 128.39 53.2 126.85 52.51C126.8 53.77 126.74 54.91 126.71 56.07C126.71 56.18 126.74 56.32 126.8 56.39C127.5 57.29 128.21 58.17 128.93 59.07ZM73.84 8.26999C72.76 6.83999 71.72 5.47998 70.78 4.24998C69.79 5.53998 68.76 6.87998 67.68 8.28998C68.71 8.73998 69.68 9.16998 70.66 9.58998C70.74 9.62998 70.83 9.58999 70.91 9.56999C71.85 9.12999 72.8 8.71999 73.84 8.26999ZM108.58 130.69C107.5 131.02 106.47 131.33 105.45 131.65C105.35 131.69 105.23 131.77 105.16 131.89C104.63 132.81 104.11 133.72 103.55 134.72C105.16 135.2 106.72 135.66 108.3 136.14C108.39 134.3 108.48 132.55 108.58 130.69ZM37.96 134.73C37.39 133.72 36.88 132.81 36.35 131.92C36.29 131.81 36.19 131.72 36.11 131.69C35.06 131.36 34.01 131.04 32.92 130.7C33.02 132.54 33.11 134.32 33.21 136.14C34.8 135.67 36.34 135.2 37.96 134.73ZM52.46 151.99C52.46 152.03 52.47 152.07 52.47 152.11C56.18 152.11 59.91 152.11 63.69 152.11C63.6 152.03 63.58 151.98 63.54 151.97C61.46 151.04 59.37 150.11 57.28 149.2C57.18 149.15 57.05 149.15 56.95 149.21C55.44 150.13 53.95 151.06 52.46 151.99ZM89.04 152.1C89.04 152.07 89.05 152.03 89.05 151.98C87.56 151.05 86.07 150.11 84.56 149.19C84.43 149.11 84.22 149.17 84.07 149.24C82.56 149.89 81.05 150.57 79.54 151.25C78.98 151.5 78.43 151.75 77.87 152C77.88 152.04 77.88 152.07 77.89 152.09C81.6 152.1 85.32 152.1 89.04 152.1ZM3.40001 72.36C3.50001 72.28 3.55002 72.25 3.57002 72.22C4.90002 70.34 6.23001 68.46 7.54001 66.57C7.66001 66.39 7.72001 66.08 7.73001 65.82C7.81001 64.62 7.86002 63.4 7.91002 62.2C7.95002 61.24 7.99001 60.26 8.03001 59.3C8.00001 59.29 7.97 59.29 7.93 59.28C6.44 63.6 4.94001 67.92 3.40001 72.36ZM137.99 72.3C138.02 72.28 138.04 72.26 138.06 72.24C136.55 67.91 135.05 63.57 133.54 59.24C133.55 61.54 133.65 63.8 133.77 66.05C133.78 66.22 133.84 66.41 133.92 66.53C135.28 68.45 136.64 70.38 137.99 72.3ZM127.69 35.62C127.66 35.62 127.63 35.62 127.6 35.63C127.49 38.07 127.37 40.52 127.28 42.96C127.27 43.16 127.37 43.41 127.46 43.59C128.46 45.39 129.46 47.17 130.47 48.96C130.52 49.06 130.57 49.15 130.63 49.25C130.66 49.23 130.67 49.2 130.7 49.17C129.7 44.66 128.69 40.14 127.69 35.62ZM13.9 35.65C13.87 35.64 13.84 35.63 13.81 35.61C12.8 40.13 11.8 44.66 10.78 49.23C10.85 49.19 10.88 49.18 10.89 49.16C11.97 47.26 13.05 45.34 14.12 43.42C14.19 43.29 14.22 43.09 14.22 42.93C14.13 40.52 14.02 38.08 13.9 35.65ZM104.7 140.18C104.57 140.19 104.53 140.18 104.48 140.19C102.74 140.96 100.99 141.73 99.26 142.52C99.11 142.59 98.97 142.77 98.87 142.95C97.85 144.74 96.82 146.53 95.8 148.34C95.73 148.47 95.67 148.6 95.6 148.73C95.62 148.75 95.63 148.77 95.65 148.79C98.65 145.93 101.65 143.08 104.7 140.18ZM45.85 148.78C45.87 148.76 45.88 148.72 45.91 148.7C45.2 147.44 44.42 146.25 43.78 144.92C42.96 143.18 41.9 142.05 40.4 141.71C40.17 141.66 39.97 141.52 39.74 141.41C38.81 141.01 37.88 140.59 36.95 140.18C36.93 140.22 36.92 140.25 36.91 140.3C39.89 143.12 42.87 145.95 45.85 148.78ZM122.22 126.61C122.22 126.57 122.21 126.55 122.21 126.51C122.17 126.51 122.12 126.5 122.08 126.51C120.21 127.09 118.34 127.67 116.47 128.26C116.29 128.32 116.11 128.49 115.97 128.66C115.01 129.99 114.05 131.35 113.09 132.7C112.92 132.94 112.71 133.14 112.51 133.35C112.55 133.41 112.6 133.48 112.63 133.54C115.83 131.24 119.03 128.93 122.22 126.61ZM28.85 133.55C28.88 133.51 28.89 133.48 28.92 133.44C27.74 131.79 26.56 130.12 25.38 128.48C25.28 128.35 25.13 128.3 25 128.25C23.73 127.86 22.47 127.46 21.2 127.07C20.57 126.88 19.93 126.68 19.3 126.49C19.29 126.53 19.28 126.57 19.27 126.61C22.47 128.92 25.66 131.24 28.85 133.55ZM86.93 2.52998C86.93 2.48998 86.93 2.45999 86.93 2.40999C83.27 2.67999 79.61 2.94999 75.95 3.21999C76.05 3.33999 76.16 3.39998 76.27 3.41998C77.48 3.78998 78.71 4.06998 79.9 4.53998C80.89 4.91998 81.79 4.85998 82.75 4.36998C84.12 3.69998 85.53 3.14998 86.93 2.52998ZM65.58 3.32999C65.58 3.28999 65.57 3.26998 65.57 3.22998C61.91 2.95998 58.25 2.68999 54.45 2.40999C54.61 2.52999 54.66 2.57999 54.71 2.59999C56.45 3.35999 58.2 4.11998 59.94 4.86998C60.08 4.92998 60.25 4.92999 60.4 4.87999C61.42 4.57999 62.43 4.27998 63.45 3.97998C64.15 3.76998 64.86 3.54999 65.58 3.32999ZM129.69 60.62C130.58 61.73 131.47 62.82 132.28 63.83C132.18 61.64 132.05 59.21 131.94 56.78C131.91 56.77 131.88 56.76 131.84 56.74C131.15 58 130.45 59.26 129.69 60.62ZM9.66002 56.76C9.63002 56.77 9.58001 56.78 9.55001 56.8C9.44001 59.22 9.32002 61.63 9.21002 63.8C10.02 62.8 10.9 61.7 11.79 60.6C11.06 59.26 10.35 58.01 9.66002 56.76ZM127.13 46.06C127.06 47.64 127 49.04 126.96 50.43C126.96 50.53 127.06 50.67 127.12 50.7C128.25 51.22 129.38 51.74 130.64 52.3C129.45 50.17 128.33 48.19 127.13 46.06ZM14.37 46.06C13.17 48.19 12.05 50.17 10.86 52.3C12.12 51.73 13.25 51.23 14.37 50.7C14.45 50.66 14.54 50.47 14.54 50.37C14.5 48.99 14.43 47.62 14.37 46.06ZM109.74 134.79C111.12 132.85 112.41 131.04 113.7 129.23C112.49 129.49 111.34 129.84 110.19 130.22C110.1 130.24 109.98 130.4 109.97 130.51C109.89 131.86 109.82 133.23 109.74 134.79ZM31.74 134.3C31.68 133.18 31.61 131.81 31.53 130.44C31.52 130.34 31.41 130.23 31.33 130.2C30.17 129.83 29 129.47 27.84 129.12C27.81 129.17 27.8 129.2 27.77 129.25C29.11 130.97 30.46 132.68 31.74 134.3ZM106.18 137.51C106.18 137.46 106.17 137.41 106.17 137.38C105.05 137.05 103.93 136.71 102.81 136.39C102.73 136.37 102.59 136.41 102.55 136.5C101.9 137.62 101.26 138.75 100.62 139.88C100.64 139.92 100.65 139.94 100.67 139.98C102.5 139.14 104.34 138.33 106.18 137.51ZM78.68 6.13998C78.68 6.09998 78.68 6.06998 78.68 6.02998C76.75 5.44998 74.84 4.85998 72.91 4.27998C72.88 4.33998 72.84 4.38998 72.81 4.44998C73.58 5.45998 74.35 6.46999 75.12 7.46999C75.19 7.54999 75.34 7.58999 75.42 7.54999C76.52 7.09999 77.6 6.61998 78.68 6.13998ZM40.97 140.02C40.54 139.26 40.18 138.63 39.82 138.01C39.51 137.46 39.26 136.66 38.86 136.46C38.43 136.26 37.86 136.63 37.36 136.77C36.68 136.96 36.01 137.17 35.33 137.39C35.33 137.44 35.33 137.47 35.33 137.52C37.17 138.33 39.02 139.15 40.97 140.02ZM62.82 6.04999C62.82 6.08999 62.82 6.11999 62.82 6.15999C63.9 6.63999 64.98 7.11999 66.07 7.57999C66.16 7.61999 66.31 7.57998 66.37 7.49998C67.14 6.49998 67.91 5.48998 68.68 4.47998C68.65 4.42998 68.62 4.36999 68.58 4.32999C66.66 4.87999 64.74 5.45999 62.82 6.04999ZM126.04 64.06C126.07 64.07 126.09 64.1 126.12 64.11C126.76 62.97 127.4 61.81 128.06 60.63C127.52 59.95 127.02 59.32 126.5 58.65C126.34 60.44 126.19 62.25 126.04 64.06ZM15.38 64.1C15.41 64.09 15.43 64.06 15.47 64.05C15.31 62.24 15.17 60.43 15.02 58.71C14.5 59.35 13.99 59.98 13.46 60.64C14.11 61.82 14.75 62.96 15.38 64.1ZM32.74 124.98C32.71 124.99 32.66 125 32.63 125.02C32.69 126.21 32.76 127.4 32.83 128.59C32.84 128.68 32.9 128.83 32.96 128.85C33.63 129.08 34.3 129.28 35.09 129.52C34.25 127.91 33.5 126.44 32.74 124.98ZM108.87 125.03C108.84 125.02 108.79 125.01 108.76 124.99C108 126.47 107.24 127.93 106.42 129.54C107.18 129.3 107.83 129.11 108.47 128.9C108.56 128.88 108.67 128.72 108.68 128.62C108.75 127.41 108.81 126.22 108.87 125.03ZM16.08 54.53C17.13 53.16 18.1 51.91 19.06 50.65C18.05 50.97 17.1 51.4 16.14 51.85C16.06 51.89 15.98 52.11 15.98 52.24C16.01 52.95 16.05 53.67 16.08 54.53ZM125.41 54.53C125.44 53.7 125.46 53.01 125.51 52.32C125.53 52 125.43 51.87 125.22 51.77C124.45 51.44 123.68 51.08 122.91 50.73C122.76 50.66 122.61 50.61 122.46 50.54C122.45 50.58 122.44 50.61 122.43 50.65C123.4 51.91 124.36 53.16 125.41 54.53ZM68.74 10.59C68.01 10.27 67.4 9.98999 66.79 9.73999C66.73 9.71999 66.62 9.75998 66.56 9.83998C65.89 10.7 65.23 11.57 64.56 12.43C64.59 12.49 64.63 12.55 64.66 12.61C65.98 11.97 67.29 11.32 68.74 10.59ZM76.83 12.62C76.86 12.55 76.9 12.49 76.93 12.42C76.28 11.57 75.64 10.73 74.99 9.89998C74.92 9.79998 74.77 9.72999 74.69 9.76999C74.09 10.01 73.49 10.28 72.77 10.6C74.2 11.32 75.51 11.96 76.83 12.62ZM103.34 132.22C101.86 132.6 100.48 132.95 99.1 133.3C100.05 133.69 101 133.98 101.95 134.24C102.05 134.26 102.2 134.18 102.27 134.07C102.62 133.5 102.94 132.92 103.34 132.22ZM38.16 132.22C38.56 132.92 38.9 133.53 39.25 134.12C39.3 134.2 39.43 134.26 39.5 134.25C40.47 133.98 41.43 133.69 42.4 133.4C42.4 133.36 42.4 133.33 42.39 133.29C41.02 132.94 39.64 132.6 38.16 132.22ZM102.64 64.3C102.48 63.73 102.34 63.23 102.2 62.74C102.17 62.75 102.13 62.76 102.1 62.76C102.1 63.33 102.1 63.9 102.1 64.5C102.27 64.43 102.43 64.37 102.64 64.3ZM39.4 64.5C39.4 63.87 39.4 63.32 39.4 62.76C39.37 62.75 39.34 62.75 39.3 62.74C39.15 63.25 39.01 63.76 38.86 64.3C39.08 64.38 39.23 64.43 39.4 64.5ZM38.39 65.95C38.23 66.49 38.1 66.97 37.96 67.46C37.99 67.48 38 67.5 38.03 67.52C38.33 67.09 38.62 66.66 38.96 66.17C38.75 66.1 38.6 66.04 38.39 65.95ZM102.54 66.17C102.89 66.67 103.18 67.1 103.48 67.53C103.5 67.52 103.52 67.49 103.54 67.48C103.4 66.98 103.25 66.48 103.11 65.97C102.91 66.04 102.77 66.08 102.54 66.17ZM52.54 109.67C52.57 109.63 52.58 109.61 52.61 109.57C52.36 109.13 52.1 108.7 51.82 108.21C51.7 108.42 51.6 108.58 51.49 108.77C51.87 109.11 52.2 109.39 52.54 109.67ZM89.68 108.23C89.39 108.72 89.14 109.16 88.89 109.59C88.91 109.63 88.93 109.65 88.95 109.69C89.31 109.39 89.65 109.11 90.08 108.76C89.91 108.53 89.81 108.4 89.68 108.23ZM50.63 107.4C50.26 107.29 49.93 107.19 49.54 107.07C50.19 107.89 50.36 107.93 50.63 107.4ZM92 107.05C91.57 107.18 91.24 107.29 90.9 107.4C91.13 107.96 91.23 107.92 92 107.05ZM71.48 39.02C71.77 38.89 72.06 38.77 72.46 38.59C71.52 38.4 71.42 38.44 71.48 39.02ZM70.04 39.03C70.05 38.46 69.81 38.36 69.11 38.63C69.45 38.77 69.73 38.89 70.04 39.03Z" fill="#FFA700"/>
<path d="M187.97 41.95H175.3V32.4H206.67C208.63 32.4 210.19 34.01 210.19 35.92V41.95H197.52V72.61H187.97V41.95V41.95Z" fill="white"/>
<path d="M254.17 52.51C254.17 63.62 245.17 72.62 234.06 72.62C222.95 72.62 213.95 63.62 213.95 52.51C213.95 41.4 222.95 32.4 234.06 32.4C245.17 32.4 254.17 41.4 254.17 52.51ZM244.57 52.51C244.57 46.73 239.84 42 234.06 42C228.23 42 223.55 46.73 223.55 52.51C223.55 58.34 228.23 63.02 234.06 63.02C239.84 63.02 244.57 58.34 244.57 52.51Z" fill="white"/>
<path d="M260.45 32.4H269.05C269.4 32.4 269.75 32.55 270.01 32.85L280.87 45.47L291.73 32.85C291.98 32.55 292.33 32.4 292.74 32.4H301.28V72.61H291.73V47.48L287.21 52.81L283.54 57.03C282.13 58.64 279.62 58.64 278.21 57.03L270.02 47.48V72.61H260.47V32.4H260.45Z" fill="white"/>
<path d="M326.39 32.4H332.47C334.43 32.4 335.99 33.96 335.99 35.92V47.73H351.57V32.4H357.65C359.56 32.4 361.17 33.96 361.17 35.92V72.62H351.57V57.29H335.99V72.62H326.39V32.4V32.4Z" fill="white"/>
<path d="M407.66 52.51C407.66 63.62 398.66 72.62 387.55 72.62C376.44 72.62 367.44 63.62 367.44 52.51C367.44 41.4 376.44 32.4 387.55 32.4C398.66 32.4 407.66 41.4 407.66 52.51ZM398.06 52.51C398.06 46.73 393.33 42 387.55 42C381.72 42 377.04 46.73 377.04 52.51C377.04 58.34 381.72 63.02 387.55 63.02C393.34 63.02 398.06 58.34 398.06 52.51Z" fill="white"/>
<path d="M413.94 55.68C413.94 53.77 415.55 52.16 417.46 52.16H428.92C431.84 52.16 434.15 49.8 434 46.88C433.9 44.12 431.54 42 428.82 42H413.94V32.45H428.77C436.81 32.45 443.65 38.98 443.6 47.03C443.6 52.86 440.18 57.84 435.2 60.15L447.67 72.62H434.4L423.49 61.71V72.62H413.94V55.68Z" fill="white"/>
<path d="M452.69 32.4H460.23C461.24 32.4 462.24 32.85 462.89 33.61L483.95 58.09V32.4H489.98C491.94 32.4 493.5 33.96 493.5 35.92V72.62H483.85L462.24 47.49V72.62H452.69V32.4V32.4Z" fill="white"/>
<path d="M183.09 122.21C182.9 122.15 182.67 122.08 182.48 121.99C182.29 121.93 182.1 121.83 181.9 121.77L181.48 121.55L180.68 121.13C180.55 121.03 180.39 120.97 180.27 120.87C180.01 120.71 179.76 120.52 179.53 120.36C179.02 119.98 178.57 119.56 178.12 119.14C175.82 116.81 174.38 113.61 174.38 110.09C174.38 106.54 175.82 103.34 178.12 101.04C178.57 100.59 179.02 100.21 179.53 99.83C179.75 99.64 180.01 99.48 180.27 99.32C180.81 98.97 181.36 98.68 181.9 98.42C182.09 98.32 182.28 98.26 182.48 98.16L183.09 97.97C184.37 97.52 185.74 97.3 187.18 97.3C188.62 97.3 189.99 97.52 191.27 97.97L191.88 98.16C192.07 98.26 192.26 98.32 192.46 98.42C193.04 98.68 193.58 98.96 194.09 99.32C194.35 99.48 194.6 99.64 194.86 99.83C195.34 100.21 195.82 100.6 196.24 101.04L191.95 105.33C191.63 105.04 191.31 104.75 190.96 104.53H190.93C190.87 104.47 190.77 104.4 190.67 104.34L190.48 104.24L190.22 104.08C190.03 103.98 189.87 103.92 189.68 103.86L189.42 103.76C189.36 103.73 189.29 103.7 189.23 103.7C189.17 103.67 189.13 103.67 189.1 103.64C189.04 103.64 188.94 103.61 188.88 103.58C188.34 103.45 187.76 103.39 187.19 103.39C186.61 103.39 186.04 103.45 185.53 103.58C185.43 103.61 185.37 103.64 185.27 103.64L185.17 103.7C185.11 103.7 185.01 103.73 184.95 103.76L184.69 103.86C184.5 103.92 184.34 103.99 184.18 104.08L183.96 104.18L183.86 104.28L183.67 104.38C183.61 104.41 183.51 104.48 183.45 104.54L183.16 104.73C183.16 104.73 183.13 104.73 183.13 104.76H183.1V104.79C182.97 104.85 182.88 104.95 182.78 105.01V105.04C181.37 106.26 180.48 108.08 180.48 110.09C180.48 112.11 181.38 113.9 182.78 115.14C182.88 115.2 182.97 115.3 183.1 115.4L183.16 115.46L183.45 115.65C183.67 115.81 183.93 115.94 184.19 116.07C184.35 116.17 184.51 116.26 184.7 116.33C184.96 116.43 185.24 116.52 185.53 116.59C186.04 116.72 186.62 116.81 187.19 116.81C187.77 116.81 188.34 116.71 188.88 116.59C189.14 116.53 189.42 116.43 189.68 116.33C189.87 116.27 190.03 116.17 190.22 116.07C190.48 115.94 190.7 115.81 190.92 115.65H190.95L191.46 115.27L191.94 114.82V110.12H195.78C197.03 110.12 198.02 111.11 198.02 112.33V114.76C198.02 116.39 197.41 117.96 196.26 119.11L196.23 119.14C195.81 119.56 195.33 119.97 194.85 120.36L194.08 120.87L193.7 121.09C193.44 121.25 193.16 121.41 192.87 121.54C192.74 121.64 192.58 121.7 192.46 121.76L191.95 121.95V121.98H191.89C191.7 122.08 191.51 122.14 191.28 122.2C190 122.65 188.63 122.87 187.19 122.87C185.74 122.88 184.37 122.65 183.09 122.21Z" fill="#FFA700"/>
<path d="M210.88 98.73L210.91 98.7C211.23 97.9 212.03 97.32 212.96 97.32C213.89 97.32 214.65 97.86 215.01 98.63L226.33 122.84L226.27 122.87H220L217.54 117.59H208.42L205.96 122.87H199.63L210.88 98.73ZM214.85 111.88L212.99 107.82L211.1 111.88H214.85Z" fill="#FFA700"/>
<path d="M229.53 97.29H235C235.22 97.29 235.45 97.39 235.61 97.58L242.52 105.61L249.43 97.58C249.59 97.39 249.81 97.29 250.07 97.29H255.51V122.88H249.43V106.89L246.55 110.28L244.22 112.97C243.32 113.99 241.72 113.99 240.83 112.97L235.62 106.89V122.88H229.54V97.29H229.53Z" fill="#FFA700"/>
<path d="M260.3 97.29H264.17C265.38 97.29 266.41 98.28 266.41 99.53V122.88H260.3V97.29Z" fill="#FFA700"/>
<path d="M271.2 97.29H276C276.64 97.29 277.28 97.58 277.7 98.06L291.1 113.64V97.3H294.94C296.19 97.3 297.18 98.29 297.18 99.54V122.89H291.04L277.29 106.9V122.89H271.21V97.29H271.2Z" fill="#FFA700"/>
<path d="M309.87 122.21C309.68 122.15 309.46 122.08 309.26 121.99C309.07 121.93 308.88 121.83 308.68 121.77L308.27 121.55L307.47 121.13C307.34 121.03 307.18 120.97 307.05 120.87C306.79 120.71 306.54 120.52 306.31 120.36C305.8 119.98 305.35 119.56 304.9 119.14C302.6 116.81 301.16 113.61 301.16 110.09C301.16 106.54 302.6 103.34 304.9 101.04C305.35 100.59 305.8 100.21 306.31 99.83C306.53 99.64 306.79 99.48 307.05 99.32C307.59 98.97 308.14 98.68 308.68 98.42C308.87 98.32 309.06 98.26 309.26 98.16L309.87 97.97C311.15 97.52 312.52 97.3 313.96 97.3C315.4 97.3 316.77 97.52 318.05 97.97L318.66 98.16C318.85 98.26 319.04 98.32 319.24 98.42C319.82 98.68 320.36 98.96 320.87 99.32C321.13 99.48 321.38 99.64 321.64 99.83C322.12 100.21 322.6 100.6 323.01 101.04L318.72 105.33C318.4 105.04 318.08 104.75 317.73 104.53H317.7C317.64 104.47 317.54 104.4 317.44 104.34L317.25 104.24L316.99 104.08C316.8 103.98 316.64 103.92 316.45 103.86L316.19 103.76C316.13 103.73 316.06 103.7 316 103.7C315.94 103.67 315.9 103.67 315.87 103.64C315.81 103.64 315.71 103.61 315.65 103.58C315.11 103.45 314.53 103.39 313.95 103.39C313.37 103.39 312.8 103.45 312.29 103.58C312.19 103.61 312.13 103.64 312.03 103.64L311.93 103.7C311.87 103.7 311.77 103.73 311.71 103.76L311.45 103.86C311.26 103.92 311.1 103.99 310.94 104.08L310.72 104.18L310.62 104.28L310.43 104.38C310.37 104.41 310.27 104.48 310.21 104.54L309.92 104.73C309.92 104.73 309.89 104.73 309.89 104.76H309.86V104.79C309.73 104.85 309.64 104.95 309.54 105.01V105.04C308.13 106.26 307.24 108.08 307.24 110.09C307.24 112.11 308.14 113.9 309.54 115.14C309.64 115.2 309.73 115.3 309.86 115.4L309.92 115.46L310.21 115.65C310.43 115.81 310.69 115.94 310.95 116.07C311.11 116.17 311.27 116.26 311.46 116.33C311.72 116.43 312 116.52 312.29 116.59C312.8 116.72 313.38 116.81 313.95 116.81C314.52 116.81 315.1 116.71 315.65 116.59C315.91 116.53 316.19 116.43 316.45 116.33C316.64 116.27 316.8 116.17 316.99 116.07C317.25 115.94 317.47 115.81 317.69 115.65H317.72L318.23 115.27L318.71 114.82V110.12H322.55C323.8 110.12 324.79 111.11 324.79 112.33V114.76C324.79 116.39 324.18 117.96 323.03 119.11L323 119.14C322.59 119.56 322.11 119.97 321.63 120.36L320.86 120.87L320.48 121.09C320.22 121.25 319.94 121.41 319.65 121.54C319.52 121.64 319.36 121.7 319.23 121.76L318.72 121.95V121.98H318.66C318.47 122.08 318.28 122.14 318.05 122.2C316.77 122.65 315.4 122.87 313.96 122.87C312.53 122.88 311.15 122.65 309.87 122.21Z" fill="#FFA700"/>
</svg>
