<svg width="237" height="26" viewBox="0 0 237 26" fill="none" xmlns="http://www.w3.org/2000/svg">
<g clip-path="url(#clip0_147_271)">
<path d="M23.9686 25.5809L0.416965 2.39045C-0.472223 1.50567 0.15729 0 1.42419 0H24.9759C25.7628 0 26.3923 0.628657 26.3923 1.39701V24.5952C26.3923 25.837 24.8657 26.4657 23.9686 25.5809Z" fill="#231F20"/>
<path d="M29.2329 24.5952V1.39701C29.2329 0.620896 29.8703 0 30.6493 0H54.201C55.4679 0 56.0974 1.50567 55.2082 2.39045L31.6565 25.5887C30.7595 26.4657 29.2329 25.8448 29.2329 24.603" fill="#231F20"/>
<path d="M58.0962 24.5952V1.39701C58.0962 0.620895 58.7336 0 59.5126 0H83.0643C84.3312 0 84.9607 1.50567 84.0715 2.39045L60.5198 25.5887C59.6228 26.4657 58.0962 25.8448 58.0962 24.603" fill="#231F20"/>
<path d="M116.806 0V16.0113L111.141 4.67224H107.891L102.154 16.1278V0H97.0317V26H102.115L109.457 11.8281L116.877 26H121.89V0H116.806Z" fill="#231F20"/>
<path d="M136.093 7.45851L139.075 16.6167H133.111L136.093 7.45851ZM133.536 0L124.36 25.9922H130.097L131.702 21.0561H140.539L142.144 25.9922H147.841L138.658 0H133.536Z" fill="#231F20"/>
<path d="M148.888 0V4.48597H159.597L148.888 22.5307V26H166.711V21.5528H155.694L166.333 3.46925V0H148.888Z" fill="#231F20"/>
<path d="M184.353 14.6919V11.3003C184.353 6.81433 183.125 4.47821 179.569 4.47821H175.548V21.5528H179.569C183.125 21.5528 184.353 19.1779 184.353 14.6919ZM170.197 25.9922V0H179.569C185.533 0 189.704 3.01134 189.704 11.3003V14.6919C189.704 22.9421 185.533 25.9922 179.569 25.9922H170.197Z" fill="#231F20"/>
<path d="M202.341 7.45851L205.324 16.6167H199.359L202.341 7.45851ZM199.784 0L190.609 25.9922H196.345L197.951 21.0561H206.787L208.393 25.9922H214.09L204.907 0H199.784Z" fill="#231F20"/>
<path d="M231.354 0V16.314L221.022 0H216.584V26H221.675V9.91105L231.968 26H236.437V0H231.354Z" fill="#231F20"/>
</g>
<defs>
<clipPath id="clip0_147_271">
<rect width="236.438" height="26" fill="white"/>
</clipPath>
</defs>
</svg>
