<?xml version="1.0" encoding="utf-8"?>
<!-- Generator: Adobe Illustrator 27.7.0, SVG Export Plug-In . SVG Version: 6.00 Build 0)  -->
<svg version="1.1" id="_Слой_1" xmlns="http://www.w3.org/2000/svg" xmlns:xlink="http://www.w3.org/1999/xlink" x="0px"
	 y="0px" viewBox="0 0 343 102" style="enable-background:new 0 0 343 102;" xml:space="preserve">
<style type="text/css">
	.st0{fill:#072B12;}
	.st1{fill:#73F99C;}
	.st2{fill:#46B56B;}
	.st3{fill:#FFFFFF;}
	.st4{fill:#02A1FA;}
	.st5{fill:#F0EDE9;}
	.st6{fill:#B8B4A3;}
	.st7{fill:#006591;}
	.st8{fill:#76CBFF;}
</style>
<g>
	<path class="st0" d="M123.2228394,43.9456406c-0.5984497-0.9672699-1.2838821-1.8753738-2.0423813-2.7104187l2.1572037-2.1571999
		c3.0687866-3.0687904,3.0687866-8.0616589,0-11.1304379l-11.8924179-11.8924179
		c-1.4334869-1.4334908-3.3366928-2.3416061-5.3616791-2.425107c-1.9832306-0.0800295-3.8690338,0.5671358-5.3651657,1.8162212
		c-1.03685-3.1383705-3.9908142-5.4103861-7.4701614-5.4103861H76.2481232c-4.2343674,0-7.6893616,3.3645363-7.8528976,7.5571499
		l-1.5691833-1.569191c-1.3952179-1.3952227-3.2357979-2.2998447-5.2051086-2.4181528
		c-2.2824554-0.1356993-4.4500885,0.6889153-6.0505905,2.2894087l-1.9240799,1.9240799
		c0.0765457-3.2114439-0.4175224-6.8195286-1.7187996-10.8347015l-1.8127441-5.6017561L44.565155,3.3485615
		c-0.3862076,0.1356997-9.0497894,3.2775528-17.525486,12.07335C18.1220951,6.9148955,10.0743589,3.6095128,9.6255198,3.4285903
		L3.5610116,1L1.9431131,7.328939c-2.2337422,8.7470913-1.3673848,16.2520428,2.5712397,22.3095932
		c3.5767717,5.4973698,8.7818794,8.3713169,12.5604553,9.8222103c0.9255066,20.837822,9.9265862,32.6432533,17.5915966,38.9721947
		c3.9316673,3.2462387,7.8981247,5.3860321,11.1513176,6.7742844c-1.4230499,5.2990417-0.3200989,10.518074-0.1252556,11.3566055
		l1.0159683,4.3665848l4.4814072,0.0626221C51.4333954,100.996521,51.6769485,101,51.9170227,101
		c9.5438614,0,16.860939-2.7173691,21.7459488-8.0755768c0.3235779-0.3549042,0.6262741-0.7167511,0.9150696-1.0785904h30.0441895
		c5.8557434,0,10.7338028-4.2552414,11.7149811-9.8326492c0.1774521-0.0243607,0.3548889-0.0522003,0.532341-0.0835037
		c4.2935181-0.7932968,7.4945221-4.2343597,8.3086853-8.3956757l-0.5984421-26.0116234
		c-0.2261581-1.2630081-0.6715164-2.4772949-1.3534775-3.5732994L123.2228394,43.9456406z"/>
	<g>
		<path class="st0" d="M74.3936386,41.4092026h248.4847412c10.7024841,0,19.3869324,8.6879272,19.3869324,19.3869514l0,0
			c0,10.7024879-8.6879272,19.3869286-19.3869324,19.3869286H74.3936386c-7.1152725,0-12.8909988-5.7757111-12.8909988-12.8909912
			V54.29673c0-7.1152763,5.7757263-12.8909912,12.8909988-12.8909912V41.4092026z"/>
		<g>
			<path class="st1" d="M135.7485046,49.951004h13.6355743c0.6297607,0,1.1238251,0.3305397,1.489151,0.9950867
				c0.1600494,0.3409691,0.2400818,0.6993523,0.2400818,1.0751305v3.5489426h-15.291748
				c-0.9846497,0-1.7918701,0.487114-2.4181519,1.4613304c-0.4001312,0.6436691-0.5984497,1.3638992-0.5984497,2.1641464v3.1905556
				c0,0.9533386,0.2748718,1.7953377,0.8280792,2.5190468c0.2644348,0.3027039,0.4766693,0.504509,0.6367188,0.6054077
				c0.1530914,0.1252518,0.3235779,0.2192001,0.5079803,0.2818222c0.3548889,0.1565781,0.6262817,0.2331085,0.8141785,0.2331085
				h15.4831085v3.5941772c0,0.5706177-0.2087708,1.0890427-0.622818,1.5552597
				c-0.3235779,0.3027039-0.6784668,0.4523087-1.068161,0.4523087h-13.6599274
				c-1.5622253,0-3.0200806-0.5845261-4.3805084-1.7570648c-0.2296295-0.1983261-0.5532074-0.5358124-0.9672546-1.0124817
				c-0.431427-0.5706177-0.7271881-1.0159607-0.8767853-1.3395386c-0.2539978-0.4766693-0.4453583-0.8907166-0.5740967-1.2456131
				c-0.4766693-1.2038651-0.7132568-2.5503731-0.7132568-4.0464897v-2.8634987c0-1.628334,0.2887726-3.0966301,0.8663483-4.4013863
				c0.1530914-0.3722916,0.3618622-0.8002472,0.6228027-1.2769165c0.0695953-0.0939484,0.1391754-0.1983261,0.2157288-0.3096657
				c0.1287231-0.1878777,0.2713776-0.3896866,0.431427-0.6054039c0.4488373-0.5392952,0.8141632-0.9115868,1.095993-1.1203423
				c0.4766693-0.4140434,0.9463806-0.7480659,1.4126129-0.9950867c0.9672699-0.4662437,1.9310455-0.6993523,2.8913422-0.6993523
				L135.7485046,49.951004z"/>
			<path class="st1" d="M163.7955322,49.951004h3.7298584c0.7550201,0,1.3882599,0.3827171,1.8962555,1.1516609
				c0.1356964,0.2296295,0.3061829,0.5810471,0.5079803,1.0577164c0.03479,0.0626259,0.0626373,0.1252518,0.0904694,0.1878777
				c0.0765381,0.1461258,0.7306519,1.5448341,1.9623566,4.1995773c0.3479462,0.7584953,0.7480774,1.6179085,1.1968994,2.5816727
				c2.7939301,6.0262375,4.227417,9.1089401,4.3039551,9.2411575l1.4891815,3.2531815h-3.9212341
				c-1.03685,0-1.7988281-0.5949783-2.2929077-1.7883911c-0.3479309-0.7271957-0.6019135-1.2664871-0.7619781-1.6179047
				c-0.1356964-0.2992249-0.2122345-0.4627609-0.2296295-0.4836349h-12.1707764c-0.0173798,0-0.03479,0.0104446-0.0556641,0.0313187
				s-0.03479,0.0626297-0.0452271,0.1252518l-1.1447144,2.4599075c-0.5184174,0.8489609-1.2038574,1.2769165-2.0632477,1.2769165
				h-3.8829651c0,0-0.024353,0-0.024353-0.0069656v-0.0243607c1.8753662-4.0569153,3.5106659-7.5710678,4.9024048-10.5493927
				c1.102951-2.3764038,1.9936676-4.2935295,2.6721344-5.7583199c1.050766-2.2720261,1.6039734-3.4549942,1.6561737-3.5489426
				c0.1356964-0.3096657,0.2818451-0.5845299,0.4314423-0.824604c0.4905853-0.6436729,1.078598-0.9637871,1.7570801-0.9637871
				L163.7955322,49.951004z M165.6674347,54.5715904l-3.9838715,8.5731239h7.9711914
				c-2.6060333-5.5808716-3.9351501-8.4374237-3.9838715-8.5731239H165.6674347z"/>
			<path class="st1" d="M185.3744812,49.951004h16.1685181c0.4418945,0,0.8559418,0.1809311,1.2490997,0.542778
				c0.5010376,0.5288658,0.7515259,1.2073212,0.7515259,2.0388908v3.0339851h-0.024353
				c-1.1899261,0.020874-3.7020264,0.0313225-7.5362549,0.0313225c-3.0200806,0.0208778-5.3651581,0.0313263-7.0283051,0.0313263
				c-1.7396698,0.020874-2.9226532,0.0313225-3.5524139,0.0313225c-0.1287384,0-0.2435608,0.0521965-0.3444519,0.1565742
				c-0.0835114,0.1043777-0.1287384,0.2539864-0.1287384,0.4523125v1.1829872c0,0.281826,0.0974274,0.4731865,0.2922821,0.5741005
				c0.024353,0.0104485,0.0452271,0.0173912,0.0626221,0.0243568s0.038269,0.0069656,0.0626221,0.0069656
				c3.8516388-0.020874,6.0505981-0.0313225,6.5933685-0.0313225c0.1357117,0,0.3827209-0.0034828,0.7376251-0.0173912
				c1.0020599-0.0208778,2.9017944-0.0313263,5.7026672-0.0313263h0.1008911c0.3653259,0,0.8524475,0.0556602,1.4648132,0.1704865
				c0.4418793,0.0939484,0.8072052,0.2087517,1.095993,0.3409691c0.9185638,0.4349174,1.5761566,1.1238251,1.9727936,2.0702171
				c0.3479309,0.8315697,0.5218964,1.851017,0.5218964,3.0653076v2.2233086c0,2.1989517-0.5323486,3.7507477-1.5900574,4.6518936
				c-0.8559265,0.7480698-2.136322,1.1203384-3.8307648,1.1203384h-15.7475433c-0.594986,0-1.1134033-0.3061829-1.5518036-0.9185562
				c-0.3131561-0.4557953-0.4697113-0.9916077-0.4697113-1.6039734v-3.079216h17.9395447
				c0.2052765,0,0.3374786-0.118309,0.407074-0.3583832c0.017395-0.0313263,0.027832-0.0626297,0.0313263-0.0939484
				c0.003479-0.0313263,0.006958-0.0522003,0.006958-0.0626297v-1.6352959c0-0.2192001-0.0974274-0.3722916-0.2922668-0.4662437
				c-0.0522003-0.020874-0.1009064-0.0313225-0.1530914-0.0313225H185.402298c-2.0388947,0-3.4376068-0.6158524-4.199585-1.851017
				c-0.1530914-0.2296257-0.2644348-0.4418831-0.3305359-0.6367264c-0.0835114-0.1983261-0.1670074-0.4418831-0.2435608-0.7306557
				c-0.0695953-0.2679176-0.1287384-0.6019211-0.1774445-0.9950905c-0.0522003-0.424469-0.0765381-1.0542526-0.0765381-1.8823166
				v-0.1252518c0-2.0006256,0.1391754-3.3819199,0.4210052-4.1369553c0.1426392-0.5079918,0.3862-0.9846611,0.7271881-1.4300079
				c0.1878815-0.2574654,0.3514252-0.4418831,0.4975433-0.546257c0.4940643-0.4140472,1.047287-0.6993561,1.6666107-0.8559303
				c0.5253754-0.1565742,1.089035-0.2331085,1.6944427-0.2331085L185.3744812,49.951004z"/>
			<path class="st1" d="M208.4703979,49.951004h2.9539642v6.1932373c0,0.5392952,0.1670074,1.0159645,0.4975586,1.4300079
				c0.3305359,0.403595,0.7550049,0.6054039,1.2734222,0.6054039h12.2333832l0.0243683-0.0313225v-8.2008324h2.9678955
				c0.3653259,0,0.7306519,0.1913605,1.0960083,0.5741005c0.3479309,0.4140434,0.5218964,0.9289818,0.5218964,1.5413513v17.4872208
				c0,0.7376175-0.2574768,1.3221436-0.7758942,1.7570648c-0.2818146,0.2087555-0.5775604,0.3096695-0.8907013,0.3096695h-2.9157104
				V66.046463c0-0.4453735-0.0452271-0.7793732-0.1391754-0.9950943c-0.0522003-0.1565704-0.1287384-0.3270569-0.2296295-0.5149384
				c-0.3549042-0.507988-0.8106995-0.7619743-1.3638916-0.7619743h-12.2994995v7.8424492h-2.9296112
				c-0.4662476,0-0.8733215-0.2226868-1.2212524-0.6680298c-0.2957306-0.3931732-0.4453735-0.8907166-0.4453735-1.4926376
				V52.1221123c0-0.8593864,0.3061829-1.5100441,0.9150696-1.9449654c0.2539978-0.1565742,0.4975586-0.2331085,0.7272034-0.2331085
				L208.4703979,49.951004z"/>
			<path class="st1" d="M242.8602905,49.951004h3.7298584c0.7550049,0,1.3882599,0.3827171,1.8962402,1.1516609
				c0.1357117,0.2296295,0.3061981,0.5810471,0.5079956,1.0577164c0.03479,0.0626259,0.0626221,0.1252518,0.0904694,0.1878777
				c0.0765381,0.1461258,0.7306519,1.5448341,1.9623566,4.1995773c0.3479309,0.7584953,0.7480774,1.6179085,1.1968994,2.5816727
				c2.7939301,6.0262375,4.227417,9.1089401,4.3039551,9.2411575l1.4891663,3.2531815h-3.9212341
				c-1.0368347,0-1.7988129-0.5949783-2.2928925-1.7883911c-0.3479309-0.7271957-0.6019287-1.2664871-0.7619781-1.6179047
				c-0.1356964-0.2992249-0.2122345-0.4627609-0.2296295-0.4836349h-12.1707611c-0.017395,0-0.03479,0.0104446-0.0556641,0.0313187
				s-0.03479,0.0626297-0.0452271,0.1252518l-1.1446991,2.4599075c-0.5184174,0.8489609-1.2038727,1.2769165-2.0632629,1.2769165
				h-3.8829346c0,0-0.0243683,0-0.0243683-0.0069656v-0.0243607c1.8753815-4.0569153,3.5106812-7.5710678,4.90242-10.5493927
				c1.102951-2.3764038,1.9936676-4.2935295,2.6721344-5.7583199c1.0507812-2.2720261,1.6039734-3.4549942,1.6561737-3.5489426
				c0.1357117-0.3096657,0.2818298-0.5845299,0.4314423-0.824604c0.4905853-0.6436729,1.0785828-0.9637871,1.7570648-0.9637871
				L242.8602905,49.951004z M244.7321777,54.5715904l-3.9838562,8.5731239h7.9711914
				c-2.6060333-5.5808716-3.9351501-8.4374237-3.9838715-8.5731239H244.7321777z"/>
			<path class="st1" d="M261.3182678,49.951004h2.9400635c0,0.0626259-0.0035095,0.1148224-0.013916,0.1565742
				c-0.006958,0.020874-0.013916,0.0347862-0.013916,0.0452309v14.9681702l0.024353,0.0313263h-0.024353
				c0.017395,0.020874,0.024353,0.038269,0.024353,0.0556641v0.8176346h16.2973022v3.4375992
				c0,0.9533386-0.3549194,1.6352997-1.0681763,2.0388947c-0.1948547,0.0835037-0.3862,0.1252518-0.5740967,0.1252518h-17.5707092
				c-0.5775757,0-1.0473022-0.3061829-1.4126282-0.9185486c-0.1531067-0.2887955-0.2366028-0.5810471-0.2539978-0.8698425
				v-0.1565704l-0.024353-17.7203331c0-0.5079918,0.1670227-0.9742126,0.4975586-1.3987045
				c0.3374939-0.403595,0.7306519-0.6054039,1.1725464-0.6054039L261.3182678,49.951004z"/>
			<path class="st1" d="M287.3542175,49.951004h9.1298218c1.5378723,0,2.971344,0.5671349,4.3039551,1.6944389
				c0.2192078,0.1670036,0.4975281,0.4349213,0.8280945,0.8106956c0.0521851,0.0522003,0.1078491,0.1078606,0.1669922,0.1704865
				c0.414032,0.5810432,0.7167358,1.026413,0.9046326,1.3395386c0.8907166,1.60746,1.3360596,3.3819199,1.3360596,5.3199196
				v3.0026817c0,2.2929001-0.6053772,4.3317947-1.8196716,6.1132202c-0.3827209,0.5079956-0.6958923,0.8698425-0.9429321,1.0890427
				c-0.424469,0.4349136-0.862854,0.7932968-1.3117065,1.0751266c-1.1029663,0.7063141-2.2650757,1.0577164-3.4898071,1.0577164
				h-9.0776367c-1.6387634,0-3.1488037-0.6158524-4.5335999-1.8510208
				c-0.2296143-0.2192001-0.5532227-0.5740967-0.9672546-1.0751266c-0.4175415-0.5497437-0.6993713-0.9950867-0.8524475-1.3395386
				c-0.8072205-1.5239639-1.2108154-3.194046-1.2108154-5.0102768v-3.1279335c0-2.1258774,0.5566711-4.0569115,1.6665955-5.7861595
				c0.1600647-0.2296295,0.424469-0.5810471,0.7898254-1.0577164c0.3653259-0.3827171,0.6784668-0.6680298,0.9429016-0.8559265
				c1.2977905-1.047287,2.6791077-1.5726738,4.1369629-1.5726738L287.3542175,49.951004z M284.4141846,59.3626404v2.8321953
				c0,0.7689476,0.1322021,1.4056511,0.393158,1.9136467c0.0521851,0.1878738,0.2052917,0.4523087,0.459259,0.7932968
				c0.6019287,0.7480698,1.3326111,1.1203461,2.1885071,1.1203461h8.9245605c0.9916077,0,1.7987976-0.4940643,2.4181519-1.4787292
				c0.1774292-0.2783432,0.3200989-0.5636482,0.42099-0.8559265c0.1357117-0.403595,0.2018127-0.9220352,0.2018127-1.5552559
				V59.487915c0-0.6749954-0.0591431-1.1760216-0.1774292-1.5100479c-0.2644348-0.8176384-0.7063293-1.450882-1.3256531-1.8997345
				c-0.4662476-0.3409691-0.9707336-0.5149345-1.5134888-0.5149345h-8.9767456
				c-0.9846497,0-1.7987976,0.5079918-2.4459839,1.5239563c-0.1774597,0.3096657-0.3027039,0.5845261-0.3688049,0.824604
				c-0.1357117,0.3827209-0.2052917,0.8663559-0.2052917,1.4473991L284.4141846,59.3626404z"/>
			<path class="st1" d="M307.1900024,49.951004h19.7209473c0.4940796,0,0.9011841,0.1809311,1.2212524,0.542778
				c0.1774597,0.2087517,0.2922974,0.3792572,0.3444519,0.5149345c0.1531067,0.3618469,0.2296448,0.6680298,0.2296448,0.9185562
				v3.6707077h-9.5090637v16.0258904h-2.9539795c-0.417511,0-0.8072205-0.2018127-1.1725464-0.6054077
				c-0.006958-0.0104446-0.017395-0.024353-0.024353-0.0452347c-0.024353-0.0313187-0.0591431-0.0765305-0.1008911-0.139183
				c-0.2470398-0.3931656-0.3688049-0.7967606-0.3688049-1.2142868V55.6014633h-9.1785278v-2.8634987
				c0-0.7376213,0.017395-1.1099129,0.0521851-1.1203384c0.0765381-0.4140434,0.2087708-0.7480698,0.3931885-0.9950905
				c0.2052917-0.2192001,0.3514099-0.3514175,0.4453735-0.403595c0.2122192-0.1774521,0.5149231-0.2644348,0.9046021-0.2644348
				L307.1900024,49.951004z"/>
			<path class="st2" d="M314.5766602,60.9074745v8.7122841c0,0.4140472,0.1217651,0.8211212,0.3688049,1.2142868
				c0.041748,0.0626297,0.0765381,0.1078644,0.1008911,0.139183c0.006958,0.0208817,0.017395,0.03479,0.024353,0.0452347
				c0.3653259,0.403595,0.7550354,0.6054077,1.1725464,0.6054077h2.9539795V60.8935432
				c-1.5030823,0.0034828-3.0409546,0.0069656-4.6206055,0.0139084L314.5766602,60.9074745z"/>
			<path class="st2" d="M299.4241028,60.9457626v1.186451c0,0.6332436-0.0696106,1.1516609-0.2018127,1.5552559
				c-0.1008911,0.2887955-0.2435608,0.5741043-0.4210205,0.8559265c-0.6193237,0.9846649-1.4265137,1.4787292-2.4181519,1.4787292
				h-8.92453c-0.8559265,0-1.5865784-0.3722992-2.1885071-1.1203461c-0.2539978-0.3409653-0.407074-0.6054001-0.4592896-0.7932968
				c-0.2644348-0.5079956-0.393158-1.1446991-0.393158-1.9136467v-1.210804
				c-1.5204773,0.0034828-3.0513916,0.0069656-4.5962219,0.0104485v1.3569527c0,1.8162079,0.403595,3.4863205,1.2107849,5.0102768
				c0.1531067,0.3409653,0.4384155,0.7898178,0.8524475,1.3395386c0.4140625,0.4975433,0.7376404,0.8559265,0.9672852,1.0751266
				c1.3847656,1.2351685,2.8948059,1.8510208,4.5335999,1.8510208h9.0776367c1.2212524,0,2.3868408-0.3514175,3.4898071-1.0577164
				c0.448822-0.2783432,0.887207-0.6367264,1.3117065-1.0751266c0.2470398-0.2192001,0.5601807-0.5810471,0.9429016-1.0890427
				c1.2142944-1.7849045,1.8197021-3.8237991,1.8197021-6.1132202v-1.3534698
				c-1.5100403,0.0034828-3.0409546,0.0069656-4.5962219,0.0104485L299.4241028,60.9457626z"/>
			<path class="st2" d="M259.6655579,61.0396919l0.013916,8.6392326v0.1565704
				c0.017395,0.2922821,0.1008911,0.5810471,0.2539978,0.8698425c0.3653259,0.6123657,0.8350525,0.9185486,1.4125977,0.9185486
				h17.5707397c0.1878662,0,0.3757629-0.041748,0.5740967-0.1252441c0.7132568-0.4036026,1.0681458-1.085556,1.0681458-2.0388947
				v-3.4376068h-16.2972717v-0.8176346c0,0-0.006958-0.0347824-0.024353-0.0556641h0.024353l-0.024353-0.0313187v-4.0917206
				c-1.5169983,0-3.0409546,0.0069656-4.5718689,0.0104485V61.0396919z"/>
			<path class="st2" d="M248.7160492,63.1447144h-7.9711914l0.9637909-2.0702171
				c-1.7953339,0-3.5906982,0.0069656-5.3860321,0.0104485c-1.3882599,2.9678955-3.0165863,6.4715805-4.8849945,10.5111237V71.62043
				c0,0,0.006958,0.0069656,0.024353,0.0069656h3.8829498c0.8559265,0,1.5448303-0.424469,2.0632477-1.2769165l1.1446991-2.4599075
				c0.0069733-0.0626221,0.0243683-0.1043701,0.0452423-0.1252518c0.020874-0.020874,0.038269-0.0313187,0.0556488-0.0313187
				h12.1707611c0.017395,0.020874,0.0939484,0.1809311,0.2296295,0.4836349
				c0.1600647,0.3514175,0.4140472,0.8907089,0.7619781,1.6179047c0.4940643,1.1934128,1.2560425,1.7883911,2.2929077,1.7883911
				h3.9212341l-1.4891663-3.2531815c-0.0661011-0.118309-1.2073364-2.5642853-3.4132538-7.320549
				c-1.7918701,0-3.590683,0.0069656-5.3895111,0.0104485c0.3027039,0.6471558,0.6262817,1.3395424,0.9707336,2.0806465
				L248.7160492,63.1447144z"/>
			<path class="st2" d="M206.8281403,61.1197319v8.3399925c0,0.6019211,0.1496124,1.0994644,0.4453735,1.49263
				c0.3479309,0.4453659,0.7550049,0.6680298,1.2212524,0.6680298h2.9295959v-7.8424454h12.2994995
				c0.5532227,0,1.0055389,0.2539825,1.3639069,0.7619781c0.1008911,0.1878738,0.1774445,0.3583832,0.2296295,0.5149384
				c0.0939484,0.2192001,0.1391754,0.5497437,0.1391754,0.9950867v5.5704422h2.9156952
				c0.3131561,0,0.6123657-0.1043777,0.8907166-0.3096695c0.5184174-0.4349136,0.7758942-1.0229263,0.7758942-1.7570648v-8.4617805
				c-7.842453,0.0104485-15.6292419,0.020874-23.2107544,0.0278397L206.8281403,61.1197319z"/>
			<path class="st2" d="M180.9730835,61.1301575c0.0626373,0.1287346,0.1322174,0.2574692,0.2261658,0.3966522
				c0.7619781,1.2351646,2.1641541,1.851017,4.199585,1.851017h12.8840179c0.0522003,0,0.1008911,0.0104485,0.1530914,0.0313225
				c0.1948547,0.0939484,0.2922821,0.2505035,0.2922821,0.4662399v1.6352997c0,0,0,0.0313263-0.0069733,0.0626297
				c-0.003479,0.0313187-0.0139008,0.0626221-0.031311,0.0939484c-0.0695953,0.2400742-0.2052917,0.3583832-0.4070892,0.3583832
				h-17.9395294v3.079216c0,0.6123657,0.1565857,1.1446991,0.4697113,1.6039734
				c0.4418793,0.6123734,0.9602966,0.9185562,1.5517883,0.9185562h15.7475433c1.697937,0,2.9748535-0.3722916,3.83078-1.1203461
				c1.0611877-0.9011612,1.5900574-2.4529343,1.5900574-4.651886V63.631855c0-0.9533386-0.1113434-1.7849083-0.3270569-2.5051384
				c-7.7102356,0.0069656-15.1804047,0.0069656-22.2434845,0.0069656L180.9730835,61.1301575z"/>
			<path class="st2" d="M156.2836151,71.6238861c0.8559265,0,1.5448456-0.424469,2.0632629-1.2769089l1.1446991-2.4599075
				c0.006958-0.0626221,0.0243683-0.1043777,0.0452423-0.1252518s0.038269-0.0313187,0.0556641-0.0313187h12.1707764
				c0.017395,0.020874,0.0939484,0.1809311,0.2296295,0.4836349c0.1600494,0.3514175,0.4140472,0.8907089,0.7619781,1.6179047
				c0.4940643,1.1934128,1.2560425,1.7883911,2.2928925,1.7883911h3.9212341l-1.4891663-3.2531891
				c-0.0661011-0.1183014-1.1934204-2.536438-3.3784637-7.2440071c-1.8336182,0-3.632431,0-5.3964691-0.0034828
				c0.2922821,0.6297607,0.6088867,1.3012733,0.9429169,2.0215034h-7.9711914l0.9429016-2.0284691
				c-1.8440552,0-3.6359253-0.0069656-5.3756104-0.0104485c-1.3847809,2.9644127-3.0096283,6.4576759-4.8710938,10.4867668
				v0.0243607c0,0,0.006958,0.0069656,0.0243683,0.0069656h3.8829498L156.2836151,71.6238861z"/>
			<path class="st2" d="M149.384079,71.6238861c0.389679,0,0.7480469-0.1496048,1.068161-0.4523087
				c0.4140472-0.4662399,0.6228027-0.9846649,0.6228027-1.5552597v-3.5941772h-15.4831085
				c-0.1878815,0-0.4592743-0.0765305-0.8141632-0.2331085c-0.1878967-0.0626221-0.3548889-0.1565704-0.5079803-0.2818222
				c-0.1600494-0.1043777-0.3722992-0.3061905-0.6367188-0.6054077c-0.5532227-0.7271957-0.8280945-1.5657043-0.8280945-2.519043
				v-1.3917427c-1.8544922-0.020874-3.3958435-0.041748-4.5962219-0.0626259v1.3012733
				c0,1.4926338,0.2366028,2.8426247,0.7132721,4.0464897c0.1287384,0.3514175,0.3200989,0.7689438,0.5740814,1.2456131
				c0.1531067,0.3200912,0.4453583,0.7689438,0.8768005,1.3395386c0.4175262,0.4766693,0.7376251,0.8141785,0.9672546,1.0124817
				c1.3569489,1.1725388,2.8182831,1.7570648,4.3805084,1.7570648H149.3806L149.384079,71.6238861z"/>
		</g>
	</g>
	<circle class="st2" cx="60.4275246" cy="32.7073517" r="1.6561716"/>
	<circle class="st3" cx="66.022316" cy="46.8891792" r="1.6561716"/>
	<circle class="st3" cx="81.7872543" cy="43.0653763" r="1.6561742"/>
	<circle class="st2" cx="105.342453" cy="34.0956116" r="1.6561742"/>
	<circle class="st3" cx="97.5521927" cy="46.8891792" r="1.6561742"/>
	<path class="st1" d="M72.2016449,55.4762115v-9.3664055c-2.2407074,1.5100479-5.3060074,1.2769165-7.285759-0.7063179
		c-2.2476654-2.2476654-2.2476654-5.8975029,0-8.1451607c1.983223-1.9832344,5.0485306-2.2163429,7.285759-0.7063065v-2.9400558
		l-8.2182236-8.2182236c-1.9275589,1.5343952-4.7562714,1.4404564-6.6664391-0.2574692l-4.5196762,4.5196743
		c1.6979218,1.9101601,1.7918625,4.7388744,0.257473,6.6664371l19.1503448,19.1503448L72.2016449,55.4762115z M58.729599,31.0094185
		c0.9394226-0.9394283,2.4599037-0.9394283,3.3993263,0s0.9394226,2.4599037,0,3.3993225
		c-0.9394226,0.9394264-2.4599037,0.9394264-3.3993263,0C57.7901764,33.4693108,57.7901764,31.9488373,58.729599,31.0094185z"/>
	<path class="st2" d="M73.0540848,59.5888062c-0.532341-0.685421-0.8559265-1.5448303-0.8559265-2.4807777v-0.0347862
		l-20.7264862-20.72649l0.4001236-0.4001236c1.5517921-1.5517883,1.5065613-4.1195507-0.1008987-5.7235355l-0.5706139-0.5706196
		l6.1062622-6.1062546l0.5706139,0.5706177c1.6074562,1.6074581,4.1752205,1.6526909,5.7235298,0.1009045l0.4001198-0.4001236
		l8.1973495,8.1973476v-2.5155735l-9.5542946-9.5542927c-0.8350449-0.835041-2.1919937-0.835041-3.0270348,0L47.5956726,31.9662495
		c-0.835041,0.835043-0.835041,2.191988,0,3.0270405l25.4549255,25.4549294V59.588829L73.0540848,59.5888062z"/>
	<path class="st1" d="M114.0930252,29.690752l-4.5196762-4.5196724c-1.9101562,1.6979237-4.7388687,1.7918625-6.6664352,0.2574692
		l-5.6052399,5.6052284v4.6031818c1.6666183-0.1739655,3.3958511,0.3757668,4.6727676,1.6526947
		c2.2476578,2.247654,2.2476578,5.8974915,0,8.1451607c-1.2769241,1.2769127-3.0061646,1.8266563-4.6727676,1.6526909v5.8070335
		l16.5373535-16.5373497c-1.5343933-1.9275627-1.4404526-4.7562771,0.2574692-6.6664371H114.0930252z M108.2233658,34.5026894
		c-0.9394302,0.9394302-2.4599075,0.9394302-3.3993225,0c-0.9394302-0.9394302-0.9394302-2.4599037,0-3.3993225
		c0.9394302-0.9394283,2.4598999-0.9394283,3.3993225,0C109.1627884,32.0427971,109.1627884,33.5632706,108.2233658,34.5026894z"/>
	<path class="st2" d="M119.2876892,32.0010452l-12.0211487-12.0211506c-0.8350372-0.835043-2.1919861-0.835043-3.0270386,0
		l-6.9413071,6.941309v2.5155735l5.5843506-5.5843525l0.4001236,0.4001217
		c1.5517883,1.5517883,4.1195526,1.5065556,5.7235336-0.1009026l0.5706253-0.5706196l6.1062546,6.1062565l-0.5706177,0.5706177
		c-1.60746,1.6074581-1.6526947,4.1752224-0.1009064,5.7235355l0.4001236,0.4001236L97.2981873,54.4950562v2.5155602
		l21.9860153-21.9860153c0.8350372-0.835041,0.8350372-2.1919861,0-3.0270386L119.2876892,32.0010452z"/>
	<path class="st1" d="M89.5670776,37.5053711c0-2.633873-2.1363297-4.7701874-4.7701874-4.7701874
		s-4.7701874,2.1363258-4.7701874,4.7701874c0,2.6338577,2.1363297,4.7701836,4.7701874,4.7701836
		S89.5670776,40.1392288,89.5670776,37.5053711z M82.3439407,39.4816399
		c-0.3201065-0.3409805-0.514946-0.824604-0.5845261-1.4543686h-0.9776993v-1.047287h0.9776993
		c0.0695877-0.6401978,0.2609482-1.1203499,0.5775757-1.4439278c0.3131332-0.3235779,0.7132568-0.4975433,1.1968918-0.5184212
		v1.308239c-0.1148148,0.0243607-0.2192001,0.0591545-0.3061829,0.1043777
		c-0.0869827,0.0452347-0.1600494,0.1148148-0.2192001,0.2087631c-0.0591507,0.0939369-0.1043777,0.2087631-0.1356964,0.3479347
		s-0.0487213,0.3096695-0.0487213,0.5149498c0,0.4175262,0.0556717,0.7202263,0.1704865,0.9046326
		c0.1148148,0.1844025,0.2748718,0.2748718,0.4836349,0.2748718c0.2574692,0,0.4488373-0.1217804,0.5810547-0.3618584
		c0.1322174-0.2400742,0.2470322-0.6262779,0.3548889-1.1551437c0.0591583-0.3131409,0.135704-0.5949669,0.2296448-0.8385277
		c0.0974197-0.243557,0.2192001-0.4523087,0.3653259-0.6193237c0.1496048-0.1704826,0.3270569-0.2957458,0.53582-0.3827286
		s0.4592743-0.1322174,0.7515411-0.1322174c0.4592743,0,0.8385239,0.1600456,1.1377411,0.4766693
		c0.2992249,0.3166199,0.490593,0.755024,0.5706253,1.3117104h0.8037262v1.047287h-0.8037262
		c-0.0695953,0.5810585-0.2539978,1.015976-0.553215,1.3012733c-0.2992249,0.2853127-0.6749954,0.4488411-1.1307907,0.4871101
		v-1.308239c0.2087631-0.0417519,0.3653259-0.1357002,0.4662323-0.278347c0.1008987-0.1461372,0.1530914-0.3862,0.1530914-0.7236977
		s-0.0556717-0.5949669-0.1670151-0.7584953c-0.1113434-0.1635323-0.2574692-0.2435608-0.4453583-0.2435608
		c-0.2226791,0-0.3966446,0.1113434-0.5288544,0.3374977c-0.1322174,0.222683-0.2435608,0.5775719-0.3374939,1.0611992
		c-0.0626297,0.3305397-0.142662,0.6262779-0.2365952,0.8872299c-0.0939407,0.2574692-0.2122345,0.4766693-0.3583755,0.6541176
		c-0.1461334,0.1774521-0.3235779,0.3131409-0.53582,0.4105606c-0.2122345,0.0974236-0.4662323,0.1426544-0.7619781,0.1426544
		c-0.50103,0-0.9115906-0.1704826-1.2316971-0.5114632L82.3439407,39.4816399z"/>
	<path class="st2" d="M95.388031,57.1080284V17.899229c0-1.1829777-0.9568176-2.1397991-2.1397934-2.1397991H76.2481232
		c-1.1829758,0-2.1397934,0.9568214-2.1397934,2.1397991v39.2088013c0,1.1829872,0.9568176,2.1398087,2.1397934,2.1398087
		h17.0000992c1.1829834,0,2.139801-0.9568214,2.139801-2.1398087H95.388031z M80.4303131,58.3362503v-0.8072128
		c0-2.2720261-1.7849121-4.1195602-3.9768982-4.1195602h-0.5671387v-31.811697h0.5671387
		c2.1919861,0,3.9768982-1.8475342,3.9768982-4.1195507v-0.8072109h8.6357498v0.8072109
		c0,2.2720165,1.7849045,4.1195507,3.9768906,4.1195507h0.5671387v31.811697h-0.5671387
		c-2.1919861,0-3.9768906,1.8475342-3.9768906,4.1195602v0.8072128H80.4303131z"/>
	<path class="st1" d="M92.4793015,52.3134956V22.7007484c-2.4494629-0.2783432-4.3805008-2.3450775-4.5335922-4.8954487h-6.3915634
		c-0.1530914,2.5503597-2.0841293,4.617094-4.5335922,4.8954487v29.6127472
		c2.4494629,0.2783432,4.3805008,2.3450775,4.5335922,4.8954468h6.3915634
		C88.0988007,54.6585732,90.0298386,52.5918388,92.4793015,52.3134956z M82.3926697,25.3589668
		c0-1.329113,1.075119-2.404232,2.4042282-2.404232c1.3291168,0,2.4042358,1.075119,2.4042358,2.404232
		c0,1.3291149-1.075119,2.404232-2.4042358,2.404232C83.4677887,27.7631989,82.3926697,26.6880817,82.3926697,25.3589668z
		 M78.9898682,37.5088654c0-3.1801338,2.5781937-5.7583218,5.758316-5.7583218s5.7583237,2.5781994,5.7583237,5.7583218
		c0,3.1801186-2.5782013,5.7583199-5.7583237,5.7583199S78.9898682,40.6889839,78.9898682,37.5088654z M82.3926697,49.7144318
		c0-1.3291168,1.075119-2.4042244,2.4042282-2.4042244c1.3291168,0,2.4042358,1.0751305,2.4042358,2.4042244
		c0,1.3290901-1.075119,2.4042206-2.4042358,2.4042206C83.4677887,52.1186523,82.3926697,51.0435219,82.3926697,49.7144318z"/>
	<circle class="st2" cx="84.7968903" cy="25.355484" r="1.6561742"/>
	<circle class="st1" cx="84.7968903" cy="25.355484" r="1.3012737"/>
	<circle class="st1" cx="105.342453" cy="34.0956116" r="1.3012737"/>
	<circle class="st1" cx="60.4275246" cy="32.7073517" r="1.3012763"/>
	<path class="st4" d="M29.7570457,20.9193134l9.7943687,10.9808292c0,0,12.5639343-5.7374458,6.9239044-23.1516018
		c0,0-8.6566238,3.0653076-16.7182789,12.1672897L29.7570457,20.9193134z"/>
	<path class="st1" d="M101.3064117,38.0237999c-1.0925217-1.0925217-2.5851517-1.5413475-4.0082092-1.3499908v4.5788269
		c0,0,0.1252518,0.65411,0.3305435,1.2038536c-0.0974197,0.0556602-0.1983261,0.1113434-0.2922592,0.1530914
		c-0.0139236,0.0069656-0.0243607,0.0104485-0.038269,0.0139122v3.4967422
		c1.4230499,0.1913605,2.9156952-0.2574692,4.0082092-1.3499908c1.8614502-1.8614426,1.8614502-4.8850098,0-6.7464638
		L101.3064117,38.0237999z M100.4017792,44.6067238l-0.5671387-0.5671349
		c-0.4592743,0.3618469-0.8976669,0.5392952-1.3117065,0.5288696c-0.4140472-0.0104485-0.7932968-0.1600571-1.1447144-0.4523125
		l0.8872299-0.8872299c0.0452347,0.0069656,0.0904694,0.0173912,0.142662,0.0243568
		c0.1426544,0.0730743,0.2818222,0.097435,0.4209976,0.0730743c0.03479-0.0069656,0.0730591-0.020874,0.1113358-0.0347824
		c0.6332474,0.020874,1.3499908-0.017395,1.3499908-0.017395s0.2574692-0.0904655,0.5079803-0.3166122
		c-0.0661011,0.1148262-0.1391678,0.2296295-0.2261505,0.3479385l0.567131,0.5671349l-0.7410965,0.7411041L100.4017792,44.6067238z"
		/>
	<path class="st1" d="M65.6465454,37.9263802c-1.8614502,1.861454-1.8614502,4.8850098,0,6.7464523
		c1.8023071,1.8023033,4.6832123,1.8544998,6.5550995,0.1739693v-7.0944023
		c-1.8718948-1.6840019-4.7527924-1.6283302-6.5550995,0.1739693V37.9263802z M70.3541107,43.2810936
		c-0.0835114,0.2192001-0.2296371,0.4314346-0.4384003,0.6402092c-0.3548889,0.3549004-0.7654572,0.521904-1.2316818,0.5079956
		c-0.4662323-0.0139122-0.9463882-0.2192039-1.4404526-0.6123695l-0.6923904,0.6923866l-0.7411041-0.7411041l0.6923904-0.6923866
		c-0.4036102-0.5010262-0.6088867-0.9776955-0.6123657-1.4300079c-0.003479-0.2887917,0.0695877-0.5601692,0.2018051-0.8106842
		h0.6784744l0.5218964,0.5218925c-0.0661087,0.0974312-0.1148148,0.1948433-0.1426544,0.2887917
		c-0.027832,0.0939484-0.031311,0.1948433-0.006958,0.3027c0.0243607,0.1078606,0.0765457,0.222683,0.1496124,0.3409691
		c0.0765457,0.121769,0.1878815,0.2539864,0.3305359,0.3966522c0.2957458,0.2957382,0.549736,0.4697037,0.7584915,0.5184212
		c0.2087631,0.0487137,0.3896866,0,0.53582-0.1496086c0.1809311-0.1809349,0.2331161-0.4035988,0.1530914-0.6680298
		c-0.0765457-0.2644348-0.2679062-0.6193352-0.567131-1.0681648c-0.1148224-0.1704826-0.2122421-0.3340149-0.2957535-0.494072
		h1.3917465c0.0521851,0.0834999,0.1078568,0.1704865,0.1704865,0.2644348
		c0.1878815,0.2783546,0.3409729,0.5427856,0.4592743,0.7932892s0.1878891,0.4871178,0.2087631,0.7167473
		c0.0208817,0.2296257-0.006958,0.4523125-0.0904541,0.6680298L70.3541107,43.2810936z M71.7354126,41.8545685l-0.9255066-0.9255066
		c0.020874-0.0313148,0.03479-0.0626259,0.0521851-0.0904694h1.3117142
		C72.1390152,41.2039223,71.9963608,41.54142,71.7354126,41.8545685z"/>
	<path class="st5" d="M110.7841568,79.9499741L110.7841568,79.9499741c0,3.4062729-2.7626038,6.1653976-6.1654053,6.1653976
		H76.2237701c0,0,2.3589935-4.3526688,1.6666107-8.7053452c0,0,2.3381195,2.4807816,13.2076111,2.4738159
		c14.4949722-0.0104446,19.6861649,0.0661087,19.6861649,0.0661087V79.9499741z"/>
	<path class="st4" d="M107.3813553,40.8385925H54.0568352c-14.5750008,0-22.4244137-11.3461666-22.4244137-11.3461666
		C20.7490139,14.058033,7.4926891,8.7485409,7.4926891,8.7485409C1.6543397,31.6009121,22.7287655,35.163765,22.7287655,35.163765
		C22.332119,76.4184265,54.1890488,81.926239,54.1890488,81.926239c-5.0137444,4.3526764-2.9191742,13.3398438-2.9191742,13.3398438
		c24.2893448,0.3479309,22.5079193-18.8789597,22.5079193-18.8789597v-5.754837
		c0-0.9289856,0.7515411-1.6805344,1.6805191-1.6805344h0.9881363c0.9289932,0,1.6805191,0.7515335,1.6805191,1.6805344l0,0
		c0,2.9852829,2.4042358,5.4173508,5.3929977,5.4451904l31.3037109,0.3096695c3.0096359,0,5.4486694-2.4390335,5.4486694-5.4486542
		V53.7330971c0-7.1222191-5.7722397-12.8944702-12.8944702-12.8944702L107.3813553,40.8385925z M85.9346466,71.442955
		c-1.5935364,0-2.8843842-1.2908478-2.8843842-2.8843689c0-1.5935287,1.2908325-2.8843765,2.8843842-2.8843765
		c1.593544,0,2.8843842,1.2908478,2.8843842,2.8843765C88.8190308,70.1521072,87.5281906,71.442955,85.9346466,71.442955z"/>
	<path class="st6" d="M89.657547,86.1153717c1.3395462-1.590065,3.0305099-3.8586121,4.0847473-6.234993
		c-0.8454742,0-1.7257538,0-2.6443024,0c-10.8694916,0.0069656-13.2076111-2.4738083-13.2076111-2.4738083
		c0.6923828,4.3526688-1.6666107,8.7053375-1.6666107,8.7053375h13.4337616L89.657547,86.1153717z"/>
	<path class="st7" d="M34.280201,16.4309521c-1.4891624,1.297802-3.0131187,2.7869644-4.5196781,4.4883614l9.7943707,10.9808292
		c0,0,1.5274353-0.6993542,3.2775459-2.3450794c-1.1690598-3.8516445-3.6220055-9.1472149-8.5522423-13.1241112H34.280201z"/>
	<path class="st8" d="M42.828968,29.5550518c3.2705879-3.0757446,7.3205566-9.4638367,3.6463585-20.8065109
		c0,0-0.563652,0.2017984-1.5343971,0.6471548c2.7243347,11.631465-2.1119652,20.1558723-2.1119652,20.1593552H42.828968z"/>
	<path class="st7" d="M54.637886,85.9101028c3.8585968-3.1661987-0.4488373-3.9803772-0.4488373-3.9803772
		c-5.0137444,4.3526688-2.9191742,13.3398361-2.9191742,13.3398361S50.7792854,89.0763245,54.637886,85.9101028z"/>
	<path class="st7" d="M9.8516855,12.7671871l-2.8913393-1.590066C3.171334,31.8583813,22.7252827,35.1672478,22.7252827,35.1672478
		S6.619369,25.8599834,9.8516855,12.7671871z"/>
	<path class="st7" d="M22.7287598,35.1637726C22.3321133,76.4184265,54.189045,81.926239,54.189045,81.926239
		S31.844656,70.9871597,22.7287598,35.1637726z"/>
	<path class="st1" d="M54.3351784,40.7864075l-6.3358994-6.3358955c-0.5671387-0.5671349-0.5671387-1.4891624,0-2.0597801
		l11.9341698-11.9341679c0.5671387-0.5671368,1.4891624-0.5671368,2.0597763,0l10.2049332,10.2049294v-1.1655846
		l-9.5542946-9.5542927c-0.8350449-0.835041-2.1919937-0.835041-3.0270348,0L47.5956726,31.9627666
		c-0.835041,0.835043-0.835041,2.191988,0,3.0270405l5.8105125,5.8105202l0.9220276-0.0208778L54.3351784,40.7864075z"/>
	<path class="st1" d="M93.2482376,15.7629128H76.2481232c-1.1829758,0-2.1397934,0.9568214-2.1397934,2.1397991v24.1362514
		l0.5288544-1.1968956V18.5637856c0-1.3012733,1.054245-2.3589993,2.3590012-2.3589993h15.3996048
		c1.3012772,0,2.3590012,1.0542431,2.3590012,2.3589993v22.2782822c0,0,0.2261505,0.4418831,0.6332397,1.0994644V17.9027004
		c0-1.1829758-0.9568176-2.1397982-2.1397934-2.1397982V15.7629128z"/>
	<path class="st1" d="M119.2876892,31.9662495l-12.0211487-12.0211506c-0.8350372-0.835041-2.1919861-0.835041-3.0270386,0
		l-6.9413071,6.941309v1.1655846l7.5954132-7.595417c0.5671387-0.5671368,1.4891663-0.5671368,2.0597839,0l11.934166,11.9341679
		c0.5671387,0.5671349,0.5671387,1.4891586,0,2.0597801l-7.3414307,7.0735245l0.6958694,0.6297607l7.0456848-7.1604996
		c0.8350449-0.835041,0.8350449-2.1919861,0-3.0270367L119.2876892,31.9662495z"/>
	<path class="st8" d="M120.2758255,70.938446V53.7330551c0-7.1222191-5.7722397-12.8944702-12.8944702-12.8944702H54.0568352
		c-14.5750008,0-22.4244137-11.346159-22.4244137-11.346159C20.7490139,14.058033,7.4926891,8.7485409,7.4926891,8.7485409
		c-0.2122407,0.835042-0.3862081,1.6422539-0.5288601,2.425108c5.7374477,3.0061636,15.4900703,8.9802017,19.6444111,16.659132
		c2.6269093,4.8536968,6.711668,8.3469563,10.5006809,10.7477055c4.5823021,2.9052505,9.9091873,4.4222641,15.3369751,4.4222641
		h52.8513298c10.5528641,0,10.7233658,10.8173103,10.7233658,10.8173103v15.3891602
		c0,2.5747299-2.087616,4.6588516-4.6588593,4.6588516H79.2160187c0.9811783,1.3221512,2.5434036,2.1885071,4.3143921,2.2059174
		l31.3037186,0.3096695c3.0096359,0,5.4486618-2.4390259,5.4486618-5.4486542L120.2758255,70.938446z"/>
</g>
</svg>
