<?xml version="1.0" encoding="UTF-8"?>
<!-- Generator: Adobe Illustrator 23.0.6, SVG Export Plug-In . SVG Version: 6.00 Build 0)  -->
<svg version="1.1" id="Ebene_1" xmlns="http://www.w3.org/2000/svg" xmlns:xlink="http://www.w3.org/1999/xlink" x="0px" y="0px" viewBox="0 0 181.4 35" style="enable-background:new 0 0 181.4 35;" xml:space="preserve">
<style type="text/css">
	.st0{fill:#FFFFFF;}
</style>
<g>
	<path class="st0" d="M65.8,10.6c-1.3,0-2.4,0.3-3.3,0.8c-0.9,0.5-1.7,1.2-2.2,2.2h-0.2c0.1-1.3,0.2-2.4,0.2-3.5v-7h-3.9v27h3.9   v-9.5c0-2.4,0.4-4.1,1.2-5.2c0.8-1,2-1.5,3.6-1.5c1.2,0,2.1,0.4,2.7,1.1c0.6,0.7,0.9,1.8,0.9,3.3v11.8h3.9V17.7   C72.5,13,70.3,10.6,65.8,10.6z"/>
	<path class="st0" d="M133,10.6c-2.8,0-4.9,0.9-6.4,2.6c-1.5,1.8-2.3,4.2-2.3,7.3c0,2,0.4,3.8,1.1,5.3s1.7,2.7,3,3.5   s2.8,1.2,4.5,1.2c2.7,0,4.9-0.9,6.4-2.6c1.5-1.8,2.3-4.2,2.3-7.4c0-3-0.8-5.4-2.3-7.2C137.8,11.5,135.7,10.6,133,10.6z M133,27.2   c-3.1,0-4.7-2.2-4.7-6.7c0-2.1,0.4-3.7,1.1-4.9c0.7-1.1,1.9-1.7,3.6-1.7c3.1,0,4.7,2.2,4.7,6.6C137.6,25,136.1,27.2,133,27.2z"/>
	<path class="st0" d="M35.3,12.2c-1.2-1.1-2.9-1.6-5.3-1.6c-1,0-2.2,0.1-3.3,0.4c-1.2,0.3-2.3,0.7-3.3,1.2l1.3,2.9   c0.8-0.4,1.6-0.7,2.5-1s1.8-0.4,2.7-0.4c1.1,0,2,0.3,2.5,0.9c0.5,0.6,0.8,1.5,0.8,2.8v1L30,18.5c-2.9,0.1-5,0.6-6.4,1.7   c-1.4,1-2.1,2.5-2.1,4.5c0,1.9,0.5,3.3,1.5,4.3s2.4,1.5,4.2,1.5c1.4,0,2.6-0.2,3.4-0.6c0.9-0.4,1.8-1.2,2.7-2.4h0.1l0.8,2.7H37v-13   C37.1,15,36.5,13.3,35.3,12.2z M33.2,22.7c0,1.5-0.4,2.7-1.3,3.5c-0.9,0.8-2,1.2-3.4,1.2c-1,0-1.7-0.2-2.2-0.7s-0.7-1.1-0.7-2   c0-1.2,0.4-2.1,1.3-2.6c0.8-0.6,2.2-0.9,4-1l2.4-0.1C33.2,21,33.2,22.7,33.2,22.7z"/>
	<path class="st0" d="M13.4,8c1,0,2,0.2,2.9,0.5s1.8,0.7,2.6,1.1L20.2,6c-2.1-1.1-4.4-1.6-6.9-1.6C11,4.4,9,4.9,7.2,6   c-1.7,1.1-3.1,2.6-4,4.6s-1.4,4.3-1.4,6.9c0,4.2,0.9,7.4,2.9,9.7c1.9,2.3,4.6,3.4,8.2,3.4c2.4,0,4.6-0.4,6.5-1.1v-3.6   c-1,0.3-2,0.6-3,0.8c-1,0.2-2,0.3-3,0.3C11,27,9.2,26.2,8,24.6c-1.3-1.6-2-4-2-7.1c0-3,0.7-5.3,2-7S11.1,8,13.4,8z"/>
	<path class="st0" d="M51.5,20.6c-0.7-0.5-1.8-1.1-3.3-1.7c-1.8-0.7-3-1.3-3.5-1.7c-0.5-0.4-0.8-0.9-0.8-1.5c0-1.2,1-1.8,3.1-1.8   c1.3,0,3,0.4,5,1.3l1.3-3.1c-1.9-0.9-4-1.4-6.1-1.4c-2.2,0-3.9,0.5-5.2,1.4s-1.9,2.2-1.9,3.8c0,1.4,0.4,2.5,1.1,3.3   c0.7,0.9,2.2,1.7,4.3,2.6c1.1,0.4,1.9,0.8,2.5,1.2c0.6,0.3,1,0.7,1.3,1s0.4,0.7,0.4,1.2c0,1.5-1.2,2.3-3.6,2.3   c-1.9,0-3.9-0.5-6-1.6v3.5c1.5,0.8,3.4,1.2,5.9,1.2c2.4,0,4.3-0.5,5.6-1.5s2-2.4,2-4.3c0-0.9-0.2-1.7-0.5-2.4   C52.7,21.7,52.2,21.1,51.5,20.6z"/>
	<path class="st0" d="M156.5,10.1c0,0.8,0.1,1.9,0.3,3.3h-0.2c-1.3-1.9-3.1-2.8-5.5-2.8c-2.3,0-4.1,0.9-5.4,2.6s-1.9,4.2-1.9,7.4   c0,3.1,0.6,5.6,1.9,7.3c1.3,1.7,3.1,2.6,5.4,2.6c2.4,0,4.2-1,5.5-2.9h0.2l0.7,2.5h3v-27h-3.9L156.5,10.1L156.5,10.1z M156.7,21.2   c0,2.1-0.4,3.7-1.1,4.6c-0.7,0.9-1.9,1.4-3.5,1.4c-1.4,0-2.5-0.6-3.2-1.7s-1.1-2.7-1.1-4.9s0.4-3.8,1.1-5c0.7-1.2,1.8-1.7,3.2-1.7   c1.6,0,2.8,0.5,3.5,1.5c0.8,1,1.1,2.7,1.1,5.2V21.2z"/>
	<path class="st0" d="M179.8,19.3c0-2.7-0.7-4.8-2.1-6.4c-1.4-1.5-3.3-2.3-5.7-2.3c-2.6,0-4.7,0.9-6.1,2.7c-1.5,1.8-2.2,4.3-2.2,7.4   s0.8,5.5,2.4,7.2c1.6,1.7,3.8,2.6,6.7,2.6c1.3,0,2.4-0.1,3.3-0.3c1-0.2,1.9-0.5,2.9-1v-3.3c-1.1,0.5-2.1,0.9-3,1.1s-1.9,0.3-3,0.3   c-1.6,0-2.9-0.5-3.8-1.5c-0.9-1-1.4-2.4-1.4-4.3H180L179.8,19.3L179.8,19.3z M167.6,18.5c0.1-1.6,0.6-2.8,1.3-3.6s1.7-1.2,3-1.2   c1.2,0,2.2,0.4,2.9,1.2s1.1,2,1.1,3.6H167.6z"/>
	<path class="st0" d="M93.8,10.9c-2.5,0-4.4,0.9-5.9,2.6s-2.1,4.1-2.1,7.2c0,2,0.3,3.7,1,5.2c0.6,1.5,1.6,2.6,2.8,3.4   c1.2,0.8,2.6,1.2,4.2,1.2c2.5,0,4.5-0.9,5.9-2.6s2.1-4.1,2.1-7.2c0-3-0.7-5.4-2.1-7.2C98.3,11.8,96.3,10.9,93.8,10.9z M98.4,26.8   c-1.1,1.5-2.6,2.2-4.6,2.2s-3.5-0.7-4.6-2.2s-1.6-3.5-1.6-6.1s0.5-4.6,1.6-6.1c1.1-1.4,2.6-2.1,4.6-2.1s3.5,0.7,4.6,2.2   c1.1,1.4,1.6,3.5,1.6,6.1C100.1,23.3,99.5,25.3,98.4,26.8z"/>
	<path class="st0" d="M115.9,8c1,0,2,0.2,2.9,0.5s1.8,0.7,2.6,1.1l1.4-3.5c-2.1-1.1-4.4-1.6-6.9-1.6c-2.4,0-4.4,0.5-6.1,1.6   s-3.1,2.6-4,4.6s-1.4,4.3-1.4,6.9c0,4.2,0.9,7.4,2.9,9.7c1.9,2.3,4.6,3.4,8.2,3.4c2.4,0,4.6-0.4,6.5-1.1V26c-1,0.3-2,0.6-3,0.8   c-1,0.2-2,0.3-3,0.3c-2.4,0-4.2-0.8-5.4-2.4c-1.3-1.6-1.9-4-1.9-7.1c0-3,0.7-5.3,2-7C111.9,8.8,113.7,8,115.9,8z"/>
	<path class="st0" d="M79.3,28c-0.5-0.7-0.7-1.8-0.7-3.2v-12h5.3v-1.5h-5.3V6.7h-0.8L76.9,11l-2.7,0.8v1h2.7V25   c0,1.9,0.4,3.3,1.1,4.2c0.8,0.9,1.9,1.3,3.5,1.3c1,0,2-0.1,2.8-0.4v-1.4c-0.8,0.2-1.7,0.3-2.7,0.3C80.6,29,79.8,28.7,79.3,28z"/>
</g>
</svg>